G04 #@! TF.GenerationSoftware,KiCad,Pcbnew,(5.1.6)-1*
G04 #@! TF.CreationDate,2021-01-08T10:20:39+01:00*
G04 #@! TF.ProjectId,Lokdecoder_TI_altQuartz,4c6f6b64-6563-46f6-9465-725f54495f61,rev?*
G04 #@! TF.SameCoordinates,Original*
G04 #@! TF.FileFunction,Copper,L4,Bot*
G04 #@! TF.FilePolarity,Positive*
%FSLAX46Y46*%
G04 Gerber Fmt 4.6, Leading zero omitted, Abs format (unit mm)*
G04 Created by KiCad (PCBNEW (5.1.6)-1) date 2021-01-08 10:20:39*
%MOMM*%
%LPD*%
G01*
G04 APERTURE LIST*
G04 #@! TA.AperFunction,SMDPad,CuDef*
%ADD10R,1.500000X1.500000*%
G04 #@! TD*
G04 #@! TA.AperFunction,SMDPad,CuDef*
%ADD11R,0.400000X0.650000*%
G04 #@! TD*
G04 #@! TA.AperFunction,SMDPad,CuDef*
%ADD12R,1.000000X0.800000*%
G04 #@! TD*
G04 #@! TA.AperFunction,SMDPad,CuDef*
%ADD13R,0.450000X0.600000*%
G04 #@! TD*
G04 #@! TA.AperFunction,SMDPad,CuDef*
%ADD14R,0.600000X0.450000*%
G04 #@! TD*
G04 #@! TA.AperFunction,Conductor*
%ADD15R,2.600000X3.300000*%
G04 #@! TD*
G04 #@! TA.AperFunction,ComponentPad*
%ADD16C,0.630000*%
G04 #@! TD*
G04 #@! TA.AperFunction,SMDPad,CuDef*
%ADD17R,0.650000X0.400000*%
G04 #@! TD*
G04 #@! TA.AperFunction,ViaPad*
%ADD18C,0.800000*%
G04 #@! TD*
G04 #@! TA.AperFunction,Conductor*
%ADD19C,0.250000*%
G04 #@! TD*
G04 #@! TA.AperFunction,Conductor*
%ADD20C,0.500000*%
G04 #@! TD*
G04 #@! TA.AperFunction,Conductor*
%ADD21C,1.000000*%
G04 #@! TD*
G04 #@! TA.AperFunction,Conductor*
%ADD22C,0.254000*%
G04 #@! TD*
G04 APERTURE END LIST*
D10*
X67843400Y-118033800D03*
D11*
X51028600Y-106690200D03*
X52328600Y-106690200D03*
X51678600Y-104790200D03*
X51678600Y-106690200D03*
X52328600Y-104790200D03*
X51028600Y-104790200D03*
G04 #@! TA.AperFunction,SMDPad,CuDef*
G36*
G01*
X59662350Y-110484300D02*
X60174850Y-110484300D01*
G75*
G02*
X60393600Y-110703050I0J-218750D01*
G01*
X60393600Y-111140550D01*
G75*
G02*
X60174850Y-111359300I-218750J0D01*
G01*
X59662350Y-111359300D01*
G75*
G02*
X59443600Y-111140550I0J218750D01*
G01*
X59443600Y-110703050D01*
G75*
G02*
X59662350Y-110484300I218750J0D01*
G01*
G37*
G04 #@! TD.AperFunction*
G04 #@! TA.AperFunction,SMDPad,CuDef*
G36*
G01*
X59662350Y-112059300D02*
X60174850Y-112059300D01*
G75*
G02*
X60393600Y-112278050I0J-218750D01*
G01*
X60393600Y-112715550D01*
G75*
G02*
X60174850Y-112934300I-218750J0D01*
G01*
X59662350Y-112934300D01*
G75*
G02*
X59443600Y-112715550I0J218750D01*
G01*
X59443600Y-112278050D01*
G75*
G02*
X59662350Y-112059300I218750J0D01*
G01*
G37*
G04 #@! TD.AperFunction*
G04 #@! TA.AperFunction,SMDPad,CuDef*
G36*
G01*
X58650850Y-112934100D02*
X58138350Y-112934100D01*
G75*
G02*
X57919600Y-112715350I0J218750D01*
G01*
X57919600Y-112277850D01*
G75*
G02*
X58138350Y-112059100I218750J0D01*
G01*
X58650850Y-112059100D01*
G75*
G02*
X58869600Y-112277850I0J-218750D01*
G01*
X58869600Y-112715350D01*
G75*
G02*
X58650850Y-112934100I-218750J0D01*
G01*
G37*
G04 #@! TD.AperFunction*
G04 #@! TA.AperFunction,SMDPad,CuDef*
G36*
G01*
X58650850Y-111359100D02*
X58138350Y-111359100D01*
G75*
G02*
X57919600Y-111140350I0J218750D01*
G01*
X57919600Y-110702850D01*
G75*
G02*
X58138350Y-110484100I218750J0D01*
G01*
X58650850Y-110484100D01*
G75*
G02*
X58869600Y-110702850I0J-218750D01*
G01*
X58869600Y-111140350D01*
G75*
G02*
X58650850Y-111359100I-218750J0D01*
G01*
G37*
G04 #@! TD.AperFunction*
G04 #@! TA.AperFunction,SMDPad,CuDef*
G36*
G01*
X57122350Y-104438900D02*
X57634850Y-104438900D01*
G75*
G02*
X57853600Y-104657650I0J-218750D01*
G01*
X57853600Y-105095150D01*
G75*
G02*
X57634850Y-105313900I-218750J0D01*
G01*
X57122350Y-105313900D01*
G75*
G02*
X56903600Y-105095150I0J218750D01*
G01*
X56903600Y-104657650D01*
G75*
G02*
X57122350Y-104438900I218750J0D01*
G01*
G37*
G04 #@! TD.AperFunction*
G04 #@! TA.AperFunction,SMDPad,CuDef*
G36*
G01*
X57122350Y-106013900D02*
X57634850Y-106013900D01*
G75*
G02*
X57853600Y-106232650I0J-218750D01*
G01*
X57853600Y-106670150D01*
G75*
G02*
X57634850Y-106888900I-218750J0D01*
G01*
X57122350Y-106888900D01*
G75*
G02*
X56903600Y-106670150I0J218750D01*
G01*
X56903600Y-106232650D01*
G75*
G02*
X57122350Y-106013900I218750J0D01*
G01*
G37*
G04 #@! TD.AperFunction*
D12*
X62255400Y-115290600D03*
X62255400Y-112750600D03*
X68405400Y-112750600D03*
X68405400Y-115290600D03*
D13*
X56718200Y-113834200D03*
X56718200Y-115934200D03*
D14*
X61561000Y-107111800D03*
X63661000Y-107111800D03*
X61561000Y-105130600D03*
X63661000Y-105130600D03*
D15*
X66248000Y-109982000D03*
D16*
X65598000Y-108682000D03*
X65598000Y-109982000D03*
X66898000Y-109982000D03*
X66898000Y-108682000D03*
X65598000Y-111282000D03*
X66898000Y-111282000D03*
G04 #@! TA.AperFunction,SMDPad,CuDef*
G36*
G01*
X58719100Y-114327650D02*
X58719100Y-113815150D01*
G75*
G02*
X58937850Y-113596400I218750J0D01*
G01*
X59375350Y-113596400D01*
G75*
G02*
X59594100Y-113815150I0J-218750D01*
G01*
X59594100Y-114327650D01*
G75*
G02*
X59375350Y-114546400I-218750J0D01*
G01*
X58937850Y-114546400D01*
G75*
G02*
X58719100Y-114327650I0J218750D01*
G01*
G37*
G04 #@! TD.AperFunction*
G04 #@! TA.AperFunction,SMDPad,CuDef*
G36*
G01*
X60294100Y-114327650D02*
X60294100Y-113815150D01*
G75*
G02*
X60512850Y-113596400I218750J0D01*
G01*
X60950350Y-113596400D01*
G75*
G02*
X61169100Y-113815150I0J-218750D01*
G01*
X61169100Y-114327650D01*
G75*
G02*
X60950350Y-114546400I-218750J0D01*
G01*
X60512850Y-114546400D01*
G75*
G02*
X60294100Y-114327650I0J218750D01*
G01*
G37*
G04 #@! TD.AperFunction*
G04 #@! TA.AperFunction,SMDPad,CuDef*
G36*
G01*
X57956900Y-109704850D02*
X57956900Y-109192350D01*
G75*
G02*
X58175650Y-108973600I218750J0D01*
G01*
X58613150Y-108973600D01*
G75*
G02*
X58831900Y-109192350I0J-218750D01*
G01*
X58831900Y-109704850D01*
G75*
G02*
X58613150Y-109923600I-218750J0D01*
G01*
X58175650Y-109923600D01*
G75*
G02*
X57956900Y-109704850I0J218750D01*
G01*
G37*
G04 #@! TD.AperFunction*
G04 #@! TA.AperFunction,SMDPad,CuDef*
G36*
G01*
X59531900Y-109704850D02*
X59531900Y-109192350D01*
G75*
G02*
X59750650Y-108973600I218750J0D01*
G01*
X60188150Y-108973600D01*
G75*
G02*
X60406900Y-109192350I0J-218750D01*
G01*
X60406900Y-109704850D01*
G75*
G02*
X60188150Y-109923600I-218750J0D01*
G01*
X59750650Y-109923600D01*
G75*
G02*
X59531900Y-109704850I0J218750D01*
G01*
G37*
G04 #@! TD.AperFunction*
G04 #@! TA.AperFunction,SMDPad,CuDef*
G36*
G01*
X57931600Y-108180850D02*
X57931600Y-107668350D01*
G75*
G02*
X58150350Y-107449600I218750J0D01*
G01*
X58587850Y-107449600D01*
G75*
G02*
X58806600Y-107668350I0J-218750D01*
G01*
X58806600Y-108180850D01*
G75*
G02*
X58587850Y-108399600I-218750J0D01*
G01*
X58150350Y-108399600D01*
G75*
G02*
X57931600Y-108180850I0J218750D01*
G01*
G37*
G04 #@! TD.AperFunction*
G04 #@! TA.AperFunction,SMDPad,CuDef*
G36*
G01*
X59506600Y-108180850D02*
X59506600Y-107668350D01*
G75*
G02*
X59725350Y-107449600I218750J0D01*
G01*
X60162850Y-107449600D01*
G75*
G02*
X60381600Y-107668350I0J-218750D01*
G01*
X60381600Y-108180850D01*
G75*
G02*
X60162850Y-108399600I-218750J0D01*
G01*
X59725350Y-108399600D01*
G75*
G02*
X59506600Y-108180850I0J218750D01*
G01*
G37*
G04 #@! TD.AperFunction*
G04 #@! TA.AperFunction,SMDPad,CuDef*
G36*
G01*
X56614350Y-112059100D02*
X57126850Y-112059100D01*
G75*
G02*
X57345600Y-112277850I0J-218750D01*
G01*
X57345600Y-112715350D01*
G75*
G02*
X57126850Y-112934100I-218750J0D01*
G01*
X56614350Y-112934100D01*
G75*
G02*
X56395600Y-112715350I0J218750D01*
G01*
X56395600Y-112277850D01*
G75*
G02*
X56614350Y-112059100I218750J0D01*
G01*
G37*
G04 #@! TD.AperFunction*
G04 #@! TA.AperFunction,SMDPad,CuDef*
G36*
G01*
X56614350Y-110484100D02*
X57126850Y-110484100D01*
G75*
G02*
X57345600Y-110702850I0J-218750D01*
G01*
X57345600Y-111140350D01*
G75*
G02*
X57126850Y-111359100I-218750J0D01*
G01*
X56614350Y-111359100D01*
G75*
G02*
X56395600Y-111140350I0J218750D01*
G01*
X56395600Y-110702850D01*
G75*
G02*
X56614350Y-110484100I218750J0D01*
G01*
G37*
G04 #@! TD.AperFunction*
G04 #@! TA.AperFunction,SMDPad,CuDef*
G36*
G01*
X59209650Y-105314100D02*
X58697150Y-105314100D01*
G75*
G02*
X58478400Y-105095350I0J218750D01*
G01*
X58478400Y-104657850D01*
G75*
G02*
X58697150Y-104439100I218750J0D01*
G01*
X59209650Y-104439100D01*
G75*
G02*
X59428400Y-104657850I0J-218750D01*
G01*
X59428400Y-105095350D01*
G75*
G02*
X59209650Y-105314100I-218750J0D01*
G01*
G37*
G04 #@! TD.AperFunction*
G04 #@! TA.AperFunction,SMDPad,CuDef*
G36*
G01*
X59209650Y-106889100D02*
X58697150Y-106889100D01*
G75*
G02*
X58478400Y-106670350I0J218750D01*
G01*
X58478400Y-106232850D01*
G75*
G02*
X58697150Y-106014100I218750J0D01*
G01*
X59209650Y-106014100D01*
G75*
G02*
X59428400Y-106232850I0J-218750D01*
G01*
X59428400Y-106670350D01*
G75*
G02*
X59209650Y-106889100I-218750J0D01*
G01*
G37*
G04 #@! TD.AperFunction*
G04 #@! TA.AperFunction,SMDPad,CuDef*
G36*
G01*
X63167550Y-110179500D02*
X63680050Y-110179500D01*
G75*
G02*
X63898800Y-110398250I0J-218750D01*
G01*
X63898800Y-110835750D01*
G75*
G02*
X63680050Y-111054500I-218750J0D01*
G01*
X63167550Y-111054500D01*
G75*
G02*
X62948800Y-110835750I0J218750D01*
G01*
X62948800Y-110398250D01*
G75*
G02*
X63167550Y-110179500I218750J0D01*
G01*
G37*
G04 #@! TD.AperFunction*
G04 #@! TA.AperFunction,SMDPad,CuDef*
G36*
G01*
X63167550Y-108604500D02*
X63680050Y-108604500D01*
G75*
G02*
X63898800Y-108823250I0J-218750D01*
G01*
X63898800Y-109260750D01*
G75*
G02*
X63680050Y-109479500I-218750J0D01*
G01*
X63167550Y-109479500D01*
G75*
G02*
X62948800Y-109260750I0J218750D01*
G01*
X62948800Y-108823250D01*
G75*
G02*
X63167550Y-108604500I218750J0D01*
G01*
G37*
G04 #@! TD.AperFunction*
D17*
X56327000Y-117333000D03*
X56327000Y-118633000D03*
X58227000Y-117983000D03*
X56327000Y-117983000D03*
X58227000Y-118633000D03*
X58227000Y-117333000D03*
D11*
X51039000Y-115102600D03*
X52339000Y-115102600D03*
X51689000Y-117002600D03*
X51689000Y-115102600D03*
X52339000Y-117002600D03*
X51039000Y-117002600D03*
X51039000Y-111648200D03*
X52339000Y-111648200D03*
X51689000Y-113548200D03*
X51689000Y-111648200D03*
X52339000Y-113548200D03*
X51039000Y-113548200D03*
X51028600Y-108193800D03*
X52328600Y-108193800D03*
X51678600Y-110093800D03*
X51678600Y-108193800D03*
X52328600Y-110093800D03*
X51028600Y-110093800D03*
D10*
X66725800Y-105333800D03*
X69265800Y-105333800D03*
X65303400Y-118033800D03*
X62763400Y-118033800D03*
X54381400Y-118135400D03*
X60172600Y-118135400D03*
X48895000Y-114477800D03*
X54432200Y-114681000D03*
X48895000Y-105435400D03*
X55295800Y-105486200D03*
X48895000Y-108229400D03*
X54432200Y-108178600D03*
X48895000Y-111633000D03*
X54838600Y-111937800D03*
X48945800Y-117119400D03*
D18*
X50469800Y-107670600D03*
X49513159Y-118888841D03*
X50317400Y-111125000D03*
X53150002Y-109905800D03*
X54686200Y-113309400D03*
X57300342Y-118588764D03*
X60274200Y-104876600D03*
X55448200Y-110587798D03*
X53822600Y-105943400D03*
X49802215Y-112962039D03*
X56159400Y-109753400D03*
X57785000Y-114071400D03*
X65058982Y-116112982D03*
X57226200Y-109702600D03*
X54656439Y-109554148D03*
X69590002Y-117053400D03*
X56718200Y-114940999D03*
X66217800Y-113309400D03*
X53122668Y-115795033D03*
X60172600Y-116066000D03*
X58849998Y-115390998D03*
X55803800Y-114477800D03*
X52857400Y-105632458D03*
X52950315Y-107442000D03*
X52330064Y-109168798D03*
X50528902Y-109038591D03*
X53314600Y-111212800D03*
X53150002Y-112677843D03*
X69123000Y-110617000D03*
X69672200Y-106959400D03*
D19*
X51028600Y-108193800D02*
X50993000Y-108193800D01*
X50993000Y-108193800D02*
X50469800Y-107670600D01*
X52339000Y-116542598D02*
X52339000Y-117002600D01*
X52149001Y-116352599D02*
X52339000Y-116542598D01*
X51039000Y-115677600D02*
X51713999Y-116352599D01*
X51713999Y-116352599D02*
X52149001Y-116352599D01*
X51039000Y-115102600D02*
X51039000Y-115677600D01*
X59512200Y-110921600D02*
X59512200Y-110972600D01*
X51039000Y-111648200D02*
X50840600Y-111648200D01*
X50840600Y-111648200D02*
X50317400Y-111125000D01*
X52339000Y-113548200D02*
X54244200Y-113548200D01*
X54244200Y-113548200D02*
X54483000Y-113309400D01*
X56718200Y-113834200D02*
X56193400Y-113309400D01*
X56193400Y-113173800D02*
X56870600Y-112496600D01*
X56193400Y-113309400D02*
X56193400Y-113173800D01*
X58394600Y-112496600D02*
X56870600Y-112496600D01*
X52328600Y-110093800D02*
X52962002Y-110093800D01*
X52962002Y-110093800D02*
X53150002Y-109905800D01*
X51039000Y-114642598D02*
X51039000Y-115102600D01*
X51228999Y-114452599D02*
X51039000Y-114642598D01*
X52339000Y-114008202D02*
X51894603Y-114452599D01*
X51894603Y-114452599D02*
X51228999Y-114452599D01*
X52339000Y-113548200D02*
X52339000Y-114008202D01*
X58394600Y-112445800D02*
X59918600Y-110921800D01*
X58394600Y-112496600D02*
X58394600Y-112445800D01*
X52328600Y-106230198D02*
X52328600Y-106690200D01*
X51717189Y-106040199D02*
X52138601Y-106040199D01*
X51028600Y-105351610D02*
X51717189Y-106040199D01*
X52138601Y-106040199D02*
X52328600Y-106230198D01*
X51028600Y-104790200D02*
X51028600Y-105351610D01*
X54686200Y-113309400D02*
X54483000Y-113309400D01*
X55245000Y-113309400D02*
X54686200Y-113309400D01*
X56193400Y-113309400D02*
X55245000Y-113309400D01*
D20*
X56327000Y-118633000D02*
X57185800Y-118633000D01*
X57185800Y-118633000D02*
X57327800Y-118491000D01*
D19*
X57766998Y-117333000D02*
X58227000Y-117333000D01*
X57576999Y-117522999D02*
X57766998Y-117333000D01*
X57576999Y-118140201D02*
X57576999Y-117522999D01*
X57300342Y-118416858D02*
X57576999Y-118140201D01*
X57300342Y-118588764D02*
X57300342Y-118416858D01*
X58953200Y-104876400D02*
X58953400Y-104876600D01*
X57378600Y-104876400D02*
X58953200Y-104876400D01*
X58953400Y-104876600D02*
X60274200Y-104876600D01*
X53822600Y-105943400D02*
X53075800Y-106690200D01*
X53075800Y-106690200D02*
X52328600Y-106690200D01*
X66121000Y-109855000D02*
X66248000Y-109982000D01*
X65238000Y-109042000D02*
X65598000Y-108682000D01*
D21*
X62248790Y-111216316D02*
X62248790Y-109742010D01*
X62255400Y-111222926D02*
X62248790Y-111216316D01*
X65308000Y-109042000D02*
X66248000Y-109982000D01*
X62248790Y-109742010D02*
X62948800Y-109042000D01*
X63423800Y-109042000D02*
X65308000Y-109042000D01*
X62948800Y-109042000D02*
X63423800Y-109042000D01*
D19*
X59156290Y-113259110D02*
X59918600Y-112496800D01*
X58724896Y-113259110D02*
X59156290Y-113259110D01*
X57912606Y-114071400D02*
X58724896Y-113259110D01*
X57785000Y-114071400D02*
X57912606Y-114071400D01*
X57480200Y-109448600D02*
X57226200Y-109702600D01*
X58394400Y-109448600D02*
X57480200Y-109448600D01*
X58394600Y-110921600D02*
X56870600Y-110921600D01*
X57226200Y-110566000D02*
X56870600Y-110921600D01*
X57226200Y-109702600D02*
X57226200Y-110566000D01*
X57378800Y-106451600D02*
X57378600Y-106451400D01*
X58369100Y-107035700D02*
X58369100Y-106629100D01*
X58369100Y-106629100D02*
X58191600Y-106451600D01*
X58953400Y-106451600D02*
X58191600Y-106451600D01*
X58369100Y-107924600D02*
X58369100Y-107035700D01*
X58369100Y-107035700D02*
X58369100Y-106781500D01*
X58191600Y-106451600D02*
X57378800Y-106451600D01*
X55141654Y-109554148D02*
X54656439Y-109554148D01*
X57378600Y-106451400D02*
X57378600Y-107317202D01*
X57378600Y-107317202D02*
X55141654Y-109554148D01*
D21*
X62255400Y-117525800D02*
X62763400Y-118033800D01*
X62255400Y-115290600D02*
X62255400Y-117525800D01*
D19*
X53474763Y-119313765D02*
X53060600Y-118899602D01*
X52773811Y-118102611D02*
X51148211Y-118102611D01*
X53060600Y-118899602D02*
X53060600Y-118389400D01*
X53060600Y-118389400D02*
X52773811Y-118102611D01*
X50165000Y-117119400D02*
X48945800Y-117119400D01*
X51148211Y-118102611D02*
X50165000Y-117119400D01*
D20*
X69590002Y-118597200D02*
X69590002Y-117053400D01*
X68953401Y-119233801D02*
X69590002Y-118597200D01*
X63963401Y-119233801D02*
X68953401Y-119233801D01*
X62763400Y-118033800D02*
X63963401Y-119233801D01*
D19*
X61483435Y-119313765D02*
X62763400Y-118033800D01*
X53474763Y-119313765D02*
X61483435Y-119313765D01*
D21*
X66643391Y-114512609D02*
X68405400Y-112750600D01*
X66643391Y-116084209D02*
X66643391Y-114512609D01*
X65303400Y-117424200D02*
X66643391Y-116084209D01*
X65303400Y-118033800D02*
X65303400Y-117424200D01*
D19*
X63160012Y-114512609D02*
X66643391Y-114512609D01*
X62718803Y-114071400D02*
X63160012Y-114512609D01*
X60731600Y-114071400D02*
X62718803Y-114071400D01*
X60718610Y-110054190D02*
X60718610Y-114058410D01*
X60718610Y-114058410D02*
X60731600Y-114071400D01*
X63661000Y-107111800D02*
X60718610Y-110054190D01*
D21*
X67843400Y-115852600D02*
X68405400Y-115290600D01*
X67843400Y-118033800D02*
X67843400Y-115852600D01*
D19*
X69230401Y-114465599D02*
X68405400Y-115290600D01*
X64939201Y-106408801D02*
X66209803Y-106408801D01*
X63661000Y-105130600D02*
X64939201Y-106408801D01*
X69230401Y-112090599D02*
X67909202Y-110769400D01*
X69230401Y-114465599D02*
X69230401Y-112090599D01*
X67909202Y-108108200D02*
X66209803Y-106408801D01*
X67909202Y-110769400D02*
X67909202Y-108108200D01*
X56718200Y-115934200D02*
X56718200Y-114940999D01*
X59096594Y-114071400D02*
X59156600Y-114071400D01*
X58226995Y-114940999D02*
X59096594Y-114071400D01*
X56718200Y-114940999D02*
X58226995Y-114940999D01*
X61561000Y-107857000D02*
X61561000Y-107111800D01*
X59969400Y-109448600D02*
X61561000Y-107857000D01*
X59944100Y-106747500D02*
X61561000Y-105130600D01*
X59944100Y-107924600D02*
X59944100Y-106747500D01*
X63423800Y-111081085D02*
X63423800Y-110617000D01*
X65652115Y-113309400D02*
X63423800Y-111081085D01*
X66217800Y-113309400D02*
X65652115Y-113309400D01*
X53080236Y-115752601D02*
X53122668Y-115795033D01*
X51689000Y-115102600D02*
X51689000Y-115677600D01*
X51764001Y-115752601D02*
X53080236Y-115752601D01*
X51689000Y-115677600D02*
X51764001Y-115752601D01*
X58877001Y-117361599D02*
X60172600Y-116066000D01*
X58877001Y-117907999D02*
X58877001Y-117361599D01*
X58227000Y-117983000D02*
X58802000Y-117983000D01*
X58802000Y-117983000D02*
X58877001Y-117907999D01*
X56977001Y-117263995D02*
X58849998Y-115390998D01*
X56977001Y-117907999D02*
X56977001Y-117263995D01*
X56327000Y-117983000D02*
X56902000Y-117983000D01*
X56902000Y-117983000D02*
X56977001Y-117907999D01*
X55803800Y-115394402D02*
X55803800Y-114122200D01*
X55442201Y-115756001D02*
X55803800Y-115394402D01*
X51689000Y-117577600D02*
X51764001Y-117652601D01*
X51689000Y-117002600D02*
X51689000Y-117577600D01*
X54695601Y-115756001D02*
X55442201Y-115756001D01*
X51764001Y-117652601D02*
X52799001Y-117652601D01*
X52799001Y-117652601D02*
X54695601Y-115756001D01*
X51678600Y-104790200D02*
X51678600Y-105365200D01*
X51678600Y-105365200D02*
X51903589Y-105590189D01*
X52865931Y-105590189D02*
X52908200Y-105632458D01*
X51903589Y-105590189D02*
X52865931Y-105590189D01*
X52790379Y-105590189D02*
X52832648Y-105632458D01*
X51678600Y-107150202D02*
X51678600Y-106690200D01*
X51970398Y-107442000D02*
X51678600Y-107150202D01*
X52950315Y-107442000D02*
X51970398Y-107442000D01*
X52078598Y-109168798D02*
X52330064Y-109168798D01*
X51678600Y-108193800D02*
X51678600Y-108768800D01*
X51678600Y-108768800D02*
X52078598Y-109168798D01*
X51083393Y-109038591D02*
X50528902Y-109038591D01*
X51678600Y-110093800D02*
X51678600Y-109633798D01*
X51678600Y-109633798D02*
X51083393Y-109038591D01*
X51764001Y-110998199D02*
X53099999Y-110998199D01*
X51689000Y-111648200D02*
X51689000Y-111073200D01*
X53099999Y-110998199D02*
X53314600Y-111212800D01*
X51689000Y-111073200D02*
X51764001Y-110998199D01*
X51984357Y-112677843D02*
X53150002Y-112677843D01*
X51689000Y-113548200D02*
X51689000Y-112973200D01*
X51689000Y-112973200D02*
X51984357Y-112677843D01*
D21*
X66725800Y-105333800D02*
X66725800Y-105506870D01*
X66725800Y-105758058D02*
X68734212Y-107766470D01*
X66725800Y-105333800D02*
X66725800Y-105758058D01*
X68734212Y-107766470D02*
X68734212Y-110228212D01*
X68734212Y-110228212D02*
X69123000Y-110617000D01*
X69265800Y-105333800D02*
X69265800Y-106553000D01*
X69265800Y-106553000D02*
X69672200Y-106959400D01*
D19*
X55183800Y-117333000D02*
X54381400Y-118135400D01*
X56327000Y-117333000D02*
X55183800Y-117333000D01*
X59675000Y-118633000D02*
X60172600Y-118135400D01*
X58227000Y-118633000D02*
X59675000Y-118633000D01*
X52760600Y-114681000D02*
X54432200Y-114681000D01*
X52339000Y-115102600D02*
X52760600Y-114681000D01*
X51039000Y-116621800D02*
X48895000Y-114477800D01*
X51039000Y-117002600D02*
X51039000Y-116621800D01*
X52628600Y-111937800D02*
X52339000Y-111648200D01*
X54838600Y-111937800D02*
X52628600Y-111937800D01*
X49698800Y-111633000D02*
X48895000Y-111633000D01*
X51039000Y-112973200D02*
X49698800Y-111633000D01*
X51039000Y-113548200D02*
X51039000Y-112973200D01*
X49773800Y-105435400D02*
X51028600Y-106690200D01*
X48895000Y-105435400D02*
X49773800Y-105435400D01*
X54396600Y-104790200D02*
X52328600Y-104790200D01*
X55092600Y-105486200D02*
X54396600Y-104790200D01*
X52343800Y-108178600D02*
X52328600Y-108193800D01*
X54432200Y-108178600D02*
X52343800Y-108178600D01*
X48895000Y-108477691D02*
X48895000Y-108229400D01*
X50180901Y-109763592D02*
X48895000Y-108477691D01*
X50784792Y-109763592D02*
X50180901Y-109763592D01*
X51028600Y-110007400D02*
X50784792Y-109763592D01*
X51028600Y-110093800D02*
X51028600Y-110007400D01*
D22*
G36*
X50772839Y-118442831D02*
G01*
X50788684Y-118462138D01*
X50865732Y-118525370D01*
X50953636Y-118572356D01*
X51026818Y-118594555D01*
X51049017Y-118601289D01*
X51058905Y-118602263D01*
X51123357Y-118608611D01*
X51123364Y-118608611D01*
X51148210Y-118611058D01*
X51173056Y-118608611D01*
X52554601Y-118608611D01*
X52554600Y-118874755D01*
X52552153Y-118899602D01*
X52554600Y-118924448D01*
X52554600Y-118924455D01*
X52561922Y-118998794D01*
X52590855Y-119094176D01*
X52637841Y-119182081D01*
X52701073Y-119259129D01*
X52720385Y-119274978D01*
X52952806Y-119507400D01*
X48031000Y-119507400D01*
X48031000Y-118213324D01*
X48049292Y-118223101D01*
X48121111Y-118244887D01*
X48195800Y-118252243D01*
X49695800Y-118252243D01*
X49770489Y-118244887D01*
X49842308Y-118223101D01*
X49908496Y-118187722D01*
X49966511Y-118140111D01*
X50014122Y-118082096D01*
X50049501Y-118015908D01*
X50071287Y-117944089D01*
X50078643Y-117869400D01*
X50078643Y-117748634D01*
X50772839Y-118442831D01*
G37*
X50772839Y-118442831D02*
X50788684Y-118462138D01*
X50865732Y-118525370D01*
X50953636Y-118572356D01*
X51026818Y-118594555D01*
X51049017Y-118601289D01*
X51058905Y-118602263D01*
X51123357Y-118608611D01*
X51123364Y-118608611D01*
X51148210Y-118611058D01*
X51173056Y-118608611D01*
X52554601Y-118608611D01*
X52554600Y-118874755D01*
X52552153Y-118899602D01*
X52554600Y-118924448D01*
X52554600Y-118924455D01*
X52561922Y-118998794D01*
X52590855Y-119094176D01*
X52637841Y-119182081D01*
X52701073Y-119259129D01*
X52720385Y-119274978D01*
X52952806Y-119507400D01*
X48031000Y-119507400D01*
X48031000Y-118213324D01*
X48049292Y-118223101D01*
X48121111Y-118244887D01*
X48195800Y-118252243D01*
X49695800Y-118252243D01*
X49770489Y-118244887D01*
X49842308Y-118223101D01*
X49908496Y-118187722D01*
X49966511Y-118140111D01*
X50014122Y-118082096D01*
X50049501Y-118015908D01*
X50071287Y-117944089D01*
X50078643Y-117869400D01*
X50078643Y-117748634D01*
X50772839Y-118442831D01*
G36*
X57521000Y-117451250D02*
G01*
X57519157Y-117533000D01*
X57526513Y-117607689D01*
X57541775Y-117658000D01*
X57526513Y-117708311D01*
X57519157Y-117783000D01*
X57519157Y-118183000D01*
X57526513Y-118257689D01*
X57541775Y-118308000D01*
X57526513Y-118358311D01*
X57519157Y-118433000D01*
X57519157Y-118807765D01*
X57034274Y-118807765D01*
X57033000Y-118751250D01*
X56937750Y-118656000D01*
X56350000Y-118656000D01*
X56350000Y-118676000D01*
X56304000Y-118676000D01*
X56304000Y-118656000D01*
X55716250Y-118656000D01*
X55621000Y-118751250D01*
X55619726Y-118807765D01*
X55514243Y-118807765D01*
X55514243Y-117839000D01*
X55619157Y-117839000D01*
X55619157Y-118183000D01*
X55626513Y-118257689D01*
X55641775Y-118308000D01*
X55626513Y-118358311D01*
X55619157Y-118433000D01*
X55621000Y-118514750D01*
X55716250Y-118610000D01*
X56304000Y-118610000D01*
X56304000Y-118590000D01*
X56350000Y-118590000D01*
X56350000Y-118610000D01*
X56937750Y-118610000D01*
X57033000Y-118514750D01*
X57033970Y-118471736D01*
X57096575Y-118452745D01*
X57184479Y-118405759D01*
X57261527Y-118342527D01*
X57277376Y-118323215D01*
X57317216Y-118283375D01*
X57336528Y-118267526D01*
X57399760Y-118190478D01*
X57446746Y-118102574D01*
X57475679Y-118007192D01*
X57483001Y-117932853D01*
X57483001Y-117932846D01*
X57485448Y-117908000D01*
X57483001Y-117883154D01*
X57483001Y-117473586D01*
X57600585Y-117356002D01*
X57616248Y-117356002D01*
X57521000Y-117451250D01*
G37*
X57521000Y-117451250D02*
X57519157Y-117533000D01*
X57526513Y-117607689D01*
X57541775Y-117658000D01*
X57526513Y-117708311D01*
X57519157Y-117783000D01*
X57519157Y-118183000D01*
X57526513Y-118257689D01*
X57541775Y-118308000D01*
X57526513Y-118358311D01*
X57519157Y-118433000D01*
X57519157Y-118807765D01*
X57034274Y-118807765D01*
X57033000Y-118751250D01*
X56937750Y-118656000D01*
X56350000Y-118656000D01*
X56350000Y-118676000D01*
X56304000Y-118676000D01*
X56304000Y-118656000D01*
X55716250Y-118656000D01*
X55621000Y-118751250D01*
X55619726Y-118807765D01*
X55514243Y-118807765D01*
X55514243Y-117839000D01*
X55619157Y-117839000D01*
X55619157Y-118183000D01*
X55626513Y-118257689D01*
X55641775Y-118308000D01*
X55626513Y-118358311D01*
X55619157Y-118433000D01*
X55621000Y-118514750D01*
X55716250Y-118610000D01*
X56304000Y-118610000D01*
X56304000Y-118590000D01*
X56350000Y-118590000D01*
X56350000Y-118610000D01*
X56937750Y-118610000D01*
X57033000Y-118514750D01*
X57033970Y-118471736D01*
X57096575Y-118452745D01*
X57184479Y-118405759D01*
X57261527Y-118342527D01*
X57277376Y-118323215D01*
X57317216Y-118283375D01*
X57336528Y-118267526D01*
X57399760Y-118190478D01*
X57446746Y-118102574D01*
X57475679Y-118007192D01*
X57483001Y-117932853D01*
X57483001Y-117932846D01*
X57485448Y-117908000D01*
X57483001Y-117883154D01*
X57483001Y-117473586D01*
X57600585Y-117356002D01*
X57616248Y-117356002D01*
X57521000Y-117451250D01*
G36*
X59391600Y-115989078D02*
G01*
X59391600Y-116131408D01*
X58727965Y-116795044D01*
X58698508Y-116779299D01*
X58626689Y-116757513D01*
X58552000Y-116750157D01*
X58345250Y-116752000D01*
X58250000Y-116847250D01*
X58250000Y-117310000D01*
X58270000Y-117310000D01*
X58270000Y-117356000D01*
X58250000Y-117356000D01*
X58250000Y-117376000D01*
X58204000Y-117376000D01*
X58204000Y-117356000D01*
X58184000Y-117356000D01*
X58184000Y-117310000D01*
X58204000Y-117310000D01*
X58204000Y-116847250D01*
X58156669Y-116799919D01*
X58784590Y-116171998D01*
X58926920Y-116171998D01*
X59077807Y-116141985D01*
X59219940Y-116083111D01*
X59347857Y-115997640D01*
X59400335Y-115945162D01*
X59391600Y-115989078D01*
G37*
X59391600Y-115989078D02*
X59391600Y-116131408D01*
X58727965Y-116795044D01*
X58698508Y-116779299D01*
X58626689Y-116757513D01*
X58552000Y-116750157D01*
X58345250Y-116752000D01*
X58250000Y-116847250D01*
X58250000Y-117310000D01*
X58270000Y-117310000D01*
X58270000Y-117356000D01*
X58250000Y-117356000D01*
X58250000Y-117376000D01*
X58204000Y-117376000D01*
X58204000Y-117356000D01*
X58184000Y-117356000D01*
X58184000Y-117310000D01*
X58204000Y-117310000D01*
X58204000Y-116847250D01*
X58156669Y-116799919D01*
X58784590Y-116171998D01*
X58926920Y-116171998D01*
X59077807Y-116141985D01*
X59219940Y-116083111D01*
X59347857Y-115997640D01*
X59400335Y-115945162D01*
X59391600Y-115989078D01*
G36*
X53299357Y-108928600D02*
G01*
X53306713Y-109003289D01*
X53328499Y-109075108D01*
X53363878Y-109141296D01*
X53411489Y-109199311D01*
X53469504Y-109246922D01*
X53535692Y-109282301D01*
X53607511Y-109304087D01*
X53682200Y-109311443D01*
X53911622Y-109311443D01*
X53905452Y-109326339D01*
X53875439Y-109477226D01*
X53875439Y-109631070D01*
X53905452Y-109781957D01*
X53964326Y-109924090D01*
X54049797Y-110052007D01*
X54158580Y-110160790D01*
X54286497Y-110246261D01*
X54428630Y-110305135D01*
X54579517Y-110335148D01*
X54733361Y-110335148D01*
X54884248Y-110305135D01*
X55026381Y-110246261D01*
X55154298Y-110160790D01*
X55263081Y-110052007D01*
X55268047Y-110044575D01*
X55336229Y-110023893D01*
X55409804Y-109984566D01*
X55467287Y-110123342D01*
X55552758Y-110251259D01*
X55661541Y-110360042D01*
X55789458Y-110445513D01*
X55931591Y-110504387D01*
X56042241Y-110526396D01*
X56024316Y-110585485D01*
X56012757Y-110702850D01*
X56012757Y-111140350D01*
X56024316Y-111257715D01*
X56058551Y-111370570D01*
X56114144Y-111474577D01*
X56188960Y-111565740D01*
X56280123Y-111640556D01*
X56354490Y-111680306D01*
X56320911Y-111683613D01*
X56249092Y-111705399D01*
X56182904Y-111740778D01*
X56124889Y-111788389D01*
X56077278Y-111846404D01*
X56041899Y-111912592D01*
X56020113Y-111984411D01*
X56012757Y-112059100D01*
X56014600Y-112378350D01*
X56109850Y-112473600D01*
X56847600Y-112473600D01*
X56847600Y-112453600D01*
X56893600Y-112453600D01*
X56893600Y-112473600D01*
X57631350Y-112473600D01*
X57632600Y-112472350D01*
X57633850Y-112473600D01*
X58371600Y-112473600D01*
X58371600Y-112453600D01*
X58417600Y-112453600D01*
X58417600Y-112473600D01*
X58437600Y-112473600D01*
X58437600Y-112519600D01*
X58417600Y-112519600D01*
X58417600Y-112539600D01*
X58371600Y-112539600D01*
X58371600Y-112519600D01*
X57633850Y-112519600D01*
X57632600Y-112520850D01*
X57631350Y-112519600D01*
X56893600Y-112519600D01*
X56893600Y-112539600D01*
X56847600Y-112539600D01*
X56847600Y-112519600D01*
X56109850Y-112519600D01*
X56014600Y-112614850D01*
X56012757Y-112934100D01*
X56020113Y-113008789D01*
X56041899Y-113080608D01*
X56077278Y-113146796D01*
X56124889Y-113204811D01*
X56182904Y-113252422D01*
X56216732Y-113270504D01*
X56174878Y-113321504D01*
X56139499Y-113387692D01*
X56117713Y-113459511D01*
X56110357Y-113534200D01*
X56112200Y-113715950D01*
X56138767Y-113742517D01*
X56086279Y-113699441D01*
X55998375Y-113652455D01*
X55902993Y-113623522D01*
X55803800Y-113613752D01*
X55704608Y-113623522D01*
X55609226Y-113652455D01*
X55521322Y-113699441D01*
X55499643Y-113717233D01*
X55452911Y-113660289D01*
X55394896Y-113612678D01*
X55328708Y-113577299D01*
X55256889Y-113555513D01*
X55182200Y-113548157D01*
X53682200Y-113548157D01*
X53607511Y-113555513D01*
X53535692Y-113577299D01*
X53469504Y-113612678D01*
X53411489Y-113660289D01*
X53363878Y-113718304D01*
X53328499Y-113784492D01*
X53306713Y-113856311D01*
X53299357Y-113931000D01*
X53299357Y-114175000D01*
X52785445Y-114175000D01*
X52773287Y-114173803D01*
X52809711Y-114143911D01*
X52857322Y-114085896D01*
X52892701Y-114019708D01*
X52914487Y-113947889D01*
X52921843Y-113873200D01*
X52920000Y-113666450D01*
X52824750Y-113571200D01*
X52362000Y-113571200D01*
X52362000Y-114158950D01*
X52457250Y-114254200D01*
X52484531Y-114254815D01*
X52478121Y-114258241D01*
X52401073Y-114321473D01*
X52385228Y-114340780D01*
X52331251Y-114394757D01*
X52139000Y-114394757D01*
X52064311Y-114402113D01*
X52014000Y-114417375D01*
X51963689Y-114402113D01*
X51889000Y-114394757D01*
X51489000Y-114394757D01*
X51414311Y-114402113D01*
X51364000Y-114417375D01*
X51313689Y-114402113D01*
X51239000Y-114394757D01*
X51157250Y-114396600D01*
X51062000Y-114491850D01*
X51062000Y-115079600D01*
X51082000Y-115079600D01*
X51082000Y-115125600D01*
X51062000Y-115125600D01*
X51062000Y-115713350D01*
X51157250Y-115808600D01*
X51200265Y-115809570D01*
X51219255Y-115872174D01*
X51235652Y-115902850D01*
X51266242Y-115960079D01*
X51329474Y-116037127D01*
X51348781Y-116052972D01*
X51388625Y-116092816D01*
X51404474Y-116112128D01*
X51481522Y-116175360D01*
X51569426Y-116222346D01*
X51664808Y-116251279D01*
X51739147Y-116258601D01*
X51739154Y-116258601D01*
X51764000Y-116261048D01*
X51788846Y-116258601D01*
X52493114Y-116258601D01*
X52516026Y-116292892D01*
X52518356Y-116295222D01*
X52457250Y-116296600D01*
X52362000Y-116391850D01*
X52362000Y-116979600D01*
X52382000Y-116979600D01*
X52382000Y-117025600D01*
X52362000Y-117025600D01*
X52362000Y-117045600D01*
X52316000Y-117045600D01*
X52316000Y-117025600D01*
X52296000Y-117025600D01*
X52296000Y-116979600D01*
X52316000Y-116979600D01*
X52316000Y-116391850D01*
X52220750Y-116296600D01*
X52139000Y-116294757D01*
X52064311Y-116302113D01*
X52014000Y-116317375D01*
X51963689Y-116302113D01*
X51889000Y-116294757D01*
X51489000Y-116294757D01*
X51429958Y-116300572D01*
X51398527Y-116262273D01*
X51379220Y-116246428D01*
X50931071Y-115798279D01*
X51016000Y-115713350D01*
X51016000Y-115125600D01*
X50553250Y-115125600D01*
X50458000Y-115220850D01*
X50457078Y-115324286D01*
X50027843Y-114895052D01*
X50027843Y-114777600D01*
X50456157Y-114777600D01*
X50458000Y-114984350D01*
X50553250Y-115079600D01*
X51016000Y-115079600D01*
X51016000Y-114491850D01*
X50920750Y-114396600D01*
X50839000Y-114394757D01*
X50764311Y-114402113D01*
X50692492Y-114423899D01*
X50626304Y-114459278D01*
X50568289Y-114506889D01*
X50520678Y-114564904D01*
X50485299Y-114631092D01*
X50463513Y-114702911D01*
X50456157Y-114777600D01*
X50027843Y-114777600D01*
X50027843Y-113727800D01*
X50026458Y-113713735D01*
X50030024Y-113713026D01*
X50172157Y-113654152D01*
X50300074Y-113568681D01*
X50408857Y-113459898D01*
X50456157Y-113389108D01*
X50456157Y-113873200D01*
X50463513Y-113947889D01*
X50485299Y-114019708D01*
X50520678Y-114085896D01*
X50568289Y-114143911D01*
X50626304Y-114191522D01*
X50692492Y-114226901D01*
X50764311Y-114248687D01*
X50839000Y-114256043D01*
X51239000Y-114256043D01*
X51313689Y-114248687D01*
X51364000Y-114233425D01*
X51414311Y-114248687D01*
X51489000Y-114256043D01*
X51889000Y-114256043D01*
X51963689Y-114248687D01*
X52014000Y-114233425D01*
X52064311Y-114248687D01*
X52139000Y-114256043D01*
X52220750Y-114254200D01*
X52316000Y-114158950D01*
X52316000Y-113571200D01*
X52296000Y-113571200D01*
X52296000Y-113525200D01*
X52316000Y-113525200D01*
X52316000Y-113505200D01*
X52362000Y-113505200D01*
X52362000Y-113525200D01*
X52824750Y-113525200D01*
X52920000Y-113429950D01*
X52920018Y-113427929D01*
X52922193Y-113428830D01*
X53073080Y-113458843D01*
X53226924Y-113458843D01*
X53377811Y-113428830D01*
X53519944Y-113369956D01*
X53647861Y-113284485D01*
X53756644Y-113175702D01*
X53842115Y-113047785D01*
X53863566Y-112995997D01*
X53875904Y-113006122D01*
X53942092Y-113041501D01*
X54013911Y-113063287D01*
X54088600Y-113070643D01*
X55588600Y-113070643D01*
X55663289Y-113063287D01*
X55735108Y-113041501D01*
X55801296Y-113006122D01*
X55859311Y-112958511D01*
X55906922Y-112900496D01*
X55942301Y-112834308D01*
X55964087Y-112762489D01*
X55971443Y-112687800D01*
X55971443Y-111187800D01*
X55964087Y-111113111D01*
X55942301Y-111041292D01*
X55906922Y-110975104D01*
X55859311Y-110917089D01*
X55801296Y-110869478D01*
X55735108Y-110834099D01*
X55663289Y-110812313D01*
X55588600Y-110804957D01*
X54088600Y-110804957D01*
X54013911Y-110812313D01*
X53990956Y-110819276D01*
X53921242Y-110714941D01*
X53812459Y-110606158D01*
X53684542Y-110520687D01*
X53542409Y-110461813D01*
X53391522Y-110431800D01*
X53237678Y-110431800D01*
X53086791Y-110461813D01*
X53013433Y-110492199D01*
X52904214Y-110492199D01*
X52911443Y-110418800D01*
X52909600Y-110212050D01*
X52814350Y-110116800D01*
X52351600Y-110116800D01*
X52351600Y-110136800D01*
X52305600Y-110136800D01*
X52305600Y-110116800D01*
X52285600Y-110116800D01*
X52285600Y-110070800D01*
X52305600Y-110070800D01*
X52305600Y-110050800D01*
X52351600Y-110050800D01*
X52351600Y-110070800D01*
X52814350Y-110070800D01*
X52909600Y-109975550D01*
X52911443Y-109768800D01*
X52904550Y-109698813D01*
X52936706Y-109666657D01*
X53022177Y-109538740D01*
X53081051Y-109396607D01*
X53111064Y-109245720D01*
X53111064Y-109091876D01*
X53081051Y-108940989D01*
X53022177Y-108798856D01*
X52945834Y-108684600D01*
X53299357Y-108684600D01*
X53299357Y-108928600D01*
G37*
X53299357Y-108928600D02*
X53306713Y-109003289D01*
X53328499Y-109075108D01*
X53363878Y-109141296D01*
X53411489Y-109199311D01*
X53469504Y-109246922D01*
X53535692Y-109282301D01*
X53607511Y-109304087D01*
X53682200Y-109311443D01*
X53911622Y-109311443D01*
X53905452Y-109326339D01*
X53875439Y-109477226D01*
X53875439Y-109631070D01*
X53905452Y-109781957D01*
X53964326Y-109924090D01*
X54049797Y-110052007D01*
X54158580Y-110160790D01*
X54286497Y-110246261D01*
X54428630Y-110305135D01*
X54579517Y-110335148D01*
X54733361Y-110335148D01*
X54884248Y-110305135D01*
X55026381Y-110246261D01*
X55154298Y-110160790D01*
X55263081Y-110052007D01*
X55268047Y-110044575D01*
X55336229Y-110023893D01*
X55409804Y-109984566D01*
X55467287Y-110123342D01*
X55552758Y-110251259D01*
X55661541Y-110360042D01*
X55789458Y-110445513D01*
X55931591Y-110504387D01*
X56042241Y-110526396D01*
X56024316Y-110585485D01*
X56012757Y-110702850D01*
X56012757Y-111140350D01*
X56024316Y-111257715D01*
X56058551Y-111370570D01*
X56114144Y-111474577D01*
X56188960Y-111565740D01*
X56280123Y-111640556D01*
X56354490Y-111680306D01*
X56320911Y-111683613D01*
X56249092Y-111705399D01*
X56182904Y-111740778D01*
X56124889Y-111788389D01*
X56077278Y-111846404D01*
X56041899Y-111912592D01*
X56020113Y-111984411D01*
X56012757Y-112059100D01*
X56014600Y-112378350D01*
X56109850Y-112473600D01*
X56847600Y-112473600D01*
X56847600Y-112453600D01*
X56893600Y-112453600D01*
X56893600Y-112473600D01*
X57631350Y-112473600D01*
X57632600Y-112472350D01*
X57633850Y-112473600D01*
X58371600Y-112473600D01*
X58371600Y-112453600D01*
X58417600Y-112453600D01*
X58417600Y-112473600D01*
X58437600Y-112473600D01*
X58437600Y-112519600D01*
X58417600Y-112519600D01*
X58417600Y-112539600D01*
X58371600Y-112539600D01*
X58371600Y-112519600D01*
X57633850Y-112519600D01*
X57632600Y-112520850D01*
X57631350Y-112519600D01*
X56893600Y-112519600D01*
X56893600Y-112539600D01*
X56847600Y-112539600D01*
X56847600Y-112519600D01*
X56109850Y-112519600D01*
X56014600Y-112614850D01*
X56012757Y-112934100D01*
X56020113Y-113008789D01*
X56041899Y-113080608D01*
X56077278Y-113146796D01*
X56124889Y-113204811D01*
X56182904Y-113252422D01*
X56216732Y-113270504D01*
X56174878Y-113321504D01*
X56139499Y-113387692D01*
X56117713Y-113459511D01*
X56110357Y-113534200D01*
X56112200Y-113715950D01*
X56138767Y-113742517D01*
X56086279Y-113699441D01*
X55998375Y-113652455D01*
X55902993Y-113623522D01*
X55803800Y-113613752D01*
X55704608Y-113623522D01*
X55609226Y-113652455D01*
X55521322Y-113699441D01*
X55499643Y-113717233D01*
X55452911Y-113660289D01*
X55394896Y-113612678D01*
X55328708Y-113577299D01*
X55256889Y-113555513D01*
X55182200Y-113548157D01*
X53682200Y-113548157D01*
X53607511Y-113555513D01*
X53535692Y-113577299D01*
X53469504Y-113612678D01*
X53411489Y-113660289D01*
X53363878Y-113718304D01*
X53328499Y-113784492D01*
X53306713Y-113856311D01*
X53299357Y-113931000D01*
X53299357Y-114175000D01*
X52785445Y-114175000D01*
X52773287Y-114173803D01*
X52809711Y-114143911D01*
X52857322Y-114085896D01*
X52892701Y-114019708D01*
X52914487Y-113947889D01*
X52921843Y-113873200D01*
X52920000Y-113666450D01*
X52824750Y-113571200D01*
X52362000Y-113571200D01*
X52362000Y-114158950D01*
X52457250Y-114254200D01*
X52484531Y-114254815D01*
X52478121Y-114258241D01*
X52401073Y-114321473D01*
X52385228Y-114340780D01*
X52331251Y-114394757D01*
X52139000Y-114394757D01*
X52064311Y-114402113D01*
X52014000Y-114417375D01*
X51963689Y-114402113D01*
X51889000Y-114394757D01*
X51489000Y-114394757D01*
X51414311Y-114402113D01*
X51364000Y-114417375D01*
X51313689Y-114402113D01*
X51239000Y-114394757D01*
X51157250Y-114396600D01*
X51062000Y-114491850D01*
X51062000Y-115079600D01*
X51082000Y-115079600D01*
X51082000Y-115125600D01*
X51062000Y-115125600D01*
X51062000Y-115713350D01*
X51157250Y-115808600D01*
X51200265Y-115809570D01*
X51219255Y-115872174D01*
X51235652Y-115902850D01*
X51266242Y-115960079D01*
X51329474Y-116037127D01*
X51348781Y-116052972D01*
X51388625Y-116092816D01*
X51404474Y-116112128D01*
X51481522Y-116175360D01*
X51569426Y-116222346D01*
X51664808Y-116251279D01*
X51739147Y-116258601D01*
X51739154Y-116258601D01*
X51764000Y-116261048D01*
X51788846Y-116258601D01*
X52493114Y-116258601D01*
X52516026Y-116292892D01*
X52518356Y-116295222D01*
X52457250Y-116296600D01*
X52362000Y-116391850D01*
X52362000Y-116979600D01*
X52382000Y-116979600D01*
X52382000Y-117025600D01*
X52362000Y-117025600D01*
X52362000Y-117045600D01*
X52316000Y-117045600D01*
X52316000Y-117025600D01*
X52296000Y-117025600D01*
X52296000Y-116979600D01*
X52316000Y-116979600D01*
X52316000Y-116391850D01*
X52220750Y-116296600D01*
X52139000Y-116294757D01*
X52064311Y-116302113D01*
X52014000Y-116317375D01*
X51963689Y-116302113D01*
X51889000Y-116294757D01*
X51489000Y-116294757D01*
X51429958Y-116300572D01*
X51398527Y-116262273D01*
X51379220Y-116246428D01*
X50931071Y-115798279D01*
X51016000Y-115713350D01*
X51016000Y-115125600D01*
X50553250Y-115125600D01*
X50458000Y-115220850D01*
X50457078Y-115324286D01*
X50027843Y-114895052D01*
X50027843Y-114777600D01*
X50456157Y-114777600D01*
X50458000Y-114984350D01*
X50553250Y-115079600D01*
X51016000Y-115079600D01*
X51016000Y-114491850D01*
X50920750Y-114396600D01*
X50839000Y-114394757D01*
X50764311Y-114402113D01*
X50692492Y-114423899D01*
X50626304Y-114459278D01*
X50568289Y-114506889D01*
X50520678Y-114564904D01*
X50485299Y-114631092D01*
X50463513Y-114702911D01*
X50456157Y-114777600D01*
X50027843Y-114777600D01*
X50027843Y-113727800D01*
X50026458Y-113713735D01*
X50030024Y-113713026D01*
X50172157Y-113654152D01*
X50300074Y-113568681D01*
X50408857Y-113459898D01*
X50456157Y-113389108D01*
X50456157Y-113873200D01*
X50463513Y-113947889D01*
X50485299Y-114019708D01*
X50520678Y-114085896D01*
X50568289Y-114143911D01*
X50626304Y-114191522D01*
X50692492Y-114226901D01*
X50764311Y-114248687D01*
X50839000Y-114256043D01*
X51239000Y-114256043D01*
X51313689Y-114248687D01*
X51364000Y-114233425D01*
X51414311Y-114248687D01*
X51489000Y-114256043D01*
X51889000Y-114256043D01*
X51963689Y-114248687D01*
X52014000Y-114233425D01*
X52064311Y-114248687D01*
X52139000Y-114256043D01*
X52220750Y-114254200D01*
X52316000Y-114158950D01*
X52316000Y-113571200D01*
X52296000Y-113571200D01*
X52296000Y-113525200D01*
X52316000Y-113525200D01*
X52316000Y-113505200D01*
X52362000Y-113505200D01*
X52362000Y-113525200D01*
X52824750Y-113525200D01*
X52920000Y-113429950D01*
X52920018Y-113427929D01*
X52922193Y-113428830D01*
X53073080Y-113458843D01*
X53226924Y-113458843D01*
X53377811Y-113428830D01*
X53519944Y-113369956D01*
X53647861Y-113284485D01*
X53756644Y-113175702D01*
X53842115Y-113047785D01*
X53863566Y-112995997D01*
X53875904Y-113006122D01*
X53942092Y-113041501D01*
X54013911Y-113063287D01*
X54088600Y-113070643D01*
X55588600Y-113070643D01*
X55663289Y-113063287D01*
X55735108Y-113041501D01*
X55801296Y-113006122D01*
X55859311Y-112958511D01*
X55906922Y-112900496D01*
X55942301Y-112834308D01*
X55964087Y-112762489D01*
X55971443Y-112687800D01*
X55971443Y-111187800D01*
X55964087Y-111113111D01*
X55942301Y-111041292D01*
X55906922Y-110975104D01*
X55859311Y-110917089D01*
X55801296Y-110869478D01*
X55735108Y-110834099D01*
X55663289Y-110812313D01*
X55588600Y-110804957D01*
X54088600Y-110804957D01*
X54013911Y-110812313D01*
X53990956Y-110819276D01*
X53921242Y-110714941D01*
X53812459Y-110606158D01*
X53684542Y-110520687D01*
X53542409Y-110461813D01*
X53391522Y-110431800D01*
X53237678Y-110431800D01*
X53086791Y-110461813D01*
X53013433Y-110492199D01*
X52904214Y-110492199D01*
X52911443Y-110418800D01*
X52909600Y-110212050D01*
X52814350Y-110116800D01*
X52351600Y-110116800D01*
X52351600Y-110136800D01*
X52305600Y-110136800D01*
X52305600Y-110116800D01*
X52285600Y-110116800D01*
X52285600Y-110070800D01*
X52305600Y-110070800D01*
X52305600Y-110050800D01*
X52351600Y-110050800D01*
X52351600Y-110070800D01*
X52814350Y-110070800D01*
X52909600Y-109975550D01*
X52911443Y-109768800D01*
X52904550Y-109698813D01*
X52936706Y-109666657D01*
X53022177Y-109538740D01*
X53081051Y-109396607D01*
X53111064Y-109245720D01*
X53111064Y-109091876D01*
X53081051Y-108940989D01*
X53022177Y-108798856D01*
X52945834Y-108684600D01*
X53299357Y-108684600D01*
X53299357Y-108928600D01*
G36*
X56522600Y-104758150D02*
G01*
X56617850Y-104853400D01*
X57355600Y-104853400D01*
X57355600Y-104833400D01*
X57401600Y-104833400D01*
X57401600Y-104853400D01*
X58139350Y-104853400D01*
X58165900Y-104826850D01*
X58192650Y-104853600D01*
X58930400Y-104853600D01*
X58930400Y-104833600D01*
X58976400Y-104833600D01*
X58976400Y-104853600D01*
X59714150Y-104853600D01*
X59809400Y-104758350D01*
X59811066Y-104469800D01*
X65612238Y-104469800D01*
X65600313Y-104509111D01*
X65592957Y-104583800D01*
X65592957Y-105902801D01*
X65148793Y-105902801D01*
X64343843Y-105097852D01*
X64343843Y-104905600D01*
X64336487Y-104830911D01*
X64314701Y-104759092D01*
X64279322Y-104692904D01*
X64231711Y-104634889D01*
X64173696Y-104587278D01*
X64107508Y-104551899D01*
X64035689Y-104530113D01*
X63961000Y-104522757D01*
X63361000Y-104522757D01*
X63286311Y-104530113D01*
X63214492Y-104551899D01*
X63148304Y-104587278D01*
X63090289Y-104634889D01*
X63042678Y-104692904D01*
X63007299Y-104759092D01*
X62985513Y-104830911D01*
X62978157Y-104905600D01*
X62978157Y-105355600D01*
X62985513Y-105430289D01*
X63007299Y-105502108D01*
X63042678Y-105568296D01*
X63090289Y-105626311D01*
X63148304Y-105673922D01*
X63214492Y-105709301D01*
X63286311Y-105731087D01*
X63361000Y-105738443D01*
X63553252Y-105738443D01*
X64563829Y-106749021D01*
X64579674Y-106768328D01*
X64656722Y-106831560D01*
X64724380Y-106867724D01*
X64744626Y-106878546D01*
X64840007Y-106907479D01*
X64849895Y-106908453D01*
X64914347Y-106914801D01*
X64914354Y-106914801D01*
X64939200Y-106917248D01*
X64964046Y-106914801D01*
X66000212Y-106914801D01*
X67035367Y-107949956D01*
X66366250Y-107951000D01*
X66271000Y-108046250D01*
X66271000Y-108378167D01*
X66253588Y-108410249D01*
X66248368Y-108427071D01*
X66245824Y-108418490D01*
X66225000Y-108378926D01*
X66225000Y-108046250D01*
X66129750Y-107951000D01*
X64948000Y-107949157D01*
X64873311Y-107956513D01*
X64801492Y-107978299D01*
X64735304Y-108013678D01*
X64677289Y-108061289D01*
X64629678Y-108119304D01*
X64594299Y-108185492D01*
X64572513Y-108257311D01*
X64565157Y-108332000D01*
X64567000Y-109863750D01*
X64662250Y-109959000D01*
X64900592Y-109959000D01*
X64898647Y-109977540D01*
X64901175Y-110005000D01*
X64662250Y-110005000D01*
X64567000Y-110100250D01*
X64565307Y-111507001D01*
X64196985Y-111138679D01*
X64235849Y-111065970D01*
X64270084Y-110953115D01*
X64281643Y-110835750D01*
X64281643Y-110398250D01*
X64270084Y-110280885D01*
X64235849Y-110168030D01*
X64180256Y-110064023D01*
X64105440Y-109972860D01*
X64014277Y-109898044D01*
X63939910Y-109858294D01*
X63973489Y-109854987D01*
X64045308Y-109833201D01*
X64111496Y-109797822D01*
X64169511Y-109750211D01*
X64217122Y-109692196D01*
X64252501Y-109626008D01*
X64274287Y-109554189D01*
X64281643Y-109479500D01*
X64279800Y-109160250D01*
X64184550Y-109065000D01*
X63446800Y-109065000D01*
X63446800Y-109085000D01*
X63400800Y-109085000D01*
X63400800Y-109065000D01*
X62663050Y-109065000D01*
X62567800Y-109160250D01*
X62565957Y-109479500D01*
X62573313Y-109554189D01*
X62595099Y-109626008D01*
X62630478Y-109692196D01*
X62678089Y-109750211D01*
X62736104Y-109797822D01*
X62802292Y-109833201D01*
X62874111Y-109854987D01*
X62907690Y-109858294D01*
X62833323Y-109898044D01*
X62742160Y-109972860D01*
X62667344Y-110064023D01*
X62611751Y-110168030D01*
X62577516Y-110280885D01*
X62565957Y-110398250D01*
X62565957Y-110835750D01*
X62577516Y-110953115D01*
X62611751Y-111065970D01*
X62667344Y-111169977D01*
X62742160Y-111261140D01*
X62833323Y-111335956D01*
X62937330Y-111391549D01*
X63050185Y-111425784D01*
X63052273Y-111425990D01*
X63064273Y-111440612D01*
X63083585Y-111456461D01*
X65276743Y-113649620D01*
X65292588Y-113668927D01*
X65369636Y-113732159D01*
X65457540Y-113779145D01*
X65530722Y-113801344D01*
X65552921Y-113808078D01*
X65562809Y-113809052D01*
X65618429Y-113814530D01*
X65719941Y-113916042D01*
X65847858Y-114001513D01*
X65860161Y-114006609D01*
X63369604Y-114006609D01*
X63094179Y-113731185D01*
X63078330Y-113711873D01*
X63001282Y-113648641D01*
X62913378Y-113601655D01*
X62817996Y-113572722D01*
X62743657Y-113565400D01*
X62743649Y-113565400D01*
X62718803Y-113562953D01*
X62693957Y-113565400D01*
X61495710Y-113565400D01*
X61450556Y-113480923D01*
X61375740Y-113389760D01*
X61284577Y-113314944D01*
X61224610Y-113282891D01*
X61224610Y-113150600D01*
X61372557Y-113150600D01*
X61379913Y-113225289D01*
X61401699Y-113297108D01*
X61437078Y-113363296D01*
X61484689Y-113421311D01*
X61542704Y-113468922D01*
X61608892Y-113504301D01*
X61680711Y-113526087D01*
X61755400Y-113533443D01*
X62137150Y-113531600D01*
X62232400Y-113436350D01*
X62232400Y-112773600D01*
X62278400Y-112773600D01*
X62278400Y-113436350D01*
X62373650Y-113531600D01*
X62755400Y-113533443D01*
X62830089Y-113526087D01*
X62901908Y-113504301D01*
X62968096Y-113468922D01*
X63026111Y-113421311D01*
X63073722Y-113363296D01*
X63109101Y-113297108D01*
X63130887Y-113225289D01*
X63138243Y-113150600D01*
X63136400Y-112868850D01*
X63041150Y-112773600D01*
X62278400Y-112773600D01*
X62232400Y-112773600D01*
X61469650Y-112773600D01*
X61374400Y-112868850D01*
X61372557Y-113150600D01*
X61224610Y-113150600D01*
X61224610Y-112350600D01*
X61372557Y-112350600D01*
X61374400Y-112632350D01*
X61469650Y-112727600D01*
X62232400Y-112727600D01*
X62232400Y-112064850D01*
X62278400Y-112064850D01*
X62278400Y-112727600D01*
X63041150Y-112727600D01*
X63136400Y-112632350D01*
X63138243Y-112350600D01*
X63130887Y-112275911D01*
X63109101Y-112204092D01*
X63073722Y-112137904D01*
X63026111Y-112079889D01*
X62968096Y-112032278D01*
X62901908Y-111996899D01*
X62830089Y-111975113D01*
X62755400Y-111967757D01*
X62373650Y-111969600D01*
X62278400Y-112064850D01*
X62232400Y-112064850D01*
X62137150Y-111969600D01*
X61755400Y-111967757D01*
X61680711Y-111975113D01*
X61608892Y-111996899D01*
X61542704Y-112032278D01*
X61484689Y-112079889D01*
X61437078Y-112137904D01*
X61401699Y-112204092D01*
X61379913Y-112275911D01*
X61372557Y-112350600D01*
X61224610Y-112350600D01*
X61224610Y-110263781D01*
X62567782Y-108920610D01*
X62567800Y-108923750D01*
X62663050Y-109019000D01*
X63400800Y-109019000D01*
X63400800Y-108318750D01*
X63446800Y-108318750D01*
X63446800Y-109019000D01*
X64184550Y-109019000D01*
X64279800Y-108923750D01*
X64281643Y-108604500D01*
X64274287Y-108529811D01*
X64252501Y-108457992D01*
X64217122Y-108391804D01*
X64169511Y-108333789D01*
X64111496Y-108286178D01*
X64045308Y-108250799D01*
X63973489Y-108229013D01*
X63898800Y-108221657D01*
X63542050Y-108223500D01*
X63446800Y-108318750D01*
X63400800Y-108318750D01*
X63305550Y-108223500D01*
X63265101Y-108223291D01*
X63768749Y-107719643D01*
X63961000Y-107719643D01*
X64035689Y-107712287D01*
X64107508Y-107690501D01*
X64173696Y-107655122D01*
X64231711Y-107607511D01*
X64279322Y-107549496D01*
X64314701Y-107483308D01*
X64336487Y-107411489D01*
X64343843Y-107336800D01*
X64343843Y-106886800D01*
X64336487Y-106812111D01*
X64314701Y-106740292D01*
X64279322Y-106674104D01*
X64231711Y-106616089D01*
X64173696Y-106568478D01*
X64107508Y-106533099D01*
X64035689Y-106511313D01*
X63961000Y-106503957D01*
X63361000Y-106503957D01*
X63286311Y-106511313D01*
X63214492Y-106533099D01*
X63148304Y-106568478D01*
X63090289Y-106616089D01*
X63042678Y-106674104D01*
X63007299Y-106740292D01*
X62985513Y-106812111D01*
X62978157Y-106886800D01*
X62978157Y-107079051D01*
X62041679Y-108015529D01*
X62059678Y-107956193D01*
X62060190Y-107951000D01*
X62061354Y-107939175D01*
X62067000Y-107881854D01*
X62067000Y-107881847D01*
X62069447Y-107857001D01*
X62067000Y-107832155D01*
X62067000Y-107658701D01*
X62073696Y-107655122D01*
X62131711Y-107607511D01*
X62179322Y-107549496D01*
X62214701Y-107483308D01*
X62236487Y-107411489D01*
X62243843Y-107336800D01*
X62243843Y-106886800D01*
X62236487Y-106812111D01*
X62214701Y-106740292D01*
X62179322Y-106674104D01*
X62131711Y-106616089D01*
X62073696Y-106568478D01*
X62007508Y-106533099D01*
X61935689Y-106511313D01*
X61861000Y-106503957D01*
X61261000Y-106503957D01*
X61186311Y-106511313D01*
X61114492Y-106533099D01*
X61048304Y-106568478D01*
X60990289Y-106616089D01*
X60942678Y-106674104D01*
X60907299Y-106740292D01*
X60885513Y-106812111D01*
X60878157Y-106886800D01*
X60878157Y-107336800D01*
X60885513Y-107411489D01*
X60907299Y-107483308D01*
X60942678Y-107549496D01*
X60990289Y-107607511D01*
X61047745Y-107654663D01*
X60764443Y-107937965D01*
X60764443Y-107668350D01*
X60752884Y-107550985D01*
X60718649Y-107438130D01*
X60663056Y-107334123D01*
X60588240Y-107242960D01*
X60497077Y-107168144D01*
X60450100Y-107143034D01*
X60450100Y-106957091D01*
X61668749Y-105738443D01*
X61861000Y-105738443D01*
X61935689Y-105731087D01*
X62007508Y-105709301D01*
X62073696Y-105673922D01*
X62131711Y-105626311D01*
X62179322Y-105568296D01*
X62214701Y-105502108D01*
X62236487Y-105430289D01*
X62243843Y-105355600D01*
X62243843Y-104905600D01*
X62236487Y-104830911D01*
X62214701Y-104759092D01*
X62179322Y-104692904D01*
X62131711Y-104634889D01*
X62073696Y-104587278D01*
X62007508Y-104551899D01*
X61935689Y-104530113D01*
X61861000Y-104522757D01*
X61261000Y-104522757D01*
X61186311Y-104530113D01*
X61114492Y-104551899D01*
X61048304Y-104587278D01*
X60990289Y-104634889D01*
X60942678Y-104692904D01*
X60907299Y-104759092D01*
X60885513Y-104830911D01*
X60878157Y-104905600D01*
X60878157Y-105097851D01*
X59805139Y-106170870D01*
X59799684Y-106115485D01*
X59765449Y-106002630D01*
X59709856Y-105898623D01*
X59635040Y-105807460D01*
X59543877Y-105732644D01*
X59469510Y-105692894D01*
X59503089Y-105689587D01*
X59574908Y-105667801D01*
X59641096Y-105632422D01*
X59699111Y-105584811D01*
X59746722Y-105526796D01*
X59782101Y-105460608D01*
X59803887Y-105388789D01*
X59811243Y-105314100D01*
X59809400Y-104994850D01*
X59714150Y-104899600D01*
X58976400Y-104899600D01*
X58976400Y-104919600D01*
X58930400Y-104919600D01*
X58930400Y-104899600D01*
X58192650Y-104899600D01*
X58166100Y-104926150D01*
X58139350Y-104899400D01*
X57401600Y-104899400D01*
X57401600Y-104919400D01*
X57355600Y-104919400D01*
X57355600Y-104899400D01*
X56617850Y-104899400D01*
X56522600Y-104994650D01*
X56520757Y-105313900D01*
X56528113Y-105388589D01*
X56549899Y-105460408D01*
X56585278Y-105526596D01*
X56632889Y-105584611D01*
X56690904Y-105632222D01*
X56757092Y-105667601D01*
X56828911Y-105689387D01*
X56862490Y-105692694D01*
X56788123Y-105732444D01*
X56696960Y-105807260D01*
X56622144Y-105898423D01*
X56566551Y-106002430D01*
X56532316Y-106115285D01*
X56520757Y-106232650D01*
X56520757Y-106670150D01*
X56532316Y-106787515D01*
X56566551Y-106900370D01*
X56622144Y-107004377D01*
X56696960Y-107095540D01*
X56788123Y-107170356D01*
X56802285Y-107177926D01*
X55565043Y-108415168D01*
X55565043Y-107428600D01*
X55557687Y-107353911D01*
X55535901Y-107282092D01*
X55500522Y-107215904D01*
X55452911Y-107157889D01*
X55394896Y-107110278D01*
X55328708Y-107074899D01*
X55256889Y-107053113D01*
X55182200Y-107045757D01*
X53682200Y-107045757D01*
X53628395Y-107051056D01*
X53556957Y-106944141D01*
X53448174Y-106835358D01*
X53320257Y-106749887D01*
X53178124Y-106691013D01*
X53027237Y-106661000D01*
X52873393Y-106661000D01*
X52842233Y-106667198D01*
X52814352Y-106667198D01*
X52909600Y-106571950D01*
X52911013Y-106413458D01*
X52934322Y-106413458D01*
X53085209Y-106383445D01*
X53227342Y-106324571D01*
X53355259Y-106239100D01*
X53464042Y-106130317D01*
X53549513Y-106002400D01*
X53608387Y-105860267D01*
X53638400Y-105709380D01*
X53638400Y-105555536D01*
X53608387Y-105404649D01*
X53563466Y-105296200D01*
X54162957Y-105296200D01*
X54162957Y-106236200D01*
X54170313Y-106310889D01*
X54192099Y-106382708D01*
X54227478Y-106448896D01*
X54275089Y-106506911D01*
X54333104Y-106554522D01*
X54399292Y-106589901D01*
X54471111Y-106611687D01*
X54545800Y-106619043D01*
X56045800Y-106619043D01*
X56120489Y-106611687D01*
X56192308Y-106589901D01*
X56258496Y-106554522D01*
X56316511Y-106506911D01*
X56364122Y-106448896D01*
X56399501Y-106382708D01*
X56421287Y-106310889D01*
X56428643Y-106236200D01*
X56428643Y-104736200D01*
X56421287Y-104661511D01*
X56399501Y-104589692D01*
X56364122Y-104523504D01*
X56320049Y-104469800D01*
X56520935Y-104469800D01*
X56522600Y-104758150D01*
G37*
X56522600Y-104758150D02*
X56617850Y-104853400D01*
X57355600Y-104853400D01*
X57355600Y-104833400D01*
X57401600Y-104833400D01*
X57401600Y-104853400D01*
X58139350Y-104853400D01*
X58165900Y-104826850D01*
X58192650Y-104853600D01*
X58930400Y-104853600D01*
X58930400Y-104833600D01*
X58976400Y-104833600D01*
X58976400Y-104853600D01*
X59714150Y-104853600D01*
X59809400Y-104758350D01*
X59811066Y-104469800D01*
X65612238Y-104469800D01*
X65600313Y-104509111D01*
X65592957Y-104583800D01*
X65592957Y-105902801D01*
X65148793Y-105902801D01*
X64343843Y-105097852D01*
X64343843Y-104905600D01*
X64336487Y-104830911D01*
X64314701Y-104759092D01*
X64279322Y-104692904D01*
X64231711Y-104634889D01*
X64173696Y-104587278D01*
X64107508Y-104551899D01*
X64035689Y-104530113D01*
X63961000Y-104522757D01*
X63361000Y-104522757D01*
X63286311Y-104530113D01*
X63214492Y-104551899D01*
X63148304Y-104587278D01*
X63090289Y-104634889D01*
X63042678Y-104692904D01*
X63007299Y-104759092D01*
X62985513Y-104830911D01*
X62978157Y-104905600D01*
X62978157Y-105355600D01*
X62985513Y-105430289D01*
X63007299Y-105502108D01*
X63042678Y-105568296D01*
X63090289Y-105626311D01*
X63148304Y-105673922D01*
X63214492Y-105709301D01*
X63286311Y-105731087D01*
X63361000Y-105738443D01*
X63553252Y-105738443D01*
X64563829Y-106749021D01*
X64579674Y-106768328D01*
X64656722Y-106831560D01*
X64724380Y-106867724D01*
X64744626Y-106878546D01*
X64840007Y-106907479D01*
X64849895Y-106908453D01*
X64914347Y-106914801D01*
X64914354Y-106914801D01*
X64939200Y-106917248D01*
X64964046Y-106914801D01*
X66000212Y-106914801D01*
X67035367Y-107949956D01*
X66366250Y-107951000D01*
X66271000Y-108046250D01*
X66271000Y-108378167D01*
X66253588Y-108410249D01*
X66248368Y-108427071D01*
X66245824Y-108418490D01*
X66225000Y-108378926D01*
X66225000Y-108046250D01*
X66129750Y-107951000D01*
X64948000Y-107949157D01*
X64873311Y-107956513D01*
X64801492Y-107978299D01*
X64735304Y-108013678D01*
X64677289Y-108061289D01*
X64629678Y-108119304D01*
X64594299Y-108185492D01*
X64572513Y-108257311D01*
X64565157Y-108332000D01*
X64567000Y-109863750D01*
X64662250Y-109959000D01*
X64900592Y-109959000D01*
X64898647Y-109977540D01*
X64901175Y-110005000D01*
X64662250Y-110005000D01*
X64567000Y-110100250D01*
X64565307Y-111507001D01*
X64196985Y-111138679D01*
X64235849Y-111065970D01*
X64270084Y-110953115D01*
X64281643Y-110835750D01*
X64281643Y-110398250D01*
X64270084Y-110280885D01*
X64235849Y-110168030D01*
X64180256Y-110064023D01*
X64105440Y-109972860D01*
X64014277Y-109898044D01*
X63939910Y-109858294D01*
X63973489Y-109854987D01*
X64045308Y-109833201D01*
X64111496Y-109797822D01*
X64169511Y-109750211D01*
X64217122Y-109692196D01*
X64252501Y-109626008D01*
X64274287Y-109554189D01*
X64281643Y-109479500D01*
X64279800Y-109160250D01*
X64184550Y-109065000D01*
X63446800Y-109065000D01*
X63446800Y-109085000D01*
X63400800Y-109085000D01*
X63400800Y-109065000D01*
X62663050Y-109065000D01*
X62567800Y-109160250D01*
X62565957Y-109479500D01*
X62573313Y-109554189D01*
X62595099Y-109626008D01*
X62630478Y-109692196D01*
X62678089Y-109750211D01*
X62736104Y-109797822D01*
X62802292Y-109833201D01*
X62874111Y-109854987D01*
X62907690Y-109858294D01*
X62833323Y-109898044D01*
X62742160Y-109972860D01*
X62667344Y-110064023D01*
X62611751Y-110168030D01*
X62577516Y-110280885D01*
X62565957Y-110398250D01*
X62565957Y-110835750D01*
X62577516Y-110953115D01*
X62611751Y-111065970D01*
X62667344Y-111169977D01*
X62742160Y-111261140D01*
X62833323Y-111335956D01*
X62937330Y-111391549D01*
X63050185Y-111425784D01*
X63052273Y-111425990D01*
X63064273Y-111440612D01*
X63083585Y-111456461D01*
X65276743Y-113649620D01*
X65292588Y-113668927D01*
X65369636Y-113732159D01*
X65457540Y-113779145D01*
X65530722Y-113801344D01*
X65552921Y-113808078D01*
X65562809Y-113809052D01*
X65618429Y-113814530D01*
X65719941Y-113916042D01*
X65847858Y-114001513D01*
X65860161Y-114006609D01*
X63369604Y-114006609D01*
X63094179Y-113731185D01*
X63078330Y-113711873D01*
X63001282Y-113648641D01*
X62913378Y-113601655D01*
X62817996Y-113572722D01*
X62743657Y-113565400D01*
X62743649Y-113565400D01*
X62718803Y-113562953D01*
X62693957Y-113565400D01*
X61495710Y-113565400D01*
X61450556Y-113480923D01*
X61375740Y-113389760D01*
X61284577Y-113314944D01*
X61224610Y-113282891D01*
X61224610Y-113150600D01*
X61372557Y-113150600D01*
X61379913Y-113225289D01*
X61401699Y-113297108D01*
X61437078Y-113363296D01*
X61484689Y-113421311D01*
X61542704Y-113468922D01*
X61608892Y-113504301D01*
X61680711Y-113526087D01*
X61755400Y-113533443D01*
X62137150Y-113531600D01*
X62232400Y-113436350D01*
X62232400Y-112773600D01*
X62278400Y-112773600D01*
X62278400Y-113436350D01*
X62373650Y-113531600D01*
X62755400Y-113533443D01*
X62830089Y-113526087D01*
X62901908Y-113504301D01*
X62968096Y-113468922D01*
X63026111Y-113421311D01*
X63073722Y-113363296D01*
X63109101Y-113297108D01*
X63130887Y-113225289D01*
X63138243Y-113150600D01*
X63136400Y-112868850D01*
X63041150Y-112773600D01*
X62278400Y-112773600D01*
X62232400Y-112773600D01*
X61469650Y-112773600D01*
X61374400Y-112868850D01*
X61372557Y-113150600D01*
X61224610Y-113150600D01*
X61224610Y-112350600D01*
X61372557Y-112350600D01*
X61374400Y-112632350D01*
X61469650Y-112727600D01*
X62232400Y-112727600D01*
X62232400Y-112064850D01*
X62278400Y-112064850D01*
X62278400Y-112727600D01*
X63041150Y-112727600D01*
X63136400Y-112632350D01*
X63138243Y-112350600D01*
X63130887Y-112275911D01*
X63109101Y-112204092D01*
X63073722Y-112137904D01*
X63026111Y-112079889D01*
X62968096Y-112032278D01*
X62901908Y-111996899D01*
X62830089Y-111975113D01*
X62755400Y-111967757D01*
X62373650Y-111969600D01*
X62278400Y-112064850D01*
X62232400Y-112064850D01*
X62137150Y-111969600D01*
X61755400Y-111967757D01*
X61680711Y-111975113D01*
X61608892Y-111996899D01*
X61542704Y-112032278D01*
X61484689Y-112079889D01*
X61437078Y-112137904D01*
X61401699Y-112204092D01*
X61379913Y-112275911D01*
X61372557Y-112350600D01*
X61224610Y-112350600D01*
X61224610Y-110263781D01*
X62567782Y-108920610D01*
X62567800Y-108923750D01*
X62663050Y-109019000D01*
X63400800Y-109019000D01*
X63400800Y-108318750D01*
X63446800Y-108318750D01*
X63446800Y-109019000D01*
X64184550Y-109019000D01*
X64279800Y-108923750D01*
X64281643Y-108604500D01*
X64274287Y-108529811D01*
X64252501Y-108457992D01*
X64217122Y-108391804D01*
X64169511Y-108333789D01*
X64111496Y-108286178D01*
X64045308Y-108250799D01*
X63973489Y-108229013D01*
X63898800Y-108221657D01*
X63542050Y-108223500D01*
X63446800Y-108318750D01*
X63400800Y-108318750D01*
X63305550Y-108223500D01*
X63265101Y-108223291D01*
X63768749Y-107719643D01*
X63961000Y-107719643D01*
X64035689Y-107712287D01*
X64107508Y-107690501D01*
X64173696Y-107655122D01*
X64231711Y-107607511D01*
X64279322Y-107549496D01*
X64314701Y-107483308D01*
X64336487Y-107411489D01*
X64343843Y-107336800D01*
X64343843Y-106886800D01*
X64336487Y-106812111D01*
X64314701Y-106740292D01*
X64279322Y-106674104D01*
X64231711Y-106616089D01*
X64173696Y-106568478D01*
X64107508Y-106533099D01*
X64035689Y-106511313D01*
X63961000Y-106503957D01*
X63361000Y-106503957D01*
X63286311Y-106511313D01*
X63214492Y-106533099D01*
X63148304Y-106568478D01*
X63090289Y-106616089D01*
X63042678Y-106674104D01*
X63007299Y-106740292D01*
X62985513Y-106812111D01*
X62978157Y-106886800D01*
X62978157Y-107079051D01*
X62041679Y-108015529D01*
X62059678Y-107956193D01*
X62060190Y-107951000D01*
X62061354Y-107939175D01*
X62067000Y-107881854D01*
X62067000Y-107881847D01*
X62069447Y-107857001D01*
X62067000Y-107832155D01*
X62067000Y-107658701D01*
X62073696Y-107655122D01*
X62131711Y-107607511D01*
X62179322Y-107549496D01*
X62214701Y-107483308D01*
X62236487Y-107411489D01*
X62243843Y-107336800D01*
X62243843Y-106886800D01*
X62236487Y-106812111D01*
X62214701Y-106740292D01*
X62179322Y-106674104D01*
X62131711Y-106616089D01*
X62073696Y-106568478D01*
X62007508Y-106533099D01*
X61935689Y-106511313D01*
X61861000Y-106503957D01*
X61261000Y-106503957D01*
X61186311Y-106511313D01*
X61114492Y-106533099D01*
X61048304Y-106568478D01*
X60990289Y-106616089D01*
X60942678Y-106674104D01*
X60907299Y-106740292D01*
X60885513Y-106812111D01*
X60878157Y-106886800D01*
X60878157Y-107336800D01*
X60885513Y-107411489D01*
X60907299Y-107483308D01*
X60942678Y-107549496D01*
X60990289Y-107607511D01*
X61047745Y-107654663D01*
X60764443Y-107937965D01*
X60764443Y-107668350D01*
X60752884Y-107550985D01*
X60718649Y-107438130D01*
X60663056Y-107334123D01*
X60588240Y-107242960D01*
X60497077Y-107168144D01*
X60450100Y-107143034D01*
X60450100Y-106957091D01*
X61668749Y-105738443D01*
X61861000Y-105738443D01*
X61935689Y-105731087D01*
X62007508Y-105709301D01*
X62073696Y-105673922D01*
X62131711Y-105626311D01*
X62179322Y-105568296D01*
X62214701Y-105502108D01*
X62236487Y-105430289D01*
X62243843Y-105355600D01*
X62243843Y-104905600D01*
X62236487Y-104830911D01*
X62214701Y-104759092D01*
X62179322Y-104692904D01*
X62131711Y-104634889D01*
X62073696Y-104587278D01*
X62007508Y-104551899D01*
X61935689Y-104530113D01*
X61861000Y-104522757D01*
X61261000Y-104522757D01*
X61186311Y-104530113D01*
X61114492Y-104551899D01*
X61048304Y-104587278D01*
X60990289Y-104634889D01*
X60942678Y-104692904D01*
X60907299Y-104759092D01*
X60885513Y-104830911D01*
X60878157Y-104905600D01*
X60878157Y-105097851D01*
X59805139Y-106170870D01*
X59799684Y-106115485D01*
X59765449Y-106002630D01*
X59709856Y-105898623D01*
X59635040Y-105807460D01*
X59543877Y-105732644D01*
X59469510Y-105692894D01*
X59503089Y-105689587D01*
X59574908Y-105667801D01*
X59641096Y-105632422D01*
X59699111Y-105584811D01*
X59746722Y-105526796D01*
X59782101Y-105460608D01*
X59803887Y-105388789D01*
X59811243Y-105314100D01*
X59809400Y-104994850D01*
X59714150Y-104899600D01*
X58976400Y-104899600D01*
X58976400Y-104919600D01*
X58930400Y-104919600D01*
X58930400Y-104899600D01*
X58192650Y-104899600D01*
X58166100Y-104926150D01*
X58139350Y-104899400D01*
X57401600Y-104899400D01*
X57401600Y-104919400D01*
X57355600Y-104919400D01*
X57355600Y-104899400D01*
X56617850Y-104899400D01*
X56522600Y-104994650D01*
X56520757Y-105313900D01*
X56528113Y-105388589D01*
X56549899Y-105460408D01*
X56585278Y-105526596D01*
X56632889Y-105584611D01*
X56690904Y-105632222D01*
X56757092Y-105667601D01*
X56828911Y-105689387D01*
X56862490Y-105692694D01*
X56788123Y-105732444D01*
X56696960Y-105807260D01*
X56622144Y-105898423D01*
X56566551Y-106002430D01*
X56532316Y-106115285D01*
X56520757Y-106232650D01*
X56520757Y-106670150D01*
X56532316Y-106787515D01*
X56566551Y-106900370D01*
X56622144Y-107004377D01*
X56696960Y-107095540D01*
X56788123Y-107170356D01*
X56802285Y-107177926D01*
X55565043Y-108415168D01*
X55565043Y-107428600D01*
X55557687Y-107353911D01*
X55535901Y-107282092D01*
X55500522Y-107215904D01*
X55452911Y-107157889D01*
X55394896Y-107110278D01*
X55328708Y-107074899D01*
X55256889Y-107053113D01*
X55182200Y-107045757D01*
X53682200Y-107045757D01*
X53628395Y-107051056D01*
X53556957Y-106944141D01*
X53448174Y-106835358D01*
X53320257Y-106749887D01*
X53178124Y-106691013D01*
X53027237Y-106661000D01*
X52873393Y-106661000D01*
X52842233Y-106667198D01*
X52814352Y-106667198D01*
X52909600Y-106571950D01*
X52911013Y-106413458D01*
X52934322Y-106413458D01*
X53085209Y-106383445D01*
X53227342Y-106324571D01*
X53355259Y-106239100D01*
X53464042Y-106130317D01*
X53549513Y-106002400D01*
X53608387Y-105860267D01*
X53638400Y-105709380D01*
X53638400Y-105555536D01*
X53608387Y-105404649D01*
X53563466Y-105296200D01*
X54162957Y-105296200D01*
X54162957Y-106236200D01*
X54170313Y-106310889D01*
X54192099Y-106382708D01*
X54227478Y-106448896D01*
X54275089Y-106506911D01*
X54333104Y-106554522D01*
X54399292Y-106589901D01*
X54471111Y-106611687D01*
X54545800Y-106619043D01*
X56045800Y-106619043D01*
X56120489Y-106611687D01*
X56192308Y-106589901D01*
X56258496Y-106554522D01*
X56316511Y-106506911D01*
X56364122Y-106448896D01*
X56399501Y-106382708D01*
X56421287Y-106310889D01*
X56428643Y-106236200D01*
X56428643Y-104736200D01*
X56421287Y-104661511D01*
X56399501Y-104589692D01*
X56364122Y-104523504D01*
X56320049Y-104469800D01*
X56520935Y-104469800D01*
X56522600Y-104758150D01*
G36*
X56741200Y-113811200D02*
G01*
X56761200Y-113811200D01*
X56761200Y-113857200D01*
X56741200Y-113857200D01*
X56741200Y-113877200D01*
X56695200Y-113877200D01*
X56695200Y-113857200D01*
X56675200Y-113857200D01*
X56675200Y-113811200D01*
X56695200Y-113811200D01*
X56695200Y-113791200D01*
X56741200Y-113791200D01*
X56741200Y-113811200D01*
G37*
X56741200Y-113811200D02*
X56761200Y-113811200D01*
X56761200Y-113857200D01*
X56741200Y-113857200D01*
X56741200Y-113877200D01*
X56695200Y-113877200D01*
X56695200Y-113857200D01*
X56675200Y-113857200D01*
X56675200Y-113811200D01*
X56695200Y-113811200D01*
X56695200Y-113791200D01*
X56741200Y-113791200D01*
X56741200Y-113811200D01*
G36*
X48070311Y-109354887D02*
G01*
X48145000Y-109362243D01*
X49063961Y-109362243D01*
X49805529Y-110103812D01*
X49821374Y-110123119D01*
X49898422Y-110186351D01*
X49976738Y-110228212D01*
X49986326Y-110233337D01*
X50081708Y-110262270D01*
X50180901Y-110272040D01*
X50205755Y-110269592D01*
X50445757Y-110269592D01*
X50445757Y-110418800D01*
X50453113Y-110493489D01*
X50474899Y-110565308D01*
X50510278Y-110631496D01*
X50557889Y-110689511D01*
X50615904Y-110737122D01*
X50682092Y-110772501D01*
X50753911Y-110794287D01*
X50828600Y-110801643D01*
X51228600Y-110801643D01*
X51262171Y-110798337D01*
X51249305Y-110822408D01*
X51219255Y-110878626D01*
X51200265Y-110941230D01*
X51157250Y-110942200D01*
X51062000Y-111037450D01*
X51062000Y-111625200D01*
X51082000Y-111625200D01*
X51082000Y-111671200D01*
X51062000Y-111671200D01*
X51062000Y-111691200D01*
X51016000Y-111691200D01*
X51016000Y-111671200D01*
X50553250Y-111671200D01*
X50502921Y-111721529D01*
X50104592Y-111323200D01*
X50456157Y-111323200D01*
X50458000Y-111529950D01*
X50553250Y-111625200D01*
X51016000Y-111625200D01*
X51016000Y-111037450D01*
X50920750Y-110942200D01*
X50839000Y-110940357D01*
X50764311Y-110947713D01*
X50692492Y-110969499D01*
X50626304Y-111004878D01*
X50568289Y-111052489D01*
X50520678Y-111110504D01*
X50485299Y-111176692D01*
X50463513Y-111248511D01*
X50456157Y-111323200D01*
X50104592Y-111323200D01*
X50074176Y-111292785D01*
X50058327Y-111273473D01*
X50027843Y-111248455D01*
X50027843Y-110883000D01*
X50020487Y-110808311D01*
X49998701Y-110736492D01*
X49963322Y-110670304D01*
X49915711Y-110612289D01*
X49857696Y-110564678D01*
X49791508Y-110529299D01*
X49719689Y-110507513D01*
X49645000Y-110500157D01*
X48145000Y-110500157D01*
X48070311Y-110507513D01*
X48031000Y-110519438D01*
X48031000Y-109342962D01*
X48070311Y-109354887D01*
G37*
X48070311Y-109354887D02*
X48145000Y-109362243D01*
X49063961Y-109362243D01*
X49805529Y-110103812D01*
X49821374Y-110123119D01*
X49898422Y-110186351D01*
X49976738Y-110228212D01*
X49986326Y-110233337D01*
X50081708Y-110262270D01*
X50180901Y-110272040D01*
X50205755Y-110269592D01*
X50445757Y-110269592D01*
X50445757Y-110418800D01*
X50453113Y-110493489D01*
X50474899Y-110565308D01*
X50510278Y-110631496D01*
X50557889Y-110689511D01*
X50615904Y-110737122D01*
X50682092Y-110772501D01*
X50753911Y-110794287D01*
X50828600Y-110801643D01*
X51228600Y-110801643D01*
X51262171Y-110798337D01*
X51249305Y-110822408D01*
X51219255Y-110878626D01*
X51200265Y-110941230D01*
X51157250Y-110942200D01*
X51062000Y-111037450D01*
X51062000Y-111625200D01*
X51082000Y-111625200D01*
X51082000Y-111671200D01*
X51062000Y-111671200D01*
X51062000Y-111691200D01*
X51016000Y-111691200D01*
X51016000Y-111671200D01*
X50553250Y-111671200D01*
X50502921Y-111721529D01*
X50104592Y-111323200D01*
X50456157Y-111323200D01*
X50458000Y-111529950D01*
X50553250Y-111625200D01*
X51016000Y-111625200D01*
X51016000Y-111037450D01*
X50920750Y-110942200D01*
X50839000Y-110940357D01*
X50764311Y-110947713D01*
X50692492Y-110969499D01*
X50626304Y-111004878D01*
X50568289Y-111052489D01*
X50520678Y-111110504D01*
X50485299Y-111176692D01*
X50463513Y-111248511D01*
X50456157Y-111323200D01*
X50104592Y-111323200D01*
X50074176Y-111292785D01*
X50058327Y-111273473D01*
X50027843Y-111248455D01*
X50027843Y-110883000D01*
X50020487Y-110808311D01*
X49998701Y-110736492D01*
X49963322Y-110670304D01*
X49915711Y-110612289D01*
X49857696Y-110564678D01*
X49791508Y-110529299D01*
X49719689Y-110507513D01*
X49645000Y-110500157D01*
X48145000Y-110500157D01*
X48070311Y-110507513D01*
X48031000Y-110519438D01*
X48031000Y-109342962D01*
X48070311Y-109354887D01*
G36*
X59941600Y-110898800D02*
G01*
X59961600Y-110898800D01*
X59961600Y-110944800D01*
X59941600Y-110944800D01*
X59941600Y-110964800D01*
X59895600Y-110964800D01*
X59895600Y-110944800D01*
X59875600Y-110944800D01*
X59875600Y-110898800D01*
X59895600Y-110898800D01*
X59895600Y-110878800D01*
X59941600Y-110878800D01*
X59941600Y-110898800D01*
G37*
X59941600Y-110898800D02*
X59961600Y-110898800D01*
X59961600Y-110944800D01*
X59941600Y-110944800D01*
X59941600Y-110964800D01*
X59895600Y-110964800D01*
X59895600Y-110944800D01*
X59875600Y-110944800D01*
X59875600Y-110898800D01*
X59895600Y-110898800D01*
X59895600Y-110878800D01*
X59941600Y-110878800D01*
X59941600Y-110898800D01*
G36*
X65644669Y-109967858D02*
G01*
X65630527Y-109982000D01*
X65644669Y-109996142D01*
X65635811Y-110005000D01*
X65560189Y-110005000D01*
X65551331Y-109996142D01*
X65565473Y-109982000D01*
X65551331Y-109967858D01*
X65560189Y-109959000D01*
X65635811Y-109959000D01*
X65644669Y-109967858D01*
G37*
X65644669Y-109967858D02*
X65630527Y-109982000D01*
X65644669Y-109996142D01*
X65635811Y-110005000D01*
X65560189Y-110005000D01*
X65551331Y-109996142D01*
X65565473Y-109982000D01*
X65551331Y-109967858D01*
X65560189Y-109959000D01*
X65635811Y-109959000D01*
X65644669Y-109967858D01*
G36*
X50445757Y-106822949D02*
G01*
X50445757Y-107015200D01*
X50453113Y-107089889D01*
X50474899Y-107161708D01*
X50510278Y-107227896D01*
X50557889Y-107285911D01*
X50615904Y-107333522D01*
X50682092Y-107368901D01*
X50753911Y-107390687D01*
X50828600Y-107398043D01*
X51228600Y-107398043D01*
X51236890Y-107397227D01*
X51255841Y-107432681D01*
X51306367Y-107494247D01*
X51303289Y-107493313D01*
X51228600Y-107485957D01*
X51146850Y-107487800D01*
X51051600Y-107583050D01*
X51051600Y-108170800D01*
X51071600Y-108170800D01*
X51071600Y-108216800D01*
X51051600Y-108216800D01*
X51051600Y-108236800D01*
X51005600Y-108236800D01*
X51005600Y-108216800D01*
X50542850Y-108216800D01*
X50502059Y-108257591D01*
X50451980Y-108257591D01*
X50301093Y-108287604D01*
X50158960Y-108346478D01*
X50031043Y-108431949D01*
X50027843Y-108435149D01*
X50027843Y-107868800D01*
X50445757Y-107868800D01*
X50447600Y-108075550D01*
X50542850Y-108170800D01*
X51005600Y-108170800D01*
X51005600Y-107583050D01*
X50910350Y-107487800D01*
X50828600Y-107485957D01*
X50753911Y-107493313D01*
X50682092Y-107515099D01*
X50615904Y-107550478D01*
X50557889Y-107598089D01*
X50510278Y-107656104D01*
X50474899Y-107722292D01*
X50453113Y-107794111D01*
X50445757Y-107868800D01*
X50027843Y-107868800D01*
X50027843Y-107479400D01*
X50020487Y-107404711D01*
X49998701Y-107332892D01*
X49963322Y-107266704D01*
X49915711Y-107208689D01*
X49857696Y-107161078D01*
X49791508Y-107125699D01*
X49719689Y-107103913D01*
X49645000Y-107096557D01*
X48145000Y-107096557D01*
X48070311Y-107103913D01*
X48031000Y-107115838D01*
X48031000Y-106548962D01*
X48070311Y-106560887D01*
X48145000Y-106568243D01*
X49645000Y-106568243D01*
X49719689Y-106560887D01*
X49791508Y-106539101D01*
X49857696Y-106503722D01*
X49915711Y-106456111D01*
X49963322Y-106398096D01*
X49983380Y-106360571D01*
X50445757Y-106822949D01*
G37*
X50445757Y-106822949D02*
X50445757Y-107015200D01*
X50453113Y-107089889D01*
X50474899Y-107161708D01*
X50510278Y-107227896D01*
X50557889Y-107285911D01*
X50615904Y-107333522D01*
X50682092Y-107368901D01*
X50753911Y-107390687D01*
X50828600Y-107398043D01*
X51228600Y-107398043D01*
X51236890Y-107397227D01*
X51255841Y-107432681D01*
X51306367Y-107494247D01*
X51303289Y-107493313D01*
X51228600Y-107485957D01*
X51146850Y-107487800D01*
X51051600Y-107583050D01*
X51051600Y-108170800D01*
X51071600Y-108170800D01*
X51071600Y-108216800D01*
X51051600Y-108216800D01*
X51051600Y-108236800D01*
X51005600Y-108236800D01*
X51005600Y-108216800D01*
X50542850Y-108216800D01*
X50502059Y-108257591D01*
X50451980Y-108257591D01*
X50301093Y-108287604D01*
X50158960Y-108346478D01*
X50031043Y-108431949D01*
X50027843Y-108435149D01*
X50027843Y-107868800D01*
X50445757Y-107868800D01*
X50447600Y-108075550D01*
X50542850Y-108170800D01*
X51005600Y-108170800D01*
X51005600Y-107583050D01*
X50910350Y-107487800D01*
X50828600Y-107485957D01*
X50753911Y-107493313D01*
X50682092Y-107515099D01*
X50615904Y-107550478D01*
X50557889Y-107598089D01*
X50510278Y-107656104D01*
X50474899Y-107722292D01*
X50453113Y-107794111D01*
X50445757Y-107868800D01*
X50027843Y-107868800D01*
X50027843Y-107479400D01*
X50020487Y-107404711D01*
X49998701Y-107332892D01*
X49963322Y-107266704D01*
X49915711Y-107208689D01*
X49857696Y-107161078D01*
X49791508Y-107125699D01*
X49719689Y-107103913D01*
X49645000Y-107096557D01*
X48145000Y-107096557D01*
X48070311Y-107103913D01*
X48031000Y-107115838D01*
X48031000Y-106548962D01*
X48070311Y-106560887D01*
X48145000Y-106568243D01*
X49645000Y-106568243D01*
X49719689Y-106560887D01*
X49791508Y-106539101D01*
X49857696Y-106503722D01*
X49915711Y-106456111D01*
X49963322Y-106398096D01*
X49983380Y-106360571D01*
X50445757Y-106822949D01*
G36*
X52351600Y-106667200D02*
G01*
X52371600Y-106667200D01*
X52371600Y-106713200D01*
X52351600Y-106713200D01*
X52351600Y-106733200D01*
X52305600Y-106733200D01*
X52305600Y-106713200D01*
X52285600Y-106713200D01*
X52285600Y-106667200D01*
X52305600Y-106667200D01*
X52305600Y-106647200D01*
X52351600Y-106647200D01*
X52351600Y-106667200D01*
G37*
X52351600Y-106667200D02*
X52371600Y-106667200D01*
X52371600Y-106713200D01*
X52351600Y-106713200D01*
X52351600Y-106733200D01*
X52305600Y-106733200D01*
X52305600Y-106713200D01*
X52285600Y-106713200D01*
X52285600Y-106667200D01*
X52305600Y-106667200D01*
X52305600Y-106647200D01*
X52351600Y-106647200D01*
X52351600Y-106667200D01*
G36*
X50447600Y-104671950D02*
G01*
X50542850Y-104767200D01*
X51005600Y-104767200D01*
X51005600Y-104747200D01*
X51051600Y-104747200D01*
X51051600Y-104767200D01*
X51071600Y-104767200D01*
X51071600Y-104813200D01*
X51051600Y-104813200D01*
X51051600Y-105400950D01*
X51146850Y-105496200D01*
X51189865Y-105497170D01*
X51208855Y-105559774D01*
X51222131Y-105584611D01*
X51255842Y-105647679D01*
X51319074Y-105724727D01*
X51338381Y-105740572D01*
X51528213Y-105930404D01*
X51544062Y-105949716D01*
X51583835Y-105982357D01*
X51478600Y-105982357D01*
X51403911Y-105989713D01*
X51353600Y-106004975D01*
X51303289Y-105989713D01*
X51228600Y-105982357D01*
X51036349Y-105982357D01*
X50169192Y-105115200D01*
X50445757Y-105115200D01*
X50453113Y-105189889D01*
X50474899Y-105261708D01*
X50510278Y-105327896D01*
X50557889Y-105385911D01*
X50615904Y-105433522D01*
X50682092Y-105468901D01*
X50753911Y-105490687D01*
X50828600Y-105498043D01*
X50910350Y-105496200D01*
X51005600Y-105400950D01*
X51005600Y-104813200D01*
X50542850Y-104813200D01*
X50447600Y-104908450D01*
X50445757Y-105115200D01*
X50169192Y-105115200D01*
X50149176Y-105095185D01*
X50133327Y-105075873D01*
X50056279Y-105012641D01*
X50027843Y-104997442D01*
X50027843Y-104685400D01*
X50020487Y-104610711D01*
X49998701Y-104538892D01*
X49963322Y-104472704D01*
X49960939Y-104469800D01*
X50445798Y-104469800D01*
X50447600Y-104671950D01*
G37*
X50447600Y-104671950D02*
X50542850Y-104767200D01*
X51005600Y-104767200D01*
X51005600Y-104747200D01*
X51051600Y-104747200D01*
X51051600Y-104767200D01*
X51071600Y-104767200D01*
X51071600Y-104813200D01*
X51051600Y-104813200D01*
X51051600Y-105400950D01*
X51146850Y-105496200D01*
X51189865Y-105497170D01*
X51208855Y-105559774D01*
X51222131Y-105584611D01*
X51255842Y-105647679D01*
X51319074Y-105724727D01*
X51338381Y-105740572D01*
X51528213Y-105930404D01*
X51544062Y-105949716D01*
X51583835Y-105982357D01*
X51478600Y-105982357D01*
X51403911Y-105989713D01*
X51353600Y-106004975D01*
X51303289Y-105989713D01*
X51228600Y-105982357D01*
X51036349Y-105982357D01*
X50169192Y-105115200D01*
X50445757Y-105115200D01*
X50453113Y-105189889D01*
X50474899Y-105261708D01*
X50510278Y-105327896D01*
X50557889Y-105385911D01*
X50615904Y-105433522D01*
X50682092Y-105468901D01*
X50753911Y-105490687D01*
X50828600Y-105498043D01*
X50910350Y-105496200D01*
X51005600Y-105400950D01*
X51005600Y-104813200D01*
X50542850Y-104813200D01*
X50447600Y-104908450D01*
X50445757Y-105115200D01*
X50169192Y-105115200D01*
X50149176Y-105095185D01*
X50133327Y-105075873D01*
X50056279Y-105012641D01*
X50027843Y-104997442D01*
X50027843Y-104685400D01*
X50020487Y-104610711D01*
X49998701Y-104538892D01*
X49963322Y-104472704D01*
X49960939Y-104469800D01*
X50445798Y-104469800D01*
X50447600Y-104671950D01*
M02*
