G04 #@! TF.GenerationSoftware,KiCad,Pcbnew,(5.1.6)-1*
G04 #@! TF.CreationDate,2021-01-08T10:20:39+01:00*
G04 #@! TF.ProjectId,Lokdecoder_TI_altQuartz,4c6f6b64-6563-46f6-9465-725f54495f61,rev?*
G04 #@! TF.SameCoordinates,Original*
G04 #@! TF.FileFunction,Copper,L1,Top*
G04 #@! TF.FilePolarity,Positive*
%FSLAX46Y46*%
G04 Gerber Fmt 4.6, Leading zero omitted, Abs format (unit mm)*
G04 Created by KiCad (PCBNEW (5.1.6)-1) date 2021-01-08 10:20:39*
%MOMM*%
%LPD*%
G01*
G04 APERTURE LIST*
G04 #@! TA.AperFunction,SMDPad,CuDef*
%ADD10R,2.200000X1.600000*%
G04 #@! TD*
G04 #@! TA.AperFunction,SMDPad,CuDef*
%ADD11R,0.550000X1.600000*%
G04 #@! TD*
G04 #@! TA.AperFunction,SMDPad,CuDef*
%ADD12R,1.600000X0.550000*%
G04 #@! TD*
G04 #@! TA.AperFunction,SMDPad,CuDef*
%ADD13R,1.000000X1.000000*%
G04 #@! TD*
G04 #@! TA.AperFunction,SMDPad,CuDef*
%ADD14R,1.060000X0.650000*%
G04 #@! TD*
G04 #@! TA.AperFunction,SMDPad,CuDef*
%ADD15R,2.200000X0.500000*%
G04 #@! TD*
G04 #@! TA.AperFunction,Conductor*
%ADD16R,2.950000X4.900000*%
G04 #@! TD*
G04 #@! TA.AperFunction,ComponentPad*
%ADD17C,0.630000*%
G04 #@! TD*
G04 #@! TA.AperFunction,SMDPad,CuDef*
%ADD18R,1.500000X1.500000*%
G04 #@! TD*
G04 #@! TA.AperFunction,ViaPad*
%ADD19C,0.800000*%
G04 #@! TD*
G04 #@! TA.AperFunction,Conductor*
%ADD20C,0.250000*%
G04 #@! TD*
G04 #@! TA.AperFunction,Conductor*
%ADD21C,0.500000*%
G04 #@! TD*
G04 #@! TA.AperFunction,Conductor*
%ADD22C,1.000000*%
G04 #@! TD*
G04 #@! TA.AperFunction,Conductor*
%ADD23C,0.254000*%
G04 #@! TD*
G04 APERTURE END LIST*
D10*
X62801500Y-118840000D03*
X62801500Y-116840000D03*
G04 #@! TA.AperFunction,SMDPad,CuDef*
G36*
G01*
X62308450Y-113899300D02*
X61795950Y-113899300D01*
G75*
G02*
X61577200Y-113680550I0J218750D01*
G01*
X61577200Y-113243050D01*
G75*
G02*
X61795950Y-113024300I218750J0D01*
G01*
X62308450Y-113024300D01*
G75*
G02*
X62527200Y-113243050I0J-218750D01*
G01*
X62527200Y-113680550D01*
G75*
G02*
X62308450Y-113899300I-218750J0D01*
G01*
G37*
G04 #@! TD.AperFunction*
G04 #@! TA.AperFunction,SMDPad,CuDef*
G36*
G01*
X62308450Y-115474300D02*
X61795950Y-115474300D01*
G75*
G02*
X61577200Y-115255550I0J218750D01*
G01*
X61577200Y-114818050D01*
G75*
G02*
X61795950Y-114599300I218750J0D01*
G01*
X62308450Y-114599300D01*
G75*
G02*
X62527200Y-114818050I0J-218750D01*
G01*
X62527200Y-115255550D01*
G75*
G02*
X62308450Y-115474300I-218750J0D01*
G01*
G37*
G04 #@! TD.AperFunction*
D11*
X53200000Y-116791000D03*
X54000000Y-116791000D03*
X54800000Y-116791000D03*
X55600000Y-116791000D03*
X56400000Y-116791000D03*
X57200000Y-116791000D03*
X58000000Y-116791000D03*
X58800000Y-116791000D03*
D12*
X60250000Y-115341000D03*
X60250000Y-114541000D03*
X60250000Y-113741000D03*
X60250000Y-112941000D03*
X60250000Y-112141000D03*
X60250000Y-111341000D03*
X60250000Y-110541000D03*
X60250000Y-109741000D03*
D11*
X58800000Y-108291000D03*
X58000000Y-108291000D03*
X57200000Y-108291000D03*
X56400000Y-108291000D03*
X55600000Y-108291000D03*
X54800000Y-108291000D03*
X54000000Y-108291000D03*
X53200000Y-108291000D03*
D12*
X51750000Y-109741000D03*
X51750000Y-110541000D03*
X51750000Y-111341000D03*
X51750000Y-112141000D03*
X51750000Y-112941000D03*
X51750000Y-113741000D03*
X51750000Y-114541000D03*
X51750000Y-115341000D03*
G04 #@! TA.AperFunction,SMDPad,CuDef*
G36*
G01*
X54971100Y-118590350D02*
X54971100Y-119102850D01*
G75*
G02*
X54752350Y-119321600I-218750J0D01*
G01*
X54314850Y-119321600D01*
G75*
G02*
X54096100Y-119102850I0J218750D01*
G01*
X54096100Y-118590350D01*
G75*
G02*
X54314850Y-118371600I218750J0D01*
G01*
X54752350Y-118371600D01*
G75*
G02*
X54971100Y-118590350I0J-218750D01*
G01*
G37*
G04 #@! TD.AperFunction*
G04 #@! TA.AperFunction,SMDPad,CuDef*
G36*
G01*
X56546100Y-118590350D02*
X56546100Y-119102850D01*
G75*
G02*
X56327350Y-119321600I-218750J0D01*
G01*
X55889850Y-119321600D01*
G75*
G02*
X55671100Y-119102850I0J218750D01*
G01*
X55671100Y-118590350D01*
G75*
G02*
X55889850Y-118371600I218750J0D01*
G01*
X56327350Y-118371600D01*
G75*
G02*
X56546100Y-118590350I0J-218750D01*
G01*
G37*
G04 #@! TD.AperFunction*
G04 #@! TA.AperFunction,SMDPad,CuDef*
G36*
G01*
X51821700Y-118590350D02*
X51821700Y-119102850D01*
G75*
G02*
X51602950Y-119321600I-218750J0D01*
G01*
X51165450Y-119321600D01*
G75*
G02*
X50946700Y-119102850I0J218750D01*
G01*
X50946700Y-118590350D01*
G75*
G02*
X51165450Y-118371600I218750J0D01*
G01*
X51602950Y-118371600D01*
G75*
G02*
X51821700Y-118590350I0J-218750D01*
G01*
G37*
G04 #@! TD.AperFunction*
G04 #@! TA.AperFunction,SMDPad,CuDef*
G36*
G01*
X53396700Y-118590350D02*
X53396700Y-119102850D01*
G75*
G02*
X53177950Y-119321600I-218750J0D01*
G01*
X52740450Y-119321600D01*
G75*
G02*
X52521700Y-119102850I0J218750D01*
G01*
X52521700Y-118590350D01*
G75*
G02*
X52740450Y-118371600I218750J0D01*
G01*
X53177950Y-118371600D01*
G75*
G02*
X53396700Y-118590350I0J-218750D01*
G01*
G37*
G04 #@! TD.AperFunction*
G04 #@! TA.AperFunction,SMDPad,CuDef*
G36*
G01*
X68422100Y-113768850D02*
X68422100Y-113256350D01*
G75*
G02*
X68640850Y-113037600I218750J0D01*
G01*
X69078350Y-113037600D01*
G75*
G02*
X69297100Y-113256350I0J-218750D01*
G01*
X69297100Y-113768850D01*
G75*
G02*
X69078350Y-113987600I-218750J0D01*
G01*
X68640850Y-113987600D01*
G75*
G02*
X68422100Y-113768850I0J218750D01*
G01*
G37*
G04 #@! TD.AperFunction*
G04 #@! TA.AperFunction,SMDPad,CuDef*
G36*
G01*
X66847100Y-113768850D02*
X66847100Y-113256350D01*
G75*
G02*
X67065850Y-113037600I218750J0D01*
G01*
X67503350Y-113037600D01*
G75*
G02*
X67722100Y-113256350I0J-218750D01*
G01*
X67722100Y-113768850D01*
G75*
G02*
X67503350Y-113987600I-218750J0D01*
G01*
X67065850Y-113987600D01*
G75*
G02*
X66847100Y-113768850I0J218750D01*
G01*
G37*
G04 #@! TD.AperFunction*
G04 #@! TA.AperFunction,SMDPad,CuDef*
G36*
G01*
X67185250Y-106914500D02*
X66672750Y-106914500D01*
G75*
G02*
X66454000Y-106695750I0J218750D01*
G01*
X66454000Y-106258250D01*
G75*
G02*
X66672750Y-106039500I218750J0D01*
G01*
X67185250Y-106039500D01*
G75*
G02*
X67404000Y-106258250I0J-218750D01*
G01*
X67404000Y-106695750D01*
G75*
G02*
X67185250Y-106914500I-218750J0D01*
G01*
G37*
G04 #@! TD.AperFunction*
G04 #@! TA.AperFunction,SMDPad,CuDef*
G36*
G01*
X67185250Y-105339500D02*
X66672750Y-105339500D01*
G75*
G02*
X66454000Y-105120750I0J218750D01*
G01*
X66454000Y-104683250D01*
G75*
G02*
X66672750Y-104464500I218750J0D01*
G01*
X67185250Y-104464500D01*
G75*
G02*
X67404000Y-104683250I0J-218750D01*
G01*
X67404000Y-105120750D01*
G75*
G02*
X67185250Y-105339500I-218750J0D01*
G01*
G37*
G04 #@! TD.AperFunction*
D13*
X48742600Y-118237000D03*
X48691800Y-105130600D03*
X48742600Y-116205000D03*
X48742600Y-114173000D03*
X48742600Y-112141000D03*
X63373000Y-105918000D03*
X61341000Y-105918000D03*
X59309000Y-105918000D03*
X48691800Y-107162600D03*
G04 #@! TA.AperFunction,SMDPad,CuDef*
G36*
G01*
X50006800Y-106707650D02*
X50006800Y-106195150D01*
G75*
G02*
X50225550Y-105976400I218750J0D01*
G01*
X50663050Y-105976400D01*
G75*
G02*
X50881800Y-106195150I0J-218750D01*
G01*
X50881800Y-106707650D01*
G75*
G02*
X50663050Y-106926400I-218750J0D01*
G01*
X50225550Y-106926400D01*
G75*
G02*
X50006800Y-106707650I0J218750D01*
G01*
G37*
G04 #@! TD.AperFunction*
G04 #@! TA.AperFunction,SMDPad,CuDef*
G36*
G01*
X51581800Y-106707650D02*
X51581800Y-106195150D01*
G75*
G02*
X51800550Y-105976400I218750J0D01*
G01*
X52238050Y-105976400D01*
G75*
G02*
X52456800Y-106195150I0J-218750D01*
G01*
X52456800Y-106707650D01*
G75*
G02*
X52238050Y-106926400I-218750J0D01*
G01*
X51800550Y-106926400D01*
G75*
G02*
X51581800Y-106707650I0J218750D01*
G01*
G37*
G04 #@! TD.AperFunction*
G04 #@! TA.AperFunction,SMDPad,CuDef*
G36*
G01*
X54742500Y-106169750D02*
X54742500Y-106682250D01*
G75*
G02*
X54523750Y-106901000I-218750J0D01*
G01*
X54086250Y-106901000D01*
G75*
G02*
X53867500Y-106682250I0J218750D01*
G01*
X53867500Y-106169750D01*
G75*
G02*
X54086250Y-105951000I218750J0D01*
G01*
X54523750Y-105951000D01*
G75*
G02*
X54742500Y-106169750I0J-218750D01*
G01*
G37*
G04 #@! TD.AperFunction*
G04 #@! TA.AperFunction,SMDPad,CuDef*
G36*
G01*
X56317500Y-106169750D02*
X56317500Y-106682250D01*
G75*
G02*
X56098750Y-106901000I-218750J0D01*
G01*
X55661250Y-106901000D01*
G75*
G02*
X55442500Y-106682250I0J218750D01*
G01*
X55442500Y-106169750D01*
G75*
G02*
X55661250Y-105951000I218750J0D01*
G01*
X56098750Y-105951000D01*
G75*
G02*
X56317500Y-106169750I0J-218750D01*
G01*
G37*
G04 #@! TD.AperFunction*
G04 #@! TA.AperFunction,SMDPad,CuDef*
G36*
G01*
X64843950Y-113024100D02*
X65356450Y-113024100D01*
G75*
G02*
X65575200Y-113242850I0J-218750D01*
G01*
X65575200Y-113680350D01*
G75*
G02*
X65356450Y-113899100I-218750J0D01*
G01*
X64843950Y-113899100D01*
G75*
G02*
X64625200Y-113680350I0J218750D01*
G01*
X64625200Y-113242850D01*
G75*
G02*
X64843950Y-113024100I218750J0D01*
G01*
G37*
G04 #@! TD.AperFunction*
G04 #@! TA.AperFunction,SMDPad,CuDef*
G36*
G01*
X64843950Y-114599100D02*
X65356450Y-114599100D01*
G75*
G02*
X65575200Y-114817850I0J-218750D01*
G01*
X65575200Y-115255350D01*
G75*
G02*
X65356450Y-115474100I-218750J0D01*
G01*
X64843950Y-115474100D01*
G75*
G02*
X64625200Y-115255350I0J218750D01*
G01*
X64625200Y-114817850D01*
G75*
G02*
X64843950Y-114599100I218750J0D01*
G01*
G37*
G04 #@! TD.AperFunction*
G04 #@! TA.AperFunction,SMDPad,CuDef*
G36*
G01*
X66408000Y-119391750D02*
X66408000Y-118479250D01*
G75*
G02*
X66651750Y-118235500I243750J0D01*
G01*
X67139250Y-118235500D01*
G75*
G02*
X67383000Y-118479250I0J-243750D01*
G01*
X67383000Y-119391750D01*
G75*
G02*
X67139250Y-119635500I-243750J0D01*
G01*
X66651750Y-119635500D01*
G75*
G02*
X66408000Y-119391750I0J243750D01*
G01*
G37*
G04 #@! TD.AperFunction*
G04 #@! TA.AperFunction,SMDPad,CuDef*
G36*
G01*
X68283000Y-119391750D02*
X68283000Y-118479250D01*
G75*
G02*
X68526750Y-118235500I243750J0D01*
G01*
X69014250Y-118235500D01*
G75*
G02*
X69258000Y-118479250I0J-243750D01*
G01*
X69258000Y-119391750D01*
G75*
G02*
X69014250Y-119635500I-243750J0D01*
G01*
X68526750Y-119635500D01*
G75*
G02*
X68283000Y-119391750I0J243750D01*
G01*
G37*
G04 #@! TD.AperFunction*
G04 #@! TA.AperFunction,SMDPad,CuDef*
G36*
G01*
X60141500Y-119382250D02*
X60141500Y-118869750D01*
G75*
G02*
X60360250Y-118651000I218750J0D01*
G01*
X60797750Y-118651000D01*
G75*
G02*
X61016500Y-118869750I0J-218750D01*
G01*
X61016500Y-119382250D01*
G75*
G02*
X60797750Y-119601000I-218750J0D01*
G01*
X60360250Y-119601000D01*
G75*
G02*
X60141500Y-119382250I0J218750D01*
G01*
G37*
G04 #@! TD.AperFunction*
G04 #@! TA.AperFunction,SMDPad,CuDef*
G36*
G01*
X58566500Y-119382250D02*
X58566500Y-118869750D01*
G75*
G02*
X58785250Y-118651000I218750J0D01*
G01*
X59222750Y-118651000D01*
G75*
G02*
X59441500Y-118869750I0J-218750D01*
G01*
X59441500Y-119382250D01*
G75*
G02*
X59222750Y-119601000I-218750J0D01*
G01*
X58785250Y-119601000D01*
G75*
G02*
X58566500Y-119382250I0J218750D01*
G01*
G37*
G04 #@! TD.AperFunction*
G04 #@! TA.AperFunction,SMDPad,CuDef*
G36*
G01*
X63319950Y-114599300D02*
X63832450Y-114599300D01*
G75*
G02*
X64051200Y-114818050I0J-218750D01*
G01*
X64051200Y-115255550D01*
G75*
G02*
X63832450Y-115474300I-218750J0D01*
G01*
X63319950Y-115474300D01*
G75*
G02*
X63101200Y-115255550I0J218750D01*
G01*
X63101200Y-114818050D01*
G75*
G02*
X63319950Y-114599300I218750J0D01*
G01*
G37*
G04 #@! TD.AperFunction*
G04 #@! TA.AperFunction,SMDPad,CuDef*
G36*
G01*
X63319950Y-113024300D02*
X63832450Y-113024300D01*
G75*
G02*
X64051200Y-113243050I0J-218750D01*
G01*
X64051200Y-113680550D01*
G75*
G02*
X63832450Y-113899300I-218750J0D01*
G01*
X63319950Y-113899300D01*
G75*
G02*
X63101200Y-113680550I0J218750D01*
G01*
X63101200Y-113243050D01*
G75*
G02*
X63319950Y-113024300I218750J0D01*
G01*
G37*
G04 #@! TD.AperFunction*
G04 #@! TA.AperFunction,SMDPad,CuDef*
G36*
G01*
X57147750Y-104464500D02*
X57660250Y-104464500D01*
G75*
G02*
X57879000Y-104683250I0J-218750D01*
G01*
X57879000Y-105120750D01*
G75*
G02*
X57660250Y-105339500I-218750J0D01*
G01*
X57147750Y-105339500D01*
G75*
G02*
X56929000Y-105120750I0J218750D01*
G01*
X56929000Y-104683250D01*
G75*
G02*
X57147750Y-104464500I218750J0D01*
G01*
G37*
G04 #@! TD.AperFunction*
G04 #@! TA.AperFunction,SMDPad,CuDef*
G36*
G01*
X57147750Y-106039500D02*
X57660250Y-106039500D01*
G75*
G02*
X57879000Y-106258250I0J-218750D01*
G01*
X57879000Y-106695750D01*
G75*
G02*
X57660250Y-106914500I-218750J0D01*
G01*
X57147750Y-106914500D01*
G75*
G02*
X56929000Y-106695750I0J218750D01*
G01*
X56929000Y-106258250D01*
G75*
G02*
X57147750Y-106039500I218750J0D01*
G01*
G37*
G04 #@! TD.AperFunction*
G04 #@! TA.AperFunction,SMDPad,CuDef*
G36*
G01*
X65534250Y-106914500D02*
X65021750Y-106914500D01*
G75*
G02*
X64803000Y-106695750I0J218750D01*
G01*
X64803000Y-106258250D01*
G75*
G02*
X65021750Y-106039500I218750J0D01*
G01*
X65534250Y-106039500D01*
G75*
G02*
X65753000Y-106258250I0J-218750D01*
G01*
X65753000Y-106695750D01*
G75*
G02*
X65534250Y-106914500I-218750J0D01*
G01*
G37*
G04 #@! TD.AperFunction*
G04 #@! TA.AperFunction,SMDPad,CuDef*
G36*
G01*
X65534250Y-105339500D02*
X65021750Y-105339500D01*
G75*
G02*
X64803000Y-105120750I0J218750D01*
G01*
X64803000Y-104683250D01*
G75*
G02*
X65021750Y-104464500I218750J0D01*
G01*
X65534250Y-104464500D01*
G75*
G02*
X65753000Y-104683250I0J-218750D01*
G01*
X65753000Y-105120750D01*
G75*
G02*
X65534250Y-105339500I-218750J0D01*
G01*
G37*
G04 #@! TD.AperFunction*
D14*
X68875000Y-117053400D03*
X68875000Y-116103400D03*
X68875000Y-115153400D03*
X66675000Y-115153400D03*
X66675000Y-117053400D03*
D15*
X63373000Y-108077000D03*
X63373000Y-109347000D03*
X63373000Y-110617000D03*
X63373000Y-111887000D03*
X69123000Y-111887000D03*
X69123000Y-110617000D03*
X69123000Y-109347000D03*
X69123000Y-108077000D03*
D16*
X66248000Y-109982000D03*
D17*
X65598000Y-108682000D03*
X65598000Y-109982000D03*
X66898000Y-109982000D03*
X66898000Y-108682000D03*
X65598000Y-111282000D03*
X66898000Y-111282000D03*
G04 #@! TA.AperFunction,SMDPad,CuDef*
G36*
G01*
X48486350Y-110001800D02*
X48998850Y-110001800D01*
G75*
G02*
X49217600Y-110220550I0J-218750D01*
G01*
X49217600Y-110658050D01*
G75*
G02*
X48998850Y-110876800I-218750J0D01*
G01*
X48486350Y-110876800D01*
G75*
G02*
X48267600Y-110658050I0J218750D01*
G01*
X48267600Y-110220550D01*
G75*
G02*
X48486350Y-110001800I218750J0D01*
G01*
G37*
G04 #@! TD.AperFunction*
G04 #@! TA.AperFunction,SMDPad,CuDef*
G36*
G01*
X48486350Y-108426800D02*
X48998850Y-108426800D01*
G75*
G02*
X49217600Y-108645550I0J-218750D01*
G01*
X49217600Y-109083050D01*
G75*
G02*
X48998850Y-109301800I-218750J0D01*
G01*
X48486350Y-109301800D01*
G75*
G02*
X48267600Y-109083050I0J218750D01*
G01*
X48267600Y-108645550D01*
G75*
G02*
X48486350Y-108426800I218750J0D01*
G01*
G37*
G04 #@! TD.AperFunction*
G04 #@! TA.AperFunction,SMDPad,CuDef*
G36*
G01*
X55442500Y-105158250D02*
X55442500Y-104645750D01*
G75*
G02*
X55661250Y-104427000I218750J0D01*
G01*
X56098750Y-104427000D01*
G75*
G02*
X56317500Y-104645750I0J-218750D01*
G01*
X56317500Y-105158250D01*
G75*
G02*
X56098750Y-105377000I-218750J0D01*
G01*
X55661250Y-105377000D01*
G75*
G02*
X55442500Y-105158250I0J218750D01*
G01*
G37*
G04 #@! TD.AperFunction*
G04 #@! TA.AperFunction,SMDPad,CuDef*
G36*
G01*
X53867500Y-105158250D02*
X53867500Y-104645750D01*
G75*
G02*
X54086250Y-104427000I218750J0D01*
G01*
X54523750Y-104427000D01*
G75*
G02*
X54742500Y-104645750I0J-218750D01*
G01*
X54742500Y-105158250D01*
G75*
G02*
X54523750Y-105377000I-218750J0D01*
G01*
X54086250Y-105377000D01*
G75*
G02*
X53867500Y-105158250I0J218750D01*
G01*
G37*
G04 #@! TD.AperFunction*
D18*
X69113400Y-105486200D03*
D19*
X50469800Y-107670600D03*
X49513159Y-118888841D03*
X50317400Y-111125000D03*
X53150002Y-109905800D03*
X54686200Y-113309400D03*
X57300342Y-118588764D03*
X60274200Y-104876600D03*
X55448200Y-110587798D03*
X53822600Y-105943400D03*
X49802215Y-112962039D03*
X56159400Y-109753400D03*
X57785000Y-114071400D03*
X65058982Y-116112982D03*
X57226200Y-109702600D03*
X54656439Y-109554148D03*
X69590002Y-117053400D03*
X56718200Y-114940999D03*
X66217800Y-113309400D03*
X53122668Y-115795033D03*
X60172600Y-116066000D03*
X58849998Y-115390998D03*
X55803800Y-114477800D03*
X52857400Y-105632458D03*
X52950315Y-107442000D03*
X52330064Y-109168798D03*
X50528902Y-109038591D03*
X53314600Y-111212800D03*
X53150002Y-112677843D03*
X69123000Y-110617000D03*
X69672200Y-106959400D03*
D20*
X51550001Y-112741001D02*
X51750000Y-112941000D01*
X50689999Y-112741001D02*
X51550001Y-112741001D01*
X49581062Y-111632064D02*
X50689999Y-112741001D01*
X48742600Y-108864300D02*
X49581062Y-109702762D01*
X49581062Y-109702762D02*
X49581062Y-111632064D01*
X48742600Y-107213400D02*
X48691800Y-107162600D01*
X48742600Y-108864300D02*
X48742600Y-107213400D01*
X49403000Y-106451400D02*
X48691800Y-107162600D01*
X50444300Y-106451400D02*
X49403000Y-106451400D01*
X51219290Y-105651390D02*
X52019300Y-106451400D01*
X49212590Y-105651390D02*
X51219290Y-105651390D01*
X48691800Y-105130600D02*
X49212590Y-105651390D01*
X55600000Y-107430998D02*
X55600000Y-108291000D01*
X54595002Y-106426000D02*
X55600000Y-107430998D01*
X54305000Y-106426000D02*
X54595002Y-106426000D01*
X54305000Y-106426000D02*
X54305000Y-104902000D01*
D21*
X66883000Y-109347000D02*
X66248000Y-109982000D01*
X69123000Y-109347000D02*
X66883000Y-109347000D01*
X63373000Y-108077000D02*
X65024000Y-108077000D01*
X66248000Y-109301000D02*
X66248000Y-109982000D01*
X65024000Y-108077000D02*
X66248000Y-109301000D01*
X67284600Y-111668600D02*
X66898000Y-111282000D01*
X67284600Y-113512600D02*
X67284600Y-111668600D01*
D20*
X66929000Y-108651000D02*
X66898000Y-108682000D01*
X66929000Y-106477000D02*
X66929000Y-108651000D01*
D21*
X65100200Y-111779800D02*
X65598000Y-111282000D01*
X65100200Y-113461600D02*
X65100200Y-111779800D01*
X65100000Y-113461800D02*
X65100200Y-113461600D01*
X63576200Y-113461800D02*
X65100000Y-113461800D01*
D20*
X48742600Y-118237000D02*
X48861318Y-118237000D01*
X55805600Y-118846600D02*
X56108600Y-118846600D01*
X54800000Y-116791000D02*
X54800000Y-117841000D01*
D21*
X68159998Y-116103400D02*
X67655001Y-115598403D01*
X68875000Y-116103400D02*
X68159998Y-116103400D01*
D20*
X56400000Y-118555200D02*
X56108600Y-118846600D01*
X57042506Y-118846600D02*
X57300342Y-118588764D01*
X56108600Y-118846600D02*
X57042506Y-118846600D01*
X54305000Y-106426000D02*
X54032623Y-106426000D01*
X55434399Y-110573997D02*
X55448200Y-110587798D01*
X55600000Y-108291000D02*
X55434399Y-108456601D01*
X55434399Y-108456601D02*
X55434399Y-110573997D01*
X53822600Y-105943400D02*
X53822600Y-105943600D01*
X53822600Y-105943600D02*
X54305000Y-106426000D01*
D21*
X66248000Y-109982000D02*
X66248000Y-108791998D01*
D20*
X66248000Y-108351600D02*
X66248000Y-109982000D01*
X69113400Y-105486200D02*
X66248000Y-108351600D01*
X66248000Y-109982000D02*
X66248000Y-109021600D01*
X66248000Y-109021600D02*
X64389000Y-107162600D01*
X56400000Y-106946000D02*
X56400000Y-108291000D01*
X55880000Y-106426000D02*
X56400000Y-106946000D01*
D21*
X66558200Y-115036600D02*
X66675000Y-115153400D01*
X65100200Y-115036600D02*
X66558200Y-115036600D01*
D20*
X48742600Y-110439300D02*
X48742600Y-112141000D01*
X57124999Y-115665999D02*
X57200000Y-115741000D01*
X55864999Y-115665999D02*
X57124999Y-115665999D01*
X55600000Y-115930998D02*
X55864999Y-115665999D01*
X55600000Y-116791000D02*
X55600000Y-115930998D01*
X57200000Y-115741000D02*
X57200000Y-116791000D01*
X48742600Y-112141000D02*
X48981176Y-112141000D01*
X48981176Y-112141000D02*
X49802215Y-112962039D01*
X57574201Y-110427601D02*
X56833601Y-110427601D01*
X58000000Y-108291000D02*
X58000000Y-110001802D01*
X56833601Y-110427601D02*
X56159400Y-109753400D01*
X58000000Y-110001802D02*
X57574201Y-110427601D01*
X57200000Y-115741000D02*
X57785000Y-115156000D01*
X57785000Y-115156000D02*
X57785000Y-114071400D01*
X66675000Y-117053400D02*
X65826600Y-116205000D01*
X65826600Y-116205000D02*
X65214500Y-116205000D01*
X66675000Y-118715000D02*
X66895500Y-118935500D01*
X66675000Y-117053400D02*
X66675000Y-118715000D01*
X57200000Y-108291000D02*
X57200000Y-109676400D01*
X57200000Y-109676400D02*
X57226200Y-109702600D01*
X54800000Y-109410587D02*
X54656439Y-109554148D01*
X54800000Y-108291000D02*
X54800000Y-109410587D01*
X58000000Y-117651002D02*
X58458998Y-118110000D01*
X58000000Y-116791000D02*
X58000000Y-117651002D01*
X62782000Y-118796000D02*
X62738000Y-118840000D01*
X62071500Y-118110000D02*
X62801500Y-118840000D01*
X58458998Y-118110000D02*
X62071500Y-118110000D01*
X62515500Y-119126000D02*
X62801500Y-118840000D01*
X60579000Y-119126000D02*
X62515500Y-119126000D01*
X62689000Y-116791000D02*
X62738000Y-116840000D01*
X58800000Y-117220000D02*
X59055000Y-117475000D01*
X58800000Y-116791000D02*
X58800000Y-117220000D01*
X62166500Y-117475000D02*
X62801500Y-116840000D01*
X59055000Y-117475000D02*
X62166500Y-117475000D01*
X63576200Y-116065300D02*
X62801500Y-116840000D01*
X63576200Y-115036800D02*
X63576200Y-116065300D01*
D21*
X68859600Y-112150400D02*
X68596200Y-111887000D01*
X68859600Y-113512600D02*
X68859600Y-112150400D01*
X68859600Y-115138000D02*
X68875000Y-115153400D01*
X68859600Y-113512600D02*
X68859600Y-115138000D01*
X69590002Y-117053400D02*
X68875000Y-117053400D01*
X69855001Y-116788401D02*
X69590002Y-117053400D01*
X69590002Y-115153400D02*
X69855001Y-115418399D01*
X69855001Y-115418399D02*
X69855001Y-116788401D01*
X68875000Y-115153400D02*
X69590002Y-115153400D01*
D20*
X52774667Y-115070032D02*
X52503699Y-115341000D01*
X53470669Y-115070032D02*
X52774667Y-115070032D01*
X53616626Y-115215989D02*
X53470669Y-115070032D01*
X56138613Y-115215989D02*
X53616626Y-115215989D01*
X56413603Y-114940999D02*
X56138613Y-115215989D01*
X52503699Y-115341000D02*
X51750000Y-115341000D01*
X56718200Y-114940999D02*
X56413603Y-114940999D01*
X55880000Y-104902000D02*
X57404000Y-104902000D01*
X58800000Y-106427000D02*
X59309000Y-105918000D01*
X58723000Y-106477000D02*
X58800000Y-106554000D01*
X57404000Y-106477000D02*
X58723000Y-106477000D01*
X58800000Y-108291000D02*
X58800000Y-106554000D01*
X58800000Y-106554000D02*
X58800000Y-106427000D01*
X65354000Y-106477000D02*
X66929000Y-104902000D01*
X65278000Y-106477000D02*
X65354000Y-106477000D01*
X62164002Y-111887000D02*
X63373000Y-111887000D01*
X61110002Y-112941000D02*
X62164002Y-111887000D01*
X60250000Y-112941000D02*
X61110002Y-112941000D01*
X61773000Y-113741000D02*
X60250000Y-113741000D01*
X62052200Y-113461800D02*
X61773000Y-113741000D01*
X65964310Y-114274090D02*
X66217800Y-114020600D01*
X62052200Y-115036800D02*
X62814910Y-114274090D01*
X62814910Y-114274090D02*
X65964310Y-114274090D01*
X66217800Y-114020600D02*
X66217800Y-113258600D01*
X66217800Y-113258600D02*
X66116200Y-113157000D01*
X53122668Y-116713668D02*
X53200000Y-116791000D01*
X53122668Y-115795033D02*
X53122668Y-116713668D01*
X52184210Y-118046590D02*
X51384200Y-118846600D01*
X53604412Y-118046590D02*
X52184210Y-118046590D01*
X54000000Y-117651002D02*
X53604412Y-118046590D01*
X54000000Y-116791000D02*
X54000000Y-117651002D01*
X60172600Y-115418400D02*
X60250000Y-115341000D01*
X60172600Y-116066000D02*
X60172600Y-115418400D01*
X59134311Y-114541000D02*
X60250000Y-114541000D01*
X58849998Y-114825313D02*
X59134311Y-114541000D01*
X58849998Y-115390998D02*
X58849998Y-114825313D01*
X60999000Y-112141000D02*
X60250000Y-112141000D01*
X62523000Y-110617000D02*
X60999000Y-112141000D01*
X63373000Y-110617000D02*
X62523000Y-110617000D01*
X62707998Y-109347000D02*
X63373000Y-109347000D01*
X61947999Y-110106999D02*
X62707998Y-109347000D01*
X61136410Y-111341000D02*
X60250000Y-111341000D01*
X61947999Y-110529411D02*
X61136410Y-111341000D01*
X61947999Y-110106999D02*
X61947999Y-110529411D01*
X59385000Y-110541000D02*
X60250000Y-110541000D01*
X55803800Y-114122200D02*
X59385000Y-110541000D01*
X62926002Y-105918000D02*
X63373000Y-105918000D01*
X61935402Y-106908600D02*
X62926002Y-105918000D01*
X60250000Y-110541000D02*
X61110002Y-110541000D01*
X61110002Y-110541000D02*
X61375001Y-110276001D01*
X61375001Y-107179399D02*
X61645800Y-106908600D01*
X61375001Y-110276001D02*
X61375001Y-107179399D01*
X61645800Y-106908600D02*
X61935402Y-106908600D01*
X54000000Y-107418683D02*
X54000000Y-108291000D01*
X52908200Y-106326883D02*
X54000000Y-107418683D01*
X52908200Y-105632458D02*
X52908200Y-106326883D01*
X53200000Y-108291000D02*
X53200000Y-107691685D01*
X53200000Y-107691685D02*
X52950315Y-107442000D01*
X52322202Y-109168798D02*
X51750000Y-109741000D01*
X52330064Y-109168798D02*
X52322202Y-109168798D01*
X50889998Y-110541000D02*
X51750000Y-110541000D01*
X50528902Y-110179904D02*
X50889998Y-110541000D01*
X50528902Y-109038591D02*
X50528902Y-110179904D01*
X51878200Y-111212800D02*
X51750000Y-111341000D01*
X53314600Y-111212800D02*
X51878200Y-111212800D01*
X52613159Y-112141000D02*
X51750000Y-112141000D01*
X53150002Y-112677843D02*
X52613159Y-112141000D01*
X49174600Y-113741000D02*
X51750000Y-113741000D01*
X48742600Y-114173000D02*
X49174600Y-113741000D01*
X50406600Y-114541000D02*
X51750000Y-114541000D01*
X48742600Y-116205000D02*
X50406600Y-114541000D01*
D22*
X69123000Y-107508600D02*
X69672200Y-106959400D01*
X69123000Y-108077000D02*
X69123000Y-107508600D01*
D20*
X60250000Y-107009000D02*
X61341000Y-105918000D01*
X60250000Y-109741000D02*
X60250000Y-107009000D01*
X62357000Y-104902000D02*
X61341000Y-105918000D01*
X65278000Y-104902000D02*
X62357000Y-104902000D01*
X52959200Y-118846600D02*
X54533600Y-118846600D01*
D23*
G36*
X50567157Y-115616000D02*
G01*
X50574513Y-115690689D01*
X50596299Y-115762508D01*
X50631678Y-115828696D01*
X50679289Y-115886711D01*
X50737304Y-115934322D01*
X50803492Y-115969701D01*
X50875311Y-115991487D01*
X50950000Y-115998843D01*
X52366907Y-115998843D01*
X52371681Y-116022842D01*
X52430555Y-116164975D01*
X52516026Y-116292892D01*
X52542157Y-116319023D01*
X52542157Y-117540590D01*
X52209056Y-117540590D01*
X52184210Y-117538143D01*
X52159364Y-117540590D01*
X52159356Y-117540590D01*
X52085017Y-117547912D01*
X51989635Y-117576845D01*
X51901731Y-117623831D01*
X51824683Y-117687063D01*
X51808839Y-117706369D01*
X51526451Y-117988757D01*
X51165450Y-117988757D01*
X51048085Y-118000316D01*
X50935230Y-118034551D01*
X50831223Y-118090144D01*
X50740060Y-118164960D01*
X50665244Y-118256123D01*
X50609651Y-118360130D01*
X50575416Y-118472985D01*
X50563857Y-118590350D01*
X50563857Y-119102850D01*
X50575416Y-119220215D01*
X50609651Y-119333070D01*
X50665244Y-119437077D01*
X50722957Y-119507400D01*
X48031000Y-119507400D01*
X48031000Y-119055908D01*
X48096092Y-119090701D01*
X48167911Y-119112487D01*
X48242600Y-119119843D01*
X48624350Y-119118000D01*
X48719600Y-119022750D01*
X48719600Y-118260000D01*
X48765600Y-118260000D01*
X48765600Y-119022750D01*
X48860850Y-119118000D01*
X49242600Y-119119843D01*
X49317289Y-119112487D01*
X49389108Y-119090701D01*
X49455296Y-119055322D01*
X49513311Y-119007711D01*
X49560922Y-118949696D01*
X49596301Y-118883508D01*
X49618087Y-118811689D01*
X49625443Y-118737000D01*
X49623600Y-118355250D01*
X49528350Y-118260000D01*
X48765600Y-118260000D01*
X48719600Y-118260000D01*
X48699600Y-118260000D01*
X48699600Y-118214000D01*
X48719600Y-118214000D01*
X48719600Y-117451250D01*
X48765600Y-117451250D01*
X48765600Y-118214000D01*
X49528350Y-118214000D01*
X49623600Y-118118750D01*
X49625443Y-117737000D01*
X49618087Y-117662311D01*
X49596301Y-117590492D01*
X49560922Y-117524304D01*
X49513311Y-117466289D01*
X49455296Y-117418678D01*
X49389108Y-117383299D01*
X49317289Y-117361513D01*
X49242600Y-117354157D01*
X48860850Y-117356000D01*
X48765600Y-117451250D01*
X48719600Y-117451250D01*
X48624350Y-117356000D01*
X48242600Y-117354157D01*
X48167911Y-117361513D01*
X48096092Y-117383299D01*
X48031000Y-117418092D01*
X48031000Y-117023908D01*
X48096092Y-117058701D01*
X48167911Y-117080487D01*
X48242600Y-117087843D01*
X49242600Y-117087843D01*
X49317289Y-117080487D01*
X49389108Y-117058701D01*
X49455296Y-117023322D01*
X49513311Y-116975711D01*
X49560922Y-116917696D01*
X49596301Y-116851508D01*
X49618087Y-116779689D01*
X49625443Y-116705000D01*
X49625443Y-116037748D01*
X50567157Y-115096035D01*
X50567157Y-115616000D01*
G37*
X50567157Y-115616000D02*
X50574513Y-115690689D01*
X50596299Y-115762508D01*
X50631678Y-115828696D01*
X50679289Y-115886711D01*
X50737304Y-115934322D01*
X50803492Y-115969701D01*
X50875311Y-115991487D01*
X50950000Y-115998843D01*
X52366907Y-115998843D01*
X52371681Y-116022842D01*
X52430555Y-116164975D01*
X52516026Y-116292892D01*
X52542157Y-116319023D01*
X52542157Y-117540590D01*
X52209056Y-117540590D01*
X52184210Y-117538143D01*
X52159364Y-117540590D01*
X52159356Y-117540590D01*
X52085017Y-117547912D01*
X51989635Y-117576845D01*
X51901731Y-117623831D01*
X51824683Y-117687063D01*
X51808839Y-117706369D01*
X51526451Y-117988757D01*
X51165450Y-117988757D01*
X51048085Y-118000316D01*
X50935230Y-118034551D01*
X50831223Y-118090144D01*
X50740060Y-118164960D01*
X50665244Y-118256123D01*
X50609651Y-118360130D01*
X50575416Y-118472985D01*
X50563857Y-118590350D01*
X50563857Y-119102850D01*
X50575416Y-119220215D01*
X50609651Y-119333070D01*
X50665244Y-119437077D01*
X50722957Y-119507400D01*
X48031000Y-119507400D01*
X48031000Y-119055908D01*
X48096092Y-119090701D01*
X48167911Y-119112487D01*
X48242600Y-119119843D01*
X48624350Y-119118000D01*
X48719600Y-119022750D01*
X48719600Y-118260000D01*
X48765600Y-118260000D01*
X48765600Y-119022750D01*
X48860850Y-119118000D01*
X49242600Y-119119843D01*
X49317289Y-119112487D01*
X49389108Y-119090701D01*
X49455296Y-119055322D01*
X49513311Y-119007711D01*
X49560922Y-118949696D01*
X49596301Y-118883508D01*
X49618087Y-118811689D01*
X49625443Y-118737000D01*
X49623600Y-118355250D01*
X49528350Y-118260000D01*
X48765600Y-118260000D01*
X48719600Y-118260000D01*
X48699600Y-118260000D01*
X48699600Y-118214000D01*
X48719600Y-118214000D01*
X48719600Y-117451250D01*
X48765600Y-117451250D01*
X48765600Y-118214000D01*
X49528350Y-118214000D01*
X49623600Y-118118750D01*
X49625443Y-117737000D01*
X49618087Y-117662311D01*
X49596301Y-117590492D01*
X49560922Y-117524304D01*
X49513311Y-117466289D01*
X49455296Y-117418678D01*
X49389108Y-117383299D01*
X49317289Y-117361513D01*
X49242600Y-117354157D01*
X48860850Y-117356000D01*
X48765600Y-117451250D01*
X48719600Y-117451250D01*
X48624350Y-117356000D01*
X48242600Y-117354157D01*
X48167911Y-117361513D01*
X48096092Y-117383299D01*
X48031000Y-117418092D01*
X48031000Y-117023908D01*
X48096092Y-117058701D01*
X48167911Y-117080487D01*
X48242600Y-117087843D01*
X49242600Y-117087843D01*
X49317289Y-117080487D01*
X49389108Y-117058701D01*
X49455296Y-117023322D01*
X49513311Y-116975711D01*
X49560922Y-116917696D01*
X49596301Y-116851508D01*
X49618087Y-116779689D01*
X49625443Y-116705000D01*
X49625443Y-116037748D01*
X50567157Y-115096035D01*
X50567157Y-115616000D01*
G36*
X67307600Y-113489600D02*
G01*
X67327600Y-113489600D01*
X67327600Y-113535600D01*
X67307600Y-113535600D01*
X67307600Y-114273350D01*
X67402850Y-114368600D01*
X67722100Y-114370443D01*
X67796789Y-114363087D01*
X67868608Y-114341301D01*
X67934796Y-114305922D01*
X67992811Y-114258311D01*
X68040422Y-114200296D01*
X68075801Y-114134108D01*
X68097587Y-114062289D01*
X68100894Y-114028710D01*
X68140644Y-114103077D01*
X68215460Y-114194240D01*
X68228600Y-114205024D01*
X68228601Y-114465566D01*
X68198492Y-114474699D01*
X68132304Y-114510078D01*
X68074289Y-114557689D01*
X68026678Y-114615704D01*
X67991299Y-114681892D01*
X67969513Y-114753711D01*
X67962157Y-114828400D01*
X67962157Y-115478400D01*
X67969513Y-115553089D01*
X67991299Y-115624908D01*
X67993166Y-115628400D01*
X67991299Y-115631892D01*
X67969513Y-115703711D01*
X67962157Y-115778400D01*
X67964000Y-115985150D01*
X68059250Y-116080400D01*
X68852000Y-116080400D01*
X68852000Y-116060400D01*
X68898000Y-116060400D01*
X68898000Y-116080400D01*
X68918000Y-116080400D01*
X68918000Y-116126400D01*
X68898000Y-116126400D01*
X68898000Y-116146400D01*
X68852000Y-116146400D01*
X68852000Y-116126400D01*
X68059250Y-116126400D01*
X67964000Y-116221650D01*
X67962157Y-116428400D01*
X67969513Y-116503089D01*
X67991299Y-116574908D01*
X67993166Y-116578400D01*
X67991299Y-116581892D01*
X67969513Y-116653711D01*
X67962157Y-116728400D01*
X67962157Y-117378400D01*
X67969513Y-117453089D01*
X67991299Y-117524908D01*
X68026678Y-117591096D01*
X68074289Y-117649111D01*
X68132304Y-117696722D01*
X68198492Y-117732101D01*
X68270311Y-117753887D01*
X68345000Y-117761243D01*
X69258035Y-117761243D01*
X69362193Y-117804387D01*
X69513080Y-117834400D01*
X69666924Y-117834400D01*
X69817811Y-117804387D01*
X69959944Y-117745513D01*
X70087861Y-117660042D01*
X70129800Y-117618103D01*
X70129800Y-119507400D01*
X69640437Y-119507400D01*
X69639000Y-119053750D01*
X69543750Y-118958500D01*
X68793500Y-118958500D01*
X68793500Y-118978500D01*
X68747500Y-118978500D01*
X68747500Y-118958500D01*
X67997250Y-118958500D01*
X67902000Y-119053750D01*
X67900563Y-119507400D01*
X67754452Y-119507400D01*
X67765843Y-119391750D01*
X67765843Y-118479250D01*
X67753803Y-118357008D01*
X67718146Y-118239463D01*
X67716028Y-118235500D01*
X67900157Y-118235500D01*
X67902000Y-118817250D01*
X67997250Y-118912500D01*
X68747500Y-118912500D01*
X68747500Y-117949750D01*
X68793500Y-117949750D01*
X68793500Y-118912500D01*
X69543750Y-118912500D01*
X69639000Y-118817250D01*
X69640843Y-118235500D01*
X69633487Y-118160811D01*
X69611701Y-118088992D01*
X69576322Y-118022804D01*
X69528711Y-117964789D01*
X69470696Y-117917178D01*
X69404508Y-117881799D01*
X69332689Y-117860013D01*
X69258000Y-117852657D01*
X68888750Y-117854500D01*
X68793500Y-117949750D01*
X68747500Y-117949750D01*
X68652250Y-117854500D01*
X68283000Y-117852657D01*
X68208311Y-117860013D01*
X68136492Y-117881799D01*
X68070304Y-117917178D01*
X68012289Y-117964789D01*
X67964678Y-118022804D01*
X67929299Y-118088992D01*
X67907513Y-118160811D01*
X67900157Y-118235500D01*
X67716028Y-118235500D01*
X67660243Y-118131134D01*
X67582318Y-118036182D01*
X67487366Y-117958257D01*
X67379037Y-117900354D01*
X67261492Y-117864697D01*
X67181000Y-117856769D01*
X67181000Y-117761243D01*
X67205000Y-117761243D01*
X67279689Y-117753887D01*
X67351508Y-117732101D01*
X67417696Y-117696722D01*
X67475711Y-117649111D01*
X67523322Y-117591096D01*
X67558701Y-117524908D01*
X67580487Y-117453089D01*
X67587843Y-117378400D01*
X67587843Y-116728400D01*
X67580487Y-116653711D01*
X67558701Y-116581892D01*
X67523322Y-116515704D01*
X67475711Y-116457689D01*
X67417696Y-116410078D01*
X67351508Y-116374699D01*
X67279689Y-116352913D01*
X67205000Y-116345557D01*
X66682749Y-116345557D01*
X66201976Y-115864785D01*
X66199069Y-115861243D01*
X67205000Y-115861243D01*
X67279689Y-115853887D01*
X67351508Y-115832101D01*
X67417696Y-115796722D01*
X67475711Y-115749111D01*
X67523322Y-115691096D01*
X67558701Y-115624908D01*
X67580487Y-115553089D01*
X67587843Y-115478400D01*
X67587843Y-114828400D01*
X67580487Y-114753711D01*
X67558701Y-114681892D01*
X67523322Y-114615704D01*
X67475711Y-114557689D01*
X67417696Y-114510078D01*
X67351508Y-114474699D01*
X67279689Y-114452913D01*
X67205000Y-114445557D01*
X66783522Y-114445557D01*
X66681898Y-114414730D01*
X66589198Y-114405600D01*
X66589190Y-114405600D01*
X66558200Y-114402548D01*
X66550705Y-114403286D01*
X66558015Y-114395976D01*
X66577327Y-114380127D01*
X66637060Y-114307342D01*
X66700592Y-114341301D01*
X66772411Y-114363087D01*
X66847100Y-114370443D01*
X67166350Y-114368600D01*
X67261600Y-114273350D01*
X67261600Y-113535600D01*
X67241600Y-113535600D01*
X67241600Y-113489600D01*
X67261600Y-113489600D01*
X67261600Y-113469600D01*
X67307600Y-113469600D01*
X67307600Y-113489600D01*
G37*
X67307600Y-113489600D02*
X67327600Y-113489600D01*
X67327600Y-113535600D01*
X67307600Y-113535600D01*
X67307600Y-114273350D01*
X67402850Y-114368600D01*
X67722100Y-114370443D01*
X67796789Y-114363087D01*
X67868608Y-114341301D01*
X67934796Y-114305922D01*
X67992811Y-114258311D01*
X68040422Y-114200296D01*
X68075801Y-114134108D01*
X68097587Y-114062289D01*
X68100894Y-114028710D01*
X68140644Y-114103077D01*
X68215460Y-114194240D01*
X68228600Y-114205024D01*
X68228601Y-114465566D01*
X68198492Y-114474699D01*
X68132304Y-114510078D01*
X68074289Y-114557689D01*
X68026678Y-114615704D01*
X67991299Y-114681892D01*
X67969513Y-114753711D01*
X67962157Y-114828400D01*
X67962157Y-115478400D01*
X67969513Y-115553089D01*
X67991299Y-115624908D01*
X67993166Y-115628400D01*
X67991299Y-115631892D01*
X67969513Y-115703711D01*
X67962157Y-115778400D01*
X67964000Y-115985150D01*
X68059250Y-116080400D01*
X68852000Y-116080400D01*
X68852000Y-116060400D01*
X68898000Y-116060400D01*
X68898000Y-116080400D01*
X68918000Y-116080400D01*
X68918000Y-116126400D01*
X68898000Y-116126400D01*
X68898000Y-116146400D01*
X68852000Y-116146400D01*
X68852000Y-116126400D01*
X68059250Y-116126400D01*
X67964000Y-116221650D01*
X67962157Y-116428400D01*
X67969513Y-116503089D01*
X67991299Y-116574908D01*
X67993166Y-116578400D01*
X67991299Y-116581892D01*
X67969513Y-116653711D01*
X67962157Y-116728400D01*
X67962157Y-117378400D01*
X67969513Y-117453089D01*
X67991299Y-117524908D01*
X68026678Y-117591096D01*
X68074289Y-117649111D01*
X68132304Y-117696722D01*
X68198492Y-117732101D01*
X68270311Y-117753887D01*
X68345000Y-117761243D01*
X69258035Y-117761243D01*
X69362193Y-117804387D01*
X69513080Y-117834400D01*
X69666924Y-117834400D01*
X69817811Y-117804387D01*
X69959944Y-117745513D01*
X70087861Y-117660042D01*
X70129800Y-117618103D01*
X70129800Y-119507400D01*
X69640437Y-119507400D01*
X69639000Y-119053750D01*
X69543750Y-118958500D01*
X68793500Y-118958500D01*
X68793500Y-118978500D01*
X68747500Y-118978500D01*
X68747500Y-118958500D01*
X67997250Y-118958500D01*
X67902000Y-119053750D01*
X67900563Y-119507400D01*
X67754452Y-119507400D01*
X67765843Y-119391750D01*
X67765843Y-118479250D01*
X67753803Y-118357008D01*
X67718146Y-118239463D01*
X67716028Y-118235500D01*
X67900157Y-118235500D01*
X67902000Y-118817250D01*
X67997250Y-118912500D01*
X68747500Y-118912500D01*
X68747500Y-117949750D01*
X68793500Y-117949750D01*
X68793500Y-118912500D01*
X69543750Y-118912500D01*
X69639000Y-118817250D01*
X69640843Y-118235500D01*
X69633487Y-118160811D01*
X69611701Y-118088992D01*
X69576322Y-118022804D01*
X69528711Y-117964789D01*
X69470696Y-117917178D01*
X69404508Y-117881799D01*
X69332689Y-117860013D01*
X69258000Y-117852657D01*
X68888750Y-117854500D01*
X68793500Y-117949750D01*
X68747500Y-117949750D01*
X68652250Y-117854500D01*
X68283000Y-117852657D01*
X68208311Y-117860013D01*
X68136492Y-117881799D01*
X68070304Y-117917178D01*
X68012289Y-117964789D01*
X67964678Y-118022804D01*
X67929299Y-118088992D01*
X67907513Y-118160811D01*
X67900157Y-118235500D01*
X67716028Y-118235500D01*
X67660243Y-118131134D01*
X67582318Y-118036182D01*
X67487366Y-117958257D01*
X67379037Y-117900354D01*
X67261492Y-117864697D01*
X67181000Y-117856769D01*
X67181000Y-117761243D01*
X67205000Y-117761243D01*
X67279689Y-117753887D01*
X67351508Y-117732101D01*
X67417696Y-117696722D01*
X67475711Y-117649111D01*
X67523322Y-117591096D01*
X67558701Y-117524908D01*
X67580487Y-117453089D01*
X67587843Y-117378400D01*
X67587843Y-116728400D01*
X67580487Y-116653711D01*
X67558701Y-116581892D01*
X67523322Y-116515704D01*
X67475711Y-116457689D01*
X67417696Y-116410078D01*
X67351508Y-116374699D01*
X67279689Y-116352913D01*
X67205000Y-116345557D01*
X66682749Y-116345557D01*
X66201976Y-115864785D01*
X66199069Y-115861243D01*
X67205000Y-115861243D01*
X67279689Y-115853887D01*
X67351508Y-115832101D01*
X67417696Y-115796722D01*
X67475711Y-115749111D01*
X67523322Y-115691096D01*
X67558701Y-115624908D01*
X67580487Y-115553089D01*
X67587843Y-115478400D01*
X67587843Y-114828400D01*
X67580487Y-114753711D01*
X67558701Y-114681892D01*
X67523322Y-114615704D01*
X67475711Y-114557689D01*
X67417696Y-114510078D01*
X67351508Y-114474699D01*
X67279689Y-114452913D01*
X67205000Y-114445557D01*
X66783522Y-114445557D01*
X66681898Y-114414730D01*
X66589198Y-114405600D01*
X66589190Y-114405600D01*
X66558200Y-114402548D01*
X66550705Y-114403286D01*
X66558015Y-114395976D01*
X66577327Y-114380127D01*
X66637060Y-114307342D01*
X66700592Y-114341301D01*
X66772411Y-114363087D01*
X66847100Y-114370443D01*
X67166350Y-114368600D01*
X67261600Y-114273350D01*
X67261600Y-113535600D01*
X67241600Y-113535600D01*
X67241600Y-113489600D01*
X67261600Y-113489600D01*
X67261600Y-113469600D01*
X67307600Y-113469600D01*
X67307600Y-113489600D01*
G36*
X54823000Y-116768000D02*
G01*
X54843000Y-116768000D01*
X54843000Y-116814000D01*
X54823000Y-116814000D01*
X54823000Y-117876750D01*
X54918250Y-117972000D01*
X55075000Y-117973843D01*
X55149689Y-117966487D01*
X55200000Y-117951225D01*
X55250311Y-117966487D01*
X55325000Y-117973843D01*
X55875000Y-117973843D01*
X55949689Y-117966487D01*
X56000000Y-117951225D01*
X56050311Y-117966487D01*
X56125000Y-117973843D01*
X56281750Y-117972000D01*
X56377000Y-117876750D01*
X56377000Y-116814000D01*
X56357000Y-116814000D01*
X56357000Y-116768000D01*
X56377000Y-116768000D01*
X56377000Y-116748000D01*
X56423000Y-116748000D01*
X56423000Y-116768000D01*
X56443000Y-116768000D01*
X56443000Y-116814000D01*
X56423000Y-116814000D01*
X56423000Y-117876750D01*
X56518250Y-117972000D01*
X56675000Y-117973843D01*
X56749689Y-117966487D01*
X56800000Y-117951225D01*
X56850311Y-117966487D01*
X56925000Y-117973843D01*
X57475000Y-117973843D01*
X57549689Y-117966487D01*
X57593438Y-117953216D01*
X57640474Y-118010529D01*
X57659780Y-118026373D01*
X58083626Y-118450220D01*
X58099471Y-118469527D01*
X58176519Y-118532759D01*
X58200359Y-118545502D01*
X58191013Y-118576311D01*
X58183657Y-118651000D01*
X58185500Y-119007750D01*
X58280750Y-119103000D01*
X58981000Y-119103000D01*
X58981000Y-119083000D01*
X59027000Y-119083000D01*
X59027000Y-119103000D01*
X59047000Y-119103000D01*
X59047000Y-119149000D01*
X59027000Y-119149000D01*
X59027000Y-119169000D01*
X58981000Y-119169000D01*
X58981000Y-119149000D01*
X58280750Y-119149000D01*
X58185500Y-119244250D01*
X58184141Y-119507400D01*
X56878799Y-119507400D01*
X56899801Y-119468108D01*
X56921587Y-119396289D01*
X56928943Y-119321600D01*
X56927100Y-118964850D01*
X56831850Y-118869600D01*
X56131600Y-118869600D01*
X56131600Y-118889600D01*
X56085600Y-118889600D01*
X56085600Y-118869600D01*
X56065600Y-118869600D01*
X56065600Y-118823600D01*
X56085600Y-118823600D01*
X56085600Y-118085850D01*
X56131600Y-118085850D01*
X56131600Y-118823600D01*
X56831850Y-118823600D01*
X56927100Y-118728350D01*
X56928943Y-118371600D01*
X56921587Y-118296911D01*
X56899801Y-118225092D01*
X56864422Y-118158904D01*
X56816811Y-118100889D01*
X56758796Y-118053278D01*
X56692608Y-118017899D01*
X56620789Y-117996113D01*
X56546100Y-117988757D01*
X56226850Y-117990600D01*
X56131600Y-118085850D01*
X56085600Y-118085850D01*
X55990350Y-117990600D01*
X55671100Y-117988757D01*
X55596411Y-117996113D01*
X55524592Y-118017899D01*
X55458404Y-118053278D01*
X55400389Y-118100889D01*
X55352778Y-118158904D01*
X55317399Y-118225092D01*
X55295613Y-118296911D01*
X55292306Y-118330490D01*
X55252556Y-118256123D01*
X55177740Y-118164960D01*
X55086577Y-118090144D01*
X54982570Y-118034551D01*
X54869715Y-118000316D01*
X54752350Y-117988757D01*
X54377395Y-117988757D01*
X54406563Y-117953216D01*
X54450311Y-117966487D01*
X54525000Y-117973843D01*
X54681750Y-117972000D01*
X54777000Y-117876750D01*
X54777000Y-116814000D01*
X54757000Y-116814000D01*
X54757000Y-116768000D01*
X54777000Y-116768000D01*
X54777000Y-116748000D01*
X54823000Y-116748000D01*
X54823000Y-116768000D01*
G37*
X54823000Y-116768000D02*
X54843000Y-116768000D01*
X54843000Y-116814000D01*
X54823000Y-116814000D01*
X54823000Y-117876750D01*
X54918250Y-117972000D01*
X55075000Y-117973843D01*
X55149689Y-117966487D01*
X55200000Y-117951225D01*
X55250311Y-117966487D01*
X55325000Y-117973843D01*
X55875000Y-117973843D01*
X55949689Y-117966487D01*
X56000000Y-117951225D01*
X56050311Y-117966487D01*
X56125000Y-117973843D01*
X56281750Y-117972000D01*
X56377000Y-117876750D01*
X56377000Y-116814000D01*
X56357000Y-116814000D01*
X56357000Y-116768000D01*
X56377000Y-116768000D01*
X56377000Y-116748000D01*
X56423000Y-116748000D01*
X56423000Y-116768000D01*
X56443000Y-116768000D01*
X56443000Y-116814000D01*
X56423000Y-116814000D01*
X56423000Y-117876750D01*
X56518250Y-117972000D01*
X56675000Y-117973843D01*
X56749689Y-117966487D01*
X56800000Y-117951225D01*
X56850311Y-117966487D01*
X56925000Y-117973843D01*
X57475000Y-117973843D01*
X57549689Y-117966487D01*
X57593438Y-117953216D01*
X57640474Y-118010529D01*
X57659780Y-118026373D01*
X58083626Y-118450220D01*
X58099471Y-118469527D01*
X58176519Y-118532759D01*
X58200359Y-118545502D01*
X58191013Y-118576311D01*
X58183657Y-118651000D01*
X58185500Y-119007750D01*
X58280750Y-119103000D01*
X58981000Y-119103000D01*
X58981000Y-119083000D01*
X59027000Y-119083000D01*
X59027000Y-119103000D01*
X59047000Y-119103000D01*
X59047000Y-119149000D01*
X59027000Y-119149000D01*
X59027000Y-119169000D01*
X58981000Y-119169000D01*
X58981000Y-119149000D01*
X58280750Y-119149000D01*
X58185500Y-119244250D01*
X58184141Y-119507400D01*
X56878799Y-119507400D01*
X56899801Y-119468108D01*
X56921587Y-119396289D01*
X56928943Y-119321600D01*
X56927100Y-118964850D01*
X56831850Y-118869600D01*
X56131600Y-118869600D01*
X56131600Y-118889600D01*
X56085600Y-118889600D01*
X56085600Y-118869600D01*
X56065600Y-118869600D01*
X56065600Y-118823600D01*
X56085600Y-118823600D01*
X56085600Y-118085850D01*
X56131600Y-118085850D01*
X56131600Y-118823600D01*
X56831850Y-118823600D01*
X56927100Y-118728350D01*
X56928943Y-118371600D01*
X56921587Y-118296911D01*
X56899801Y-118225092D01*
X56864422Y-118158904D01*
X56816811Y-118100889D01*
X56758796Y-118053278D01*
X56692608Y-118017899D01*
X56620789Y-117996113D01*
X56546100Y-117988757D01*
X56226850Y-117990600D01*
X56131600Y-118085850D01*
X56085600Y-118085850D01*
X55990350Y-117990600D01*
X55671100Y-117988757D01*
X55596411Y-117996113D01*
X55524592Y-118017899D01*
X55458404Y-118053278D01*
X55400389Y-118100889D01*
X55352778Y-118158904D01*
X55317399Y-118225092D01*
X55295613Y-118296911D01*
X55292306Y-118330490D01*
X55252556Y-118256123D01*
X55177740Y-118164960D01*
X55086577Y-118090144D01*
X54982570Y-118034551D01*
X54869715Y-118000316D01*
X54752350Y-117988757D01*
X54377395Y-117988757D01*
X54406563Y-117953216D01*
X54450311Y-117966487D01*
X54525000Y-117973843D01*
X54681750Y-117972000D01*
X54777000Y-117876750D01*
X54777000Y-116814000D01*
X54757000Y-116814000D01*
X54757000Y-116768000D01*
X54777000Y-116768000D01*
X54777000Y-116748000D01*
X54823000Y-116748000D01*
X54823000Y-116768000D01*
G36*
X53650311Y-109466487D02*
G01*
X53725000Y-109473843D01*
X53876112Y-109473843D01*
X53875439Y-109477226D01*
X53875439Y-109631070D01*
X53905452Y-109781957D01*
X53964326Y-109924090D01*
X54049797Y-110052007D01*
X54158580Y-110160790D01*
X54286497Y-110246261D01*
X54428630Y-110305135D01*
X54579517Y-110335148D01*
X54733361Y-110335148D01*
X54884248Y-110305135D01*
X55026381Y-110246261D01*
X55154298Y-110160790D01*
X55263081Y-110052007D01*
X55348552Y-109924090D01*
X55381317Y-109844988D01*
X55408413Y-109981209D01*
X55467287Y-110123342D01*
X55552758Y-110251259D01*
X55661541Y-110360042D01*
X55789458Y-110445513D01*
X55931591Y-110504387D01*
X56082478Y-110534400D01*
X56224808Y-110534400D01*
X56458229Y-110767821D01*
X56474074Y-110787128D01*
X56551122Y-110850360D01*
X56622046Y-110888270D01*
X56639026Y-110897346D01*
X56734407Y-110926279D01*
X56744295Y-110927253D01*
X56808747Y-110933601D01*
X56808754Y-110933601D01*
X56833600Y-110936048D01*
X56858446Y-110933601D01*
X57549355Y-110933601D01*
X57574201Y-110936048D01*
X57599047Y-110933601D01*
X57599055Y-110933601D01*
X57673394Y-110926279D01*
X57768776Y-110897346D01*
X57856680Y-110850360D01*
X57933728Y-110787128D01*
X57949577Y-110767816D01*
X58340220Y-110377174D01*
X58359527Y-110361329D01*
X58422759Y-110284281D01*
X58469745Y-110196377D01*
X58498678Y-110100995D01*
X58506000Y-110026656D01*
X58508448Y-110001802D01*
X58506000Y-109976948D01*
X58506000Y-109471972D01*
X58525000Y-109473843D01*
X59067157Y-109473843D01*
X59067157Y-110016000D01*
X59074513Y-110090689D01*
X59086788Y-110131153D01*
X59025473Y-110181473D01*
X59009630Y-110200778D01*
X55428430Y-113781979D01*
X55415102Y-113798219D01*
X55305941Y-113871158D01*
X55197158Y-113979941D01*
X55111687Y-114107858D01*
X55052813Y-114249991D01*
X55022800Y-114400878D01*
X55022800Y-114554722D01*
X55052813Y-114705609D01*
X55054627Y-114709989D01*
X53829567Y-114709989D01*
X53753148Y-114647273D01*
X53665244Y-114600287D01*
X53569862Y-114571354D01*
X53495523Y-114564032D01*
X53495515Y-114564032D01*
X53470669Y-114561585D01*
X53445823Y-114564032D01*
X52932843Y-114564032D01*
X52932843Y-114266000D01*
X52925487Y-114191311D01*
X52910225Y-114141000D01*
X52925487Y-114090689D01*
X52932843Y-114016000D01*
X52932843Y-113466000D01*
X52929322Y-113430248D01*
X53073080Y-113458843D01*
X53226924Y-113458843D01*
X53377811Y-113428830D01*
X53519944Y-113369956D01*
X53647861Y-113284485D01*
X53756644Y-113175702D01*
X53842115Y-113047785D01*
X53900989Y-112905652D01*
X53931002Y-112754765D01*
X53931002Y-112600921D01*
X53900989Y-112450034D01*
X53842115Y-112307901D01*
X53756644Y-112179984D01*
X53647861Y-112071201D01*
X53519944Y-111985730D01*
X53491443Y-111973925D01*
X53542409Y-111963787D01*
X53684542Y-111904913D01*
X53812459Y-111819442D01*
X53921242Y-111710659D01*
X54006713Y-111582742D01*
X54065587Y-111440609D01*
X54095600Y-111289722D01*
X54095600Y-111135878D01*
X54065587Y-110984991D01*
X54006713Y-110842858D01*
X53921242Y-110714941D01*
X53812459Y-110606158D01*
X53684542Y-110520687D01*
X53542409Y-110461813D01*
X53391522Y-110431800D01*
X53237678Y-110431800D01*
X53086791Y-110461813D01*
X52944658Y-110520687D01*
X52932843Y-110528581D01*
X52932843Y-110266000D01*
X52925487Y-110191311D01*
X52910225Y-110141000D01*
X52925487Y-110090689D01*
X52932843Y-110016000D01*
X52932843Y-109670520D01*
X52936706Y-109666657D01*
X53022177Y-109538740D01*
X53049058Y-109473843D01*
X53475000Y-109473843D01*
X53549689Y-109466487D01*
X53600000Y-109451225D01*
X53650311Y-109466487D01*
G37*
X53650311Y-109466487D02*
X53725000Y-109473843D01*
X53876112Y-109473843D01*
X53875439Y-109477226D01*
X53875439Y-109631070D01*
X53905452Y-109781957D01*
X53964326Y-109924090D01*
X54049797Y-110052007D01*
X54158580Y-110160790D01*
X54286497Y-110246261D01*
X54428630Y-110305135D01*
X54579517Y-110335148D01*
X54733361Y-110335148D01*
X54884248Y-110305135D01*
X55026381Y-110246261D01*
X55154298Y-110160790D01*
X55263081Y-110052007D01*
X55348552Y-109924090D01*
X55381317Y-109844988D01*
X55408413Y-109981209D01*
X55467287Y-110123342D01*
X55552758Y-110251259D01*
X55661541Y-110360042D01*
X55789458Y-110445513D01*
X55931591Y-110504387D01*
X56082478Y-110534400D01*
X56224808Y-110534400D01*
X56458229Y-110767821D01*
X56474074Y-110787128D01*
X56551122Y-110850360D01*
X56622046Y-110888270D01*
X56639026Y-110897346D01*
X56734407Y-110926279D01*
X56744295Y-110927253D01*
X56808747Y-110933601D01*
X56808754Y-110933601D01*
X56833600Y-110936048D01*
X56858446Y-110933601D01*
X57549355Y-110933601D01*
X57574201Y-110936048D01*
X57599047Y-110933601D01*
X57599055Y-110933601D01*
X57673394Y-110926279D01*
X57768776Y-110897346D01*
X57856680Y-110850360D01*
X57933728Y-110787128D01*
X57949577Y-110767816D01*
X58340220Y-110377174D01*
X58359527Y-110361329D01*
X58422759Y-110284281D01*
X58469745Y-110196377D01*
X58498678Y-110100995D01*
X58506000Y-110026656D01*
X58508448Y-110001802D01*
X58506000Y-109976948D01*
X58506000Y-109471972D01*
X58525000Y-109473843D01*
X59067157Y-109473843D01*
X59067157Y-110016000D01*
X59074513Y-110090689D01*
X59086788Y-110131153D01*
X59025473Y-110181473D01*
X59009630Y-110200778D01*
X55428430Y-113781979D01*
X55415102Y-113798219D01*
X55305941Y-113871158D01*
X55197158Y-113979941D01*
X55111687Y-114107858D01*
X55052813Y-114249991D01*
X55022800Y-114400878D01*
X55022800Y-114554722D01*
X55052813Y-114705609D01*
X55054627Y-114709989D01*
X53829567Y-114709989D01*
X53753148Y-114647273D01*
X53665244Y-114600287D01*
X53569862Y-114571354D01*
X53495523Y-114564032D01*
X53495515Y-114564032D01*
X53470669Y-114561585D01*
X53445823Y-114564032D01*
X52932843Y-114564032D01*
X52932843Y-114266000D01*
X52925487Y-114191311D01*
X52910225Y-114141000D01*
X52925487Y-114090689D01*
X52932843Y-114016000D01*
X52932843Y-113466000D01*
X52929322Y-113430248D01*
X53073080Y-113458843D01*
X53226924Y-113458843D01*
X53377811Y-113428830D01*
X53519944Y-113369956D01*
X53647861Y-113284485D01*
X53756644Y-113175702D01*
X53842115Y-113047785D01*
X53900989Y-112905652D01*
X53931002Y-112754765D01*
X53931002Y-112600921D01*
X53900989Y-112450034D01*
X53842115Y-112307901D01*
X53756644Y-112179984D01*
X53647861Y-112071201D01*
X53519944Y-111985730D01*
X53491443Y-111973925D01*
X53542409Y-111963787D01*
X53684542Y-111904913D01*
X53812459Y-111819442D01*
X53921242Y-111710659D01*
X54006713Y-111582742D01*
X54065587Y-111440609D01*
X54095600Y-111289722D01*
X54095600Y-111135878D01*
X54065587Y-110984991D01*
X54006713Y-110842858D01*
X53921242Y-110714941D01*
X53812459Y-110606158D01*
X53684542Y-110520687D01*
X53542409Y-110461813D01*
X53391522Y-110431800D01*
X53237678Y-110431800D01*
X53086791Y-110461813D01*
X52944658Y-110520687D01*
X52932843Y-110528581D01*
X52932843Y-110266000D01*
X52925487Y-110191311D01*
X52910225Y-110141000D01*
X52925487Y-110090689D01*
X52932843Y-110016000D01*
X52932843Y-109670520D01*
X52936706Y-109666657D01*
X53022177Y-109538740D01*
X53049058Y-109473843D01*
X53475000Y-109473843D01*
X53549689Y-109466487D01*
X53600000Y-109451225D01*
X53650311Y-109466487D01*
G36*
X62273000Y-112519843D02*
G01*
X64401503Y-112519843D01*
X64419299Y-112578508D01*
X64454678Y-112644696D01*
X64476662Y-112671484D01*
X64412504Y-112705778D01*
X64354489Y-112753389D01*
X64338118Y-112773337D01*
X64321911Y-112753589D01*
X64263896Y-112705978D01*
X64197708Y-112670599D01*
X64125889Y-112648813D01*
X64051200Y-112641457D01*
X63694450Y-112643300D01*
X63599200Y-112738550D01*
X63599200Y-113438800D01*
X64336950Y-113438800D01*
X64338300Y-113437450D01*
X64339450Y-113438600D01*
X65077200Y-113438600D01*
X65077200Y-113418600D01*
X65123200Y-113418600D01*
X65123200Y-113438600D01*
X65143200Y-113438600D01*
X65143200Y-113484600D01*
X65123200Y-113484600D01*
X65123200Y-113504600D01*
X65077200Y-113504600D01*
X65077200Y-113484600D01*
X64339450Y-113484600D01*
X64338100Y-113485950D01*
X64336950Y-113484800D01*
X63599200Y-113484800D01*
X63599200Y-113504800D01*
X63553200Y-113504800D01*
X63553200Y-113484800D01*
X63533200Y-113484800D01*
X63533200Y-113438800D01*
X63553200Y-113438800D01*
X63553200Y-112738550D01*
X63457950Y-112643300D01*
X63101200Y-112641457D01*
X63026511Y-112648813D01*
X62954692Y-112670599D01*
X62888504Y-112705978D01*
X62830489Y-112753589D01*
X62782878Y-112811604D01*
X62761576Y-112851456D01*
X62733840Y-112817660D01*
X62642677Y-112742844D01*
X62538670Y-112687251D01*
X62425815Y-112653016D01*
X62308450Y-112641457D01*
X62125137Y-112641457D01*
X62249104Y-112517490D01*
X62273000Y-112519843D01*
G37*
X62273000Y-112519843D02*
X64401503Y-112519843D01*
X64419299Y-112578508D01*
X64454678Y-112644696D01*
X64476662Y-112671484D01*
X64412504Y-112705778D01*
X64354489Y-112753389D01*
X64338118Y-112773337D01*
X64321911Y-112753589D01*
X64263896Y-112705978D01*
X64197708Y-112670599D01*
X64125889Y-112648813D01*
X64051200Y-112641457D01*
X63694450Y-112643300D01*
X63599200Y-112738550D01*
X63599200Y-113438800D01*
X64336950Y-113438800D01*
X64338300Y-113437450D01*
X64339450Y-113438600D01*
X65077200Y-113438600D01*
X65077200Y-113418600D01*
X65123200Y-113418600D01*
X65123200Y-113438600D01*
X65143200Y-113438600D01*
X65143200Y-113484600D01*
X65123200Y-113484600D01*
X65123200Y-113504600D01*
X65077200Y-113504600D01*
X65077200Y-113484600D01*
X64339450Y-113484600D01*
X64338100Y-113485950D01*
X64336950Y-113484800D01*
X63599200Y-113484800D01*
X63599200Y-113504800D01*
X63553200Y-113504800D01*
X63553200Y-113484800D01*
X63533200Y-113484800D01*
X63533200Y-113438800D01*
X63553200Y-113438800D01*
X63553200Y-112738550D01*
X63457950Y-112643300D01*
X63101200Y-112641457D01*
X63026511Y-112648813D01*
X62954692Y-112670599D01*
X62888504Y-112705978D01*
X62830489Y-112753589D01*
X62782878Y-112811604D01*
X62761576Y-112851456D01*
X62733840Y-112817660D01*
X62642677Y-112742844D01*
X62538670Y-112687251D01*
X62425815Y-112653016D01*
X62308450Y-112641457D01*
X62125137Y-112641457D01*
X62249104Y-112517490D01*
X62273000Y-112519843D01*
G36*
X50106144Y-110462383D02*
G01*
X50169376Y-110539431D01*
X50188682Y-110555275D01*
X50514626Y-110881220D01*
X50530471Y-110900527D01*
X50587784Y-110947563D01*
X50574513Y-110991311D01*
X50567157Y-111066000D01*
X50567157Y-111616000D01*
X50574513Y-111690689D01*
X50589775Y-111741000D01*
X50574513Y-111791311D01*
X50567157Y-111866000D01*
X50567157Y-111902567D01*
X50087062Y-111422473D01*
X50087062Y-110426683D01*
X50106144Y-110462383D01*
G37*
X50106144Y-110462383D02*
X50169376Y-110539431D01*
X50188682Y-110555275D01*
X50514626Y-110881220D01*
X50530471Y-110900527D01*
X50587784Y-110947563D01*
X50574513Y-110991311D01*
X50567157Y-111066000D01*
X50567157Y-111616000D01*
X50574513Y-111690689D01*
X50589775Y-111741000D01*
X50574513Y-111791311D01*
X50567157Y-111866000D01*
X50567157Y-111902567D01*
X50087062Y-111422473D01*
X50087062Y-110426683D01*
X50106144Y-110462383D01*
G36*
X65644669Y-109967858D02*
G01*
X65630527Y-109982000D01*
X65644669Y-109996142D01*
X65635811Y-110005000D01*
X65560189Y-110005000D01*
X65551331Y-109996142D01*
X65565473Y-109982000D01*
X65551331Y-109967858D01*
X65560189Y-109959000D01*
X65635811Y-109959000D01*
X65644669Y-109967858D01*
G37*
X65644669Y-109967858D02*
X65630527Y-109982000D01*
X65644669Y-109996142D01*
X65635811Y-110005000D01*
X65560189Y-110005000D01*
X65551331Y-109996142D01*
X65565473Y-109982000D01*
X65551331Y-109967858D01*
X65560189Y-109959000D01*
X65635811Y-109959000D01*
X65644669Y-109967858D01*
G36*
X66944669Y-109967858D02*
G01*
X66930527Y-109982000D01*
X66944669Y-109996142D01*
X66935811Y-110005000D01*
X66860189Y-110005000D01*
X66851331Y-109996142D01*
X66865473Y-109982000D01*
X66851331Y-109967858D01*
X66860189Y-109959000D01*
X66935811Y-109959000D01*
X66944669Y-109967858D01*
G37*
X66944669Y-109967858D02*
X66930527Y-109982000D01*
X66944669Y-109996142D01*
X66935811Y-110005000D01*
X66860189Y-110005000D01*
X66851331Y-109996142D01*
X66865473Y-109982000D01*
X66851331Y-109967858D01*
X66860189Y-109959000D01*
X66935811Y-109959000D01*
X66944669Y-109967858D01*
G36*
X64521544Y-105454977D02*
G01*
X64596360Y-105546140D01*
X64687523Y-105620956D01*
X64791530Y-105676549D01*
X64834223Y-105689500D01*
X64791530Y-105702451D01*
X64687523Y-105758044D01*
X64596360Y-105832860D01*
X64521544Y-105924023D01*
X64465951Y-106028030D01*
X64431716Y-106140885D01*
X64420157Y-106258250D01*
X64420157Y-106695750D01*
X64431716Y-106813115D01*
X64465951Y-106925970D01*
X64521544Y-107029977D01*
X64596360Y-107121140D01*
X64655344Y-107169547D01*
X64626492Y-107178299D01*
X64560304Y-107213678D01*
X64502289Y-107261289D01*
X64454678Y-107319304D01*
X64419299Y-107385492D01*
X64401462Y-107444291D01*
X63491250Y-107446000D01*
X63396000Y-107541250D01*
X63396000Y-108054000D01*
X63416000Y-108054000D01*
X63416000Y-108100000D01*
X63396000Y-108100000D01*
X63396000Y-108612750D01*
X63491250Y-108708000D01*
X64391088Y-108709689D01*
X64391091Y-108714157D01*
X62273000Y-108714157D01*
X62198311Y-108721513D01*
X62126492Y-108743299D01*
X62060304Y-108778678D01*
X62002289Y-108826289D01*
X61954678Y-108884304D01*
X61919299Y-108950492D01*
X61897513Y-109022311D01*
X61890157Y-109097000D01*
X61890157Y-109449250D01*
X61881001Y-109458406D01*
X61881001Y-108327000D01*
X61890157Y-108327000D01*
X61897513Y-108401689D01*
X61919299Y-108473508D01*
X61954678Y-108539696D01*
X62002289Y-108597711D01*
X62060304Y-108645322D01*
X62126492Y-108680701D01*
X62198311Y-108702487D01*
X62273000Y-108709843D01*
X63254750Y-108708000D01*
X63350000Y-108612750D01*
X63350000Y-108100000D01*
X61987250Y-108100000D01*
X61892000Y-108195250D01*
X61890157Y-108327000D01*
X61881001Y-108327000D01*
X61881001Y-107827000D01*
X61890157Y-107827000D01*
X61892000Y-107958750D01*
X61987250Y-108054000D01*
X63350000Y-108054000D01*
X63350000Y-107541250D01*
X63254750Y-107446000D01*
X62273000Y-107444157D01*
X62198311Y-107451513D01*
X62126492Y-107473299D01*
X62060304Y-107508678D01*
X62002289Y-107556289D01*
X61954678Y-107614304D01*
X61919299Y-107680492D01*
X61897513Y-107752311D01*
X61890157Y-107827000D01*
X61881001Y-107827000D01*
X61881001Y-107414600D01*
X61910556Y-107414600D01*
X61935402Y-107417047D01*
X61960248Y-107414600D01*
X61960256Y-107414600D01*
X62034595Y-107407278D01*
X62129977Y-107378345D01*
X62217881Y-107331359D01*
X62294929Y-107268127D01*
X62310778Y-107248815D01*
X62773602Y-106785992D01*
X62798311Y-106793487D01*
X62873000Y-106800843D01*
X63873000Y-106800843D01*
X63947689Y-106793487D01*
X64019508Y-106771701D01*
X64085696Y-106736322D01*
X64143711Y-106688711D01*
X64191322Y-106630696D01*
X64226701Y-106564508D01*
X64248487Y-106492689D01*
X64255843Y-106418000D01*
X64255843Y-105418000D01*
X64254858Y-105408000D01*
X64496434Y-105408000D01*
X64521544Y-105454977D01*
G37*
X64521544Y-105454977D02*
X64596360Y-105546140D01*
X64687523Y-105620956D01*
X64791530Y-105676549D01*
X64834223Y-105689500D01*
X64791530Y-105702451D01*
X64687523Y-105758044D01*
X64596360Y-105832860D01*
X64521544Y-105924023D01*
X64465951Y-106028030D01*
X64431716Y-106140885D01*
X64420157Y-106258250D01*
X64420157Y-106695750D01*
X64431716Y-106813115D01*
X64465951Y-106925970D01*
X64521544Y-107029977D01*
X64596360Y-107121140D01*
X64655344Y-107169547D01*
X64626492Y-107178299D01*
X64560304Y-107213678D01*
X64502289Y-107261289D01*
X64454678Y-107319304D01*
X64419299Y-107385492D01*
X64401462Y-107444291D01*
X63491250Y-107446000D01*
X63396000Y-107541250D01*
X63396000Y-108054000D01*
X63416000Y-108054000D01*
X63416000Y-108100000D01*
X63396000Y-108100000D01*
X63396000Y-108612750D01*
X63491250Y-108708000D01*
X64391088Y-108709689D01*
X64391091Y-108714157D01*
X62273000Y-108714157D01*
X62198311Y-108721513D01*
X62126492Y-108743299D01*
X62060304Y-108778678D01*
X62002289Y-108826289D01*
X61954678Y-108884304D01*
X61919299Y-108950492D01*
X61897513Y-109022311D01*
X61890157Y-109097000D01*
X61890157Y-109449250D01*
X61881001Y-109458406D01*
X61881001Y-108327000D01*
X61890157Y-108327000D01*
X61897513Y-108401689D01*
X61919299Y-108473508D01*
X61954678Y-108539696D01*
X62002289Y-108597711D01*
X62060304Y-108645322D01*
X62126492Y-108680701D01*
X62198311Y-108702487D01*
X62273000Y-108709843D01*
X63254750Y-108708000D01*
X63350000Y-108612750D01*
X63350000Y-108100000D01*
X61987250Y-108100000D01*
X61892000Y-108195250D01*
X61890157Y-108327000D01*
X61881001Y-108327000D01*
X61881001Y-107827000D01*
X61890157Y-107827000D01*
X61892000Y-107958750D01*
X61987250Y-108054000D01*
X63350000Y-108054000D01*
X63350000Y-107541250D01*
X63254750Y-107446000D01*
X62273000Y-107444157D01*
X62198311Y-107451513D01*
X62126492Y-107473299D01*
X62060304Y-107508678D01*
X62002289Y-107556289D01*
X61954678Y-107614304D01*
X61919299Y-107680492D01*
X61897513Y-107752311D01*
X61890157Y-107827000D01*
X61881001Y-107827000D01*
X61881001Y-107414600D01*
X61910556Y-107414600D01*
X61935402Y-107417047D01*
X61960248Y-107414600D01*
X61960256Y-107414600D01*
X62034595Y-107407278D01*
X62129977Y-107378345D01*
X62217881Y-107331359D01*
X62294929Y-107268127D01*
X62310778Y-107248815D01*
X62773602Y-106785992D01*
X62798311Y-106793487D01*
X62873000Y-106800843D01*
X63873000Y-106800843D01*
X63947689Y-106793487D01*
X64019508Y-106771701D01*
X64085696Y-106736322D01*
X64143711Y-106688711D01*
X64191322Y-106630696D01*
X64226701Y-106564508D01*
X64248487Y-106492689D01*
X64255843Y-106418000D01*
X64255843Y-105418000D01*
X64254858Y-105408000D01*
X64496434Y-105408000D01*
X64521544Y-105454977D01*
G36*
X69146000Y-109324000D02*
G01*
X69166000Y-109324000D01*
X69166000Y-109370000D01*
X69146000Y-109370000D01*
X69146000Y-109390000D01*
X69100000Y-109390000D01*
X69100000Y-109370000D01*
X69080000Y-109370000D01*
X69080000Y-109324000D01*
X69100000Y-109324000D01*
X69100000Y-109304000D01*
X69146000Y-109304000D01*
X69146000Y-109324000D01*
G37*
X69146000Y-109324000D02*
X69166000Y-109324000D01*
X69166000Y-109370000D01*
X69146000Y-109370000D01*
X69146000Y-109390000D01*
X69100000Y-109390000D01*
X69100000Y-109370000D01*
X69080000Y-109370000D01*
X69080000Y-109324000D01*
X69100000Y-109324000D01*
X69100000Y-109304000D01*
X69146000Y-109304000D01*
X69146000Y-109324000D01*
G36*
X51244751Y-106937870D02*
G01*
X51300344Y-107041877D01*
X51375160Y-107133040D01*
X51466323Y-107207856D01*
X51570330Y-107263449D01*
X51683185Y-107297684D01*
X51800550Y-107309243D01*
X52180421Y-107309243D01*
X52169315Y-107365078D01*
X52169315Y-107518922D01*
X52199328Y-107669809D01*
X52258202Y-107811942D01*
X52343673Y-107939859D01*
X52452456Y-108048642D01*
X52542157Y-108108578D01*
X52542157Y-108414685D01*
X52406986Y-108387798D01*
X52253142Y-108387798D01*
X52102255Y-108417811D01*
X51960122Y-108476685D01*
X51832205Y-108562156D01*
X51723422Y-108670939D01*
X51637951Y-108798856D01*
X51579077Y-108940989D01*
X51550798Y-109083157D01*
X51309902Y-109083157D01*
X51309902Y-108961669D01*
X51279889Y-108810782D01*
X51221015Y-108668649D01*
X51135544Y-108540732D01*
X51026761Y-108431949D01*
X50898844Y-108346478D01*
X50756711Y-108287604D01*
X50605824Y-108257591D01*
X50451980Y-108257591D01*
X50301093Y-108287604D01*
X50158960Y-108346478D01*
X50031043Y-108431949D01*
X49922260Y-108540732D01*
X49836789Y-108668649D01*
X49777915Y-108810782D01*
X49747902Y-108961669D01*
X49747902Y-109115513D01*
X49757461Y-109163569D01*
X49600443Y-109006551D01*
X49600443Y-108645550D01*
X49588884Y-108528185D01*
X49554649Y-108415330D01*
X49499056Y-108311323D01*
X49424240Y-108220160D01*
X49333077Y-108145344D01*
X49248600Y-108100190D01*
X49248600Y-108039849D01*
X49266489Y-108038087D01*
X49338308Y-108016301D01*
X49404496Y-107980922D01*
X49462511Y-107933311D01*
X49510122Y-107875296D01*
X49545501Y-107809108D01*
X49567287Y-107737289D01*
X49574643Y-107662600D01*
X49574643Y-106995349D01*
X49612592Y-106957400D01*
X49680190Y-106957400D01*
X49725344Y-107041877D01*
X49800160Y-107133040D01*
X49891323Y-107207856D01*
X49995330Y-107263449D01*
X50108185Y-107297684D01*
X50225550Y-107309243D01*
X50663050Y-107309243D01*
X50780415Y-107297684D01*
X50893270Y-107263449D01*
X50997277Y-107207856D01*
X51088440Y-107133040D01*
X51163256Y-107041877D01*
X51218849Y-106937870D01*
X51231800Y-106895177D01*
X51244751Y-106937870D01*
G37*
X51244751Y-106937870D02*
X51300344Y-107041877D01*
X51375160Y-107133040D01*
X51466323Y-107207856D01*
X51570330Y-107263449D01*
X51683185Y-107297684D01*
X51800550Y-107309243D01*
X52180421Y-107309243D01*
X52169315Y-107365078D01*
X52169315Y-107518922D01*
X52199328Y-107669809D01*
X52258202Y-107811942D01*
X52343673Y-107939859D01*
X52452456Y-108048642D01*
X52542157Y-108108578D01*
X52542157Y-108414685D01*
X52406986Y-108387798D01*
X52253142Y-108387798D01*
X52102255Y-108417811D01*
X51960122Y-108476685D01*
X51832205Y-108562156D01*
X51723422Y-108670939D01*
X51637951Y-108798856D01*
X51579077Y-108940989D01*
X51550798Y-109083157D01*
X51309902Y-109083157D01*
X51309902Y-108961669D01*
X51279889Y-108810782D01*
X51221015Y-108668649D01*
X51135544Y-108540732D01*
X51026761Y-108431949D01*
X50898844Y-108346478D01*
X50756711Y-108287604D01*
X50605824Y-108257591D01*
X50451980Y-108257591D01*
X50301093Y-108287604D01*
X50158960Y-108346478D01*
X50031043Y-108431949D01*
X49922260Y-108540732D01*
X49836789Y-108668649D01*
X49777915Y-108810782D01*
X49747902Y-108961669D01*
X49747902Y-109115513D01*
X49757461Y-109163569D01*
X49600443Y-109006551D01*
X49600443Y-108645550D01*
X49588884Y-108528185D01*
X49554649Y-108415330D01*
X49499056Y-108311323D01*
X49424240Y-108220160D01*
X49333077Y-108145344D01*
X49248600Y-108100190D01*
X49248600Y-108039849D01*
X49266489Y-108038087D01*
X49338308Y-108016301D01*
X49404496Y-107980922D01*
X49462511Y-107933311D01*
X49510122Y-107875296D01*
X49545501Y-107809108D01*
X49567287Y-107737289D01*
X49574643Y-107662600D01*
X49574643Y-106995349D01*
X49612592Y-106957400D01*
X49680190Y-106957400D01*
X49725344Y-107041877D01*
X49800160Y-107133040D01*
X49891323Y-107207856D01*
X49995330Y-107263449D01*
X50108185Y-107297684D01*
X50225550Y-107309243D01*
X50663050Y-107309243D01*
X50780415Y-107297684D01*
X50893270Y-107263449D01*
X50997277Y-107207856D01*
X51088440Y-107133040D01*
X51163256Y-107041877D01*
X51218849Y-106937870D01*
X51231800Y-106895177D01*
X51244751Y-106937870D01*
G36*
X55623000Y-108268000D02*
G01*
X55643000Y-108268000D01*
X55643000Y-108314000D01*
X55623000Y-108314000D01*
X55623000Y-108334000D01*
X55577000Y-108334000D01*
X55577000Y-108314000D01*
X55557000Y-108314000D01*
X55557000Y-108268000D01*
X55577000Y-108268000D01*
X55577000Y-108248000D01*
X55623000Y-108248000D01*
X55623000Y-108268000D01*
G37*
X55623000Y-108268000D02*
X55643000Y-108268000D01*
X55643000Y-108314000D01*
X55623000Y-108314000D01*
X55623000Y-108334000D01*
X55577000Y-108334000D01*
X55577000Y-108314000D01*
X55557000Y-108314000D01*
X55557000Y-108268000D01*
X55577000Y-108268000D01*
X55577000Y-108248000D01*
X55623000Y-108248000D01*
X55623000Y-108268000D01*
G36*
X68045078Y-104523504D02*
G01*
X68009699Y-104589692D01*
X67987913Y-104661511D01*
X67980557Y-104736200D01*
X67982400Y-105367950D01*
X68077650Y-105463200D01*
X69090400Y-105463200D01*
X69090400Y-105443200D01*
X69136400Y-105443200D01*
X69136400Y-105463200D01*
X69156400Y-105463200D01*
X69156400Y-105509200D01*
X69136400Y-105509200D01*
X69136400Y-105529200D01*
X69090400Y-105529200D01*
X69090400Y-105509200D01*
X68077650Y-105509200D01*
X67982400Y-105604450D01*
X67980557Y-106236200D01*
X67987913Y-106310889D01*
X68009699Y-106382708D01*
X68045078Y-106448896D01*
X68092689Y-106506911D01*
X68150704Y-106554522D01*
X68216892Y-106589901D01*
X68288711Y-106611687D01*
X68363400Y-106619043D01*
X68767816Y-106617863D01*
X68530640Y-106855039D01*
X68497026Y-106882625D01*
X68469441Y-106916238D01*
X68386932Y-107016775D01*
X68335127Y-107113696D01*
X68305125Y-107169825D01*
X68254748Y-107335894D01*
X68244085Y-107444157D01*
X68094497Y-107444157D01*
X68076701Y-107385492D01*
X68041322Y-107319304D01*
X67993711Y-107261289D01*
X67935696Y-107213678D01*
X67869508Y-107178299D01*
X67797689Y-107156513D01*
X67723000Y-107149157D01*
X67704278Y-107149182D01*
X67722322Y-107127196D01*
X67757701Y-107061008D01*
X67779487Y-106989189D01*
X67786843Y-106914500D01*
X67785000Y-106595250D01*
X67689750Y-106500000D01*
X66952000Y-106500000D01*
X66952000Y-106520000D01*
X66906000Y-106520000D01*
X66906000Y-106500000D01*
X66886000Y-106500000D01*
X66886000Y-106454000D01*
X66906000Y-106454000D01*
X66906000Y-106434000D01*
X66952000Y-106434000D01*
X66952000Y-106454000D01*
X67689750Y-106454000D01*
X67785000Y-106358750D01*
X67786843Y-106039500D01*
X67779487Y-105964811D01*
X67757701Y-105892992D01*
X67722322Y-105826804D01*
X67674711Y-105768789D01*
X67616696Y-105721178D01*
X67550508Y-105685799D01*
X67478689Y-105664013D01*
X67445110Y-105660706D01*
X67519477Y-105620956D01*
X67610640Y-105546140D01*
X67685456Y-105454977D01*
X67741049Y-105350970D01*
X67775284Y-105238115D01*
X67786843Y-105120750D01*
X67786843Y-104683250D01*
X67775284Y-104565885D01*
X67746136Y-104469800D01*
X68089151Y-104469800D01*
X68045078Y-104523504D01*
G37*
X68045078Y-104523504D02*
X68009699Y-104589692D01*
X67987913Y-104661511D01*
X67980557Y-104736200D01*
X67982400Y-105367950D01*
X68077650Y-105463200D01*
X69090400Y-105463200D01*
X69090400Y-105443200D01*
X69136400Y-105443200D01*
X69136400Y-105463200D01*
X69156400Y-105463200D01*
X69156400Y-105509200D01*
X69136400Y-105509200D01*
X69136400Y-105529200D01*
X69090400Y-105529200D01*
X69090400Y-105509200D01*
X68077650Y-105509200D01*
X67982400Y-105604450D01*
X67980557Y-106236200D01*
X67987913Y-106310889D01*
X68009699Y-106382708D01*
X68045078Y-106448896D01*
X68092689Y-106506911D01*
X68150704Y-106554522D01*
X68216892Y-106589901D01*
X68288711Y-106611687D01*
X68363400Y-106619043D01*
X68767816Y-106617863D01*
X68530640Y-106855039D01*
X68497026Y-106882625D01*
X68469441Y-106916238D01*
X68386932Y-107016775D01*
X68335127Y-107113696D01*
X68305125Y-107169825D01*
X68254748Y-107335894D01*
X68244085Y-107444157D01*
X68094497Y-107444157D01*
X68076701Y-107385492D01*
X68041322Y-107319304D01*
X67993711Y-107261289D01*
X67935696Y-107213678D01*
X67869508Y-107178299D01*
X67797689Y-107156513D01*
X67723000Y-107149157D01*
X67704278Y-107149182D01*
X67722322Y-107127196D01*
X67757701Y-107061008D01*
X67779487Y-106989189D01*
X67786843Y-106914500D01*
X67785000Y-106595250D01*
X67689750Y-106500000D01*
X66952000Y-106500000D01*
X66952000Y-106520000D01*
X66906000Y-106520000D01*
X66906000Y-106500000D01*
X66886000Y-106500000D01*
X66886000Y-106454000D01*
X66906000Y-106454000D01*
X66906000Y-106434000D01*
X66952000Y-106434000D01*
X66952000Y-106454000D01*
X67689750Y-106454000D01*
X67785000Y-106358750D01*
X67786843Y-106039500D01*
X67779487Y-105964811D01*
X67757701Y-105892992D01*
X67722322Y-105826804D01*
X67674711Y-105768789D01*
X67616696Y-105721178D01*
X67550508Y-105685799D01*
X67478689Y-105664013D01*
X67445110Y-105660706D01*
X67519477Y-105620956D01*
X67610640Y-105546140D01*
X67685456Y-105454977D01*
X67741049Y-105350970D01*
X67775284Y-105238115D01*
X67786843Y-105120750D01*
X67786843Y-104683250D01*
X67775284Y-104565885D01*
X67746136Y-104469800D01*
X68089151Y-104469800D01*
X68045078Y-104523504D01*
G36*
X53486500Y-104783750D02*
G01*
X53581750Y-104879000D01*
X54282000Y-104879000D01*
X54282000Y-104859000D01*
X54328000Y-104859000D01*
X54328000Y-104879000D01*
X54348000Y-104879000D01*
X54348000Y-104925000D01*
X54328000Y-104925000D01*
X54328000Y-105662750D01*
X54329250Y-105664000D01*
X54328000Y-105665250D01*
X54328000Y-106403000D01*
X54348000Y-106403000D01*
X54348000Y-106449000D01*
X54328000Y-106449000D01*
X54328000Y-106469000D01*
X54282000Y-106469000D01*
X54282000Y-106449000D01*
X54262000Y-106449000D01*
X54262000Y-106403000D01*
X54282000Y-106403000D01*
X54282000Y-105665250D01*
X54280750Y-105664000D01*
X54282000Y-105662750D01*
X54282000Y-104925000D01*
X53581750Y-104925000D01*
X53486500Y-105020250D01*
X53485741Y-105167075D01*
X53464042Y-105134599D01*
X53355259Y-105025816D01*
X53227342Y-104940345D01*
X53085209Y-104881471D01*
X52934322Y-104851458D01*
X52780478Y-104851458D01*
X52629591Y-104881471D01*
X52487458Y-104940345D01*
X52359541Y-105025816D01*
X52250758Y-105134599D01*
X52165287Y-105262516D01*
X52106413Y-105404649D01*
X52076400Y-105555536D01*
X52076400Y-105593557D01*
X51877048Y-105593557D01*
X51594666Y-105311175D01*
X51578817Y-105291863D01*
X51501769Y-105228631D01*
X51413865Y-105181645D01*
X51318483Y-105152712D01*
X51244144Y-105145390D01*
X51244136Y-105145390D01*
X51219290Y-105142943D01*
X51194444Y-105145390D01*
X49574643Y-105145390D01*
X49574643Y-104630600D01*
X49567287Y-104555911D01*
X49545501Y-104484092D01*
X49537862Y-104469800D01*
X53484878Y-104469800D01*
X53486500Y-104783750D01*
G37*
X53486500Y-104783750D02*
X53581750Y-104879000D01*
X54282000Y-104879000D01*
X54282000Y-104859000D01*
X54328000Y-104859000D01*
X54328000Y-104879000D01*
X54348000Y-104879000D01*
X54348000Y-104925000D01*
X54328000Y-104925000D01*
X54328000Y-105662750D01*
X54329250Y-105664000D01*
X54328000Y-105665250D01*
X54328000Y-106403000D01*
X54348000Y-106403000D01*
X54348000Y-106449000D01*
X54328000Y-106449000D01*
X54328000Y-106469000D01*
X54282000Y-106469000D01*
X54282000Y-106449000D01*
X54262000Y-106449000D01*
X54262000Y-106403000D01*
X54282000Y-106403000D01*
X54282000Y-105665250D01*
X54280750Y-105664000D01*
X54282000Y-105662750D01*
X54282000Y-104925000D01*
X53581750Y-104925000D01*
X53486500Y-105020250D01*
X53485741Y-105167075D01*
X53464042Y-105134599D01*
X53355259Y-105025816D01*
X53227342Y-104940345D01*
X53085209Y-104881471D01*
X52934322Y-104851458D01*
X52780478Y-104851458D01*
X52629591Y-104881471D01*
X52487458Y-104940345D01*
X52359541Y-105025816D01*
X52250758Y-105134599D01*
X52165287Y-105262516D01*
X52106413Y-105404649D01*
X52076400Y-105555536D01*
X52076400Y-105593557D01*
X51877048Y-105593557D01*
X51594666Y-105311175D01*
X51578817Y-105291863D01*
X51501769Y-105228631D01*
X51413865Y-105181645D01*
X51318483Y-105152712D01*
X51244144Y-105145390D01*
X51244136Y-105145390D01*
X51219290Y-105142943D01*
X51194444Y-105145390D01*
X49574643Y-105145390D01*
X49574643Y-104630600D01*
X49567287Y-104555911D01*
X49545501Y-104484092D01*
X49537862Y-104469800D01*
X53484878Y-104469800D01*
X53486500Y-104783750D01*
G36*
X62074521Y-104479241D02*
G01*
X61997473Y-104542473D01*
X61981628Y-104561780D01*
X61508251Y-105035157D01*
X60841000Y-105035157D01*
X60766311Y-105042513D01*
X60694492Y-105064299D01*
X60628304Y-105099678D01*
X60570289Y-105147289D01*
X60522678Y-105205304D01*
X60487299Y-105271492D01*
X60465513Y-105343311D01*
X60458157Y-105418000D01*
X60458157Y-106085251D01*
X60191843Y-106351566D01*
X60191843Y-105418000D01*
X60184487Y-105343311D01*
X60162701Y-105271492D01*
X60127322Y-105205304D01*
X60079711Y-105147289D01*
X60021696Y-105099678D01*
X59955508Y-105064299D01*
X59883689Y-105042513D01*
X59809000Y-105035157D01*
X58809000Y-105035157D01*
X58734311Y-105042513D01*
X58662492Y-105064299D01*
X58596304Y-105099678D01*
X58538289Y-105147289D01*
X58490678Y-105205304D01*
X58455299Y-105271492D01*
X58433513Y-105343311D01*
X58426157Y-105418000D01*
X58426157Y-105971000D01*
X58185566Y-105971000D01*
X58160456Y-105924023D01*
X58085640Y-105832860D01*
X57994477Y-105758044D01*
X57890470Y-105702451D01*
X57847777Y-105689500D01*
X57890470Y-105676549D01*
X57994477Y-105620956D01*
X58085640Y-105546140D01*
X58160456Y-105454977D01*
X58216049Y-105350970D01*
X58250284Y-105238115D01*
X58261843Y-105120750D01*
X58261843Y-104683250D01*
X58250284Y-104565885D01*
X58221136Y-104469800D01*
X62092184Y-104469800D01*
X62074521Y-104479241D01*
G37*
X62074521Y-104479241D02*
X61997473Y-104542473D01*
X61981628Y-104561780D01*
X61508251Y-105035157D01*
X60841000Y-105035157D01*
X60766311Y-105042513D01*
X60694492Y-105064299D01*
X60628304Y-105099678D01*
X60570289Y-105147289D01*
X60522678Y-105205304D01*
X60487299Y-105271492D01*
X60465513Y-105343311D01*
X60458157Y-105418000D01*
X60458157Y-106085251D01*
X60191843Y-106351566D01*
X60191843Y-105418000D01*
X60184487Y-105343311D01*
X60162701Y-105271492D01*
X60127322Y-105205304D01*
X60079711Y-105147289D01*
X60021696Y-105099678D01*
X59955508Y-105064299D01*
X59883689Y-105042513D01*
X59809000Y-105035157D01*
X58809000Y-105035157D01*
X58734311Y-105042513D01*
X58662492Y-105064299D01*
X58596304Y-105099678D01*
X58538289Y-105147289D01*
X58490678Y-105205304D01*
X58455299Y-105271492D01*
X58433513Y-105343311D01*
X58426157Y-105418000D01*
X58426157Y-105971000D01*
X58185566Y-105971000D01*
X58160456Y-105924023D01*
X58085640Y-105832860D01*
X57994477Y-105758044D01*
X57890470Y-105702451D01*
X57847777Y-105689500D01*
X57890470Y-105676549D01*
X57994477Y-105620956D01*
X58085640Y-105546140D01*
X58160456Y-105454977D01*
X58216049Y-105350970D01*
X58250284Y-105238115D01*
X58261843Y-105120750D01*
X58261843Y-104683250D01*
X58250284Y-104565885D01*
X58221136Y-104469800D01*
X62092184Y-104469800D01*
X62074521Y-104479241D01*
M02*
