M48
; DRILL file {KiCad (5.1.6)-1} date 01/08/21 10:09:46
; FORMAT={-:-/ absolute / inch / decimal}
; #@! TF.CreationDate,2021-01-08T10:09:46+01:00
; #@! TF.GenerationSoftware,Kicad,Pcbnew,(5.1.6)-1
; #@! TF.FileFunction,Plated,1,4,PTH
FMAT,2
INCH
T1C0.0130
T2C0.0157
%
G90
G05
T1
X2.5826Y-4.2788
X2.5826Y-4.33
X2.5826Y-4.3812
X2.6338Y-4.2788
X2.6338Y-4.33
X2.6338Y-4.3812
T2
X1.9493Y-4.6807
X1.9607Y-4.4473
X1.981Y-4.375
X1.987Y-4.239
X1.9893Y-4.2929
X2.0602Y-4.298
X2.081Y-4.1588
X2.0847Y-4.23
X2.0914Y-4.5589
X2.0925Y-4.327
X2.0925Y-4.4361
X2.099Y-4.3785
X2.119Y-4.171
X2.1518Y-4.3132
X2.153Y-4.461
X2.183Y-4.3539
X2.197Y-4.507
X2.211Y-4.321
X2.233Y-4.5252
X2.253Y-4.319
X2.2559Y-4.6688
X2.275Y-4.491
X2.3169Y-4.543
X2.369Y-4.5695
X2.373Y-4.129
X2.5614Y-4.5714
X2.607Y-4.461
X2.7214Y-4.355
X2.7398Y-4.6084
X2.743Y-4.211
T0
M30
