G04 #@! TF.GenerationSoftware,KiCad,Pcbnew,(5.1.6)-1*
G04 #@! TF.CreationDate,2021-01-08T10:20:39+01:00*
G04 #@! TF.ProjectId,Lokdecoder_TI_altQuartz,4c6f6b64-6563-46f6-9465-725f54495f61,rev?*
G04 #@! TF.SameCoordinates,Original*
G04 #@! TF.FileFunction,Soldermask,Top*
G04 #@! TF.FilePolarity,Negative*
%FSLAX46Y46*%
G04 Gerber Fmt 4.6, Leading zero omitted, Abs format (unit mm)*
G04 Created by KiCad (PCBNEW (5.1.6)-1) date 2021-01-08 10:20:39*
%MOMM*%
%LPD*%
G01*
G04 APERTURE LIST*
%ADD10R,2.300000X1.700000*%
%ADD11R,0.650000X1.700000*%
%ADD12R,1.700000X0.650000*%
%ADD13R,1.100000X1.100000*%
%ADD14R,1.160000X0.750000*%
%ADD15R,2.400000X3.100000*%
%ADD16R,2.340000X0.640000*%
%ADD17C,0.770000*%
%ADD18R,1.600000X1.600000*%
G04 APERTURE END LIST*
D10*
X62801500Y-118840000D03*
X62801500Y-116840000D03*
G36*
G01*
X62333450Y-113949300D02*
X61770950Y-113949300D01*
G75*
G02*
X61527200Y-113705550I0J243750D01*
G01*
X61527200Y-113218050D01*
G75*
G02*
X61770950Y-112974300I243750J0D01*
G01*
X62333450Y-112974300D01*
G75*
G02*
X62577200Y-113218050I0J-243750D01*
G01*
X62577200Y-113705550D01*
G75*
G02*
X62333450Y-113949300I-243750J0D01*
G01*
G37*
G36*
G01*
X62333450Y-115524300D02*
X61770950Y-115524300D01*
G75*
G02*
X61527200Y-115280550I0J243750D01*
G01*
X61527200Y-114793050D01*
G75*
G02*
X61770950Y-114549300I243750J0D01*
G01*
X62333450Y-114549300D01*
G75*
G02*
X62577200Y-114793050I0J-243750D01*
G01*
X62577200Y-115280550D01*
G75*
G02*
X62333450Y-115524300I-243750J0D01*
G01*
G37*
D11*
X53200000Y-116791000D03*
X54000000Y-116791000D03*
X54800000Y-116791000D03*
X55600000Y-116791000D03*
X56400000Y-116791000D03*
X57200000Y-116791000D03*
X58000000Y-116791000D03*
X58800000Y-116791000D03*
D12*
X60250000Y-115341000D03*
X60250000Y-114541000D03*
X60250000Y-113741000D03*
X60250000Y-112941000D03*
X60250000Y-112141000D03*
X60250000Y-111341000D03*
X60250000Y-110541000D03*
X60250000Y-109741000D03*
D11*
X58800000Y-108291000D03*
X58000000Y-108291000D03*
X57200000Y-108291000D03*
X56400000Y-108291000D03*
X55600000Y-108291000D03*
X54800000Y-108291000D03*
X54000000Y-108291000D03*
X53200000Y-108291000D03*
D12*
X51750000Y-109741000D03*
X51750000Y-110541000D03*
X51750000Y-111341000D03*
X51750000Y-112141000D03*
X51750000Y-112941000D03*
X51750000Y-113741000D03*
X51750000Y-114541000D03*
X51750000Y-115341000D03*
G36*
G01*
X55021100Y-118565350D02*
X55021100Y-119127850D01*
G75*
G02*
X54777350Y-119371600I-243750J0D01*
G01*
X54289850Y-119371600D01*
G75*
G02*
X54046100Y-119127850I0J243750D01*
G01*
X54046100Y-118565350D01*
G75*
G02*
X54289850Y-118321600I243750J0D01*
G01*
X54777350Y-118321600D01*
G75*
G02*
X55021100Y-118565350I0J-243750D01*
G01*
G37*
G36*
G01*
X56596100Y-118565350D02*
X56596100Y-119127850D01*
G75*
G02*
X56352350Y-119371600I-243750J0D01*
G01*
X55864850Y-119371600D01*
G75*
G02*
X55621100Y-119127850I0J243750D01*
G01*
X55621100Y-118565350D01*
G75*
G02*
X55864850Y-118321600I243750J0D01*
G01*
X56352350Y-118321600D01*
G75*
G02*
X56596100Y-118565350I0J-243750D01*
G01*
G37*
G36*
G01*
X51871700Y-118565350D02*
X51871700Y-119127850D01*
G75*
G02*
X51627950Y-119371600I-243750J0D01*
G01*
X51140450Y-119371600D01*
G75*
G02*
X50896700Y-119127850I0J243750D01*
G01*
X50896700Y-118565350D01*
G75*
G02*
X51140450Y-118321600I243750J0D01*
G01*
X51627950Y-118321600D01*
G75*
G02*
X51871700Y-118565350I0J-243750D01*
G01*
G37*
G36*
G01*
X53446700Y-118565350D02*
X53446700Y-119127850D01*
G75*
G02*
X53202950Y-119371600I-243750J0D01*
G01*
X52715450Y-119371600D01*
G75*
G02*
X52471700Y-119127850I0J243750D01*
G01*
X52471700Y-118565350D01*
G75*
G02*
X52715450Y-118321600I243750J0D01*
G01*
X53202950Y-118321600D01*
G75*
G02*
X53446700Y-118565350I0J-243750D01*
G01*
G37*
G36*
G01*
X68372100Y-113793850D02*
X68372100Y-113231350D01*
G75*
G02*
X68615850Y-112987600I243750J0D01*
G01*
X69103350Y-112987600D01*
G75*
G02*
X69347100Y-113231350I0J-243750D01*
G01*
X69347100Y-113793850D01*
G75*
G02*
X69103350Y-114037600I-243750J0D01*
G01*
X68615850Y-114037600D01*
G75*
G02*
X68372100Y-113793850I0J243750D01*
G01*
G37*
G36*
G01*
X66797100Y-113793850D02*
X66797100Y-113231350D01*
G75*
G02*
X67040850Y-112987600I243750J0D01*
G01*
X67528350Y-112987600D01*
G75*
G02*
X67772100Y-113231350I0J-243750D01*
G01*
X67772100Y-113793850D01*
G75*
G02*
X67528350Y-114037600I-243750J0D01*
G01*
X67040850Y-114037600D01*
G75*
G02*
X66797100Y-113793850I0J243750D01*
G01*
G37*
G36*
G01*
X67210250Y-106964500D02*
X66647750Y-106964500D01*
G75*
G02*
X66404000Y-106720750I0J243750D01*
G01*
X66404000Y-106233250D01*
G75*
G02*
X66647750Y-105989500I243750J0D01*
G01*
X67210250Y-105989500D01*
G75*
G02*
X67454000Y-106233250I0J-243750D01*
G01*
X67454000Y-106720750D01*
G75*
G02*
X67210250Y-106964500I-243750J0D01*
G01*
G37*
G36*
G01*
X67210250Y-105389500D02*
X66647750Y-105389500D01*
G75*
G02*
X66404000Y-105145750I0J243750D01*
G01*
X66404000Y-104658250D01*
G75*
G02*
X66647750Y-104414500I243750J0D01*
G01*
X67210250Y-104414500D01*
G75*
G02*
X67454000Y-104658250I0J-243750D01*
G01*
X67454000Y-105145750D01*
G75*
G02*
X67210250Y-105389500I-243750J0D01*
G01*
G37*
D13*
X48742600Y-118237000D03*
X48691800Y-105130600D03*
X48742600Y-116205000D03*
X48742600Y-114173000D03*
X48742600Y-112141000D03*
X63373000Y-105918000D03*
X61341000Y-105918000D03*
X59309000Y-105918000D03*
X48691800Y-107162600D03*
G36*
G01*
X49956800Y-106732650D02*
X49956800Y-106170150D01*
G75*
G02*
X50200550Y-105926400I243750J0D01*
G01*
X50688050Y-105926400D01*
G75*
G02*
X50931800Y-106170150I0J-243750D01*
G01*
X50931800Y-106732650D01*
G75*
G02*
X50688050Y-106976400I-243750J0D01*
G01*
X50200550Y-106976400D01*
G75*
G02*
X49956800Y-106732650I0J243750D01*
G01*
G37*
G36*
G01*
X51531800Y-106732650D02*
X51531800Y-106170150D01*
G75*
G02*
X51775550Y-105926400I243750J0D01*
G01*
X52263050Y-105926400D01*
G75*
G02*
X52506800Y-106170150I0J-243750D01*
G01*
X52506800Y-106732650D01*
G75*
G02*
X52263050Y-106976400I-243750J0D01*
G01*
X51775550Y-106976400D01*
G75*
G02*
X51531800Y-106732650I0J243750D01*
G01*
G37*
G36*
G01*
X54792500Y-106144750D02*
X54792500Y-106707250D01*
G75*
G02*
X54548750Y-106951000I-243750J0D01*
G01*
X54061250Y-106951000D01*
G75*
G02*
X53817500Y-106707250I0J243750D01*
G01*
X53817500Y-106144750D01*
G75*
G02*
X54061250Y-105901000I243750J0D01*
G01*
X54548750Y-105901000D01*
G75*
G02*
X54792500Y-106144750I0J-243750D01*
G01*
G37*
G36*
G01*
X56367500Y-106144750D02*
X56367500Y-106707250D01*
G75*
G02*
X56123750Y-106951000I-243750J0D01*
G01*
X55636250Y-106951000D01*
G75*
G02*
X55392500Y-106707250I0J243750D01*
G01*
X55392500Y-106144750D01*
G75*
G02*
X55636250Y-105901000I243750J0D01*
G01*
X56123750Y-105901000D01*
G75*
G02*
X56367500Y-106144750I0J-243750D01*
G01*
G37*
G36*
G01*
X64818950Y-112974100D02*
X65381450Y-112974100D01*
G75*
G02*
X65625200Y-113217850I0J-243750D01*
G01*
X65625200Y-113705350D01*
G75*
G02*
X65381450Y-113949100I-243750J0D01*
G01*
X64818950Y-113949100D01*
G75*
G02*
X64575200Y-113705350I0J243750D01*
G01*
X64575200Y-113217850D01*
G75*
G02*
X64818950Y-112974100I243750J0D01*
G01*
G37*
G36*
G01*
X64818950Y-114549100D02*
X65381450Y-114549100D01*
G75*
G02*
X65625200Y-114792850I0J-243750D01*
G01*
X65625200Y-115280350D01*
G75*
G02*
X65381450Y-115524100I-243750J0D01*
G01*
X64818950Y-115524100D01*
G75*
G02*
X64575200Y-115280350I0J243750D01*
G01*
X64575200Y-114792850D01*
G75*
G02*
X64818950Y-114549100I243750J0D01*
G01*
G37*
G36*
G01*
X66358000Y-119416750D02*
X66358000Y-118454250D01*
G75*
G02*
X66626750Y-118185500I268750J0D01*
G01*
X67164250Y-118185500D01*
G75*
G02*
X67433000Y-118454250I0J-268750D01*
G01*
X67433000Y-119416750D01*
G75*
G02*
X67164250Y-119685500I-268750J0D01*
G01*
X66626750Y-119685500D01*
G75*
G02*
X66358000Y-119416750I0J268750D01*
G01*
G37*
G36*
G01*
X68233000Y-119416750D02*
X68233000Y-118454250D01*
G75*
G02*
X68501750Y-118185500I268750J0D01*
G01*
X69039250Y-118185500D01*
G75*
G02*
X69308000Y-118454250I0J-268750D01*
G01*
X69308000Y-119416750D01*
G75*
G02*
X69039250Y-119685500I-268750J0D01*
G01*
X68501750Y-119685500D01*
G75*
G02*
X68233000Y-119416750I0J268750D01*
G01*
G37*
G36*
G01*
X60091500Y-119407250D02*
X60091500Y-118844750D01*
G75*
G02*
X60335250Y-118601000I243750J0D01*
G01*
X60822750Y-118601000D01*
G75*
G02*
X61066500Y-118844750I0J-243750D01*
G01*
X61066500Y-119407250D01*
G75*
G02*
X60822750Y-119651000I-243750J0D01*
G01*
X60335250Y-119651000D01*
G75*
G02*
X60091500Y-119407250I0J243750D01*
G01*
G37*
G36*
G01*
X58516500Y-119407250D02*
X58516500Y-118844750D01*
G75*
G02*
X58760250Y-118601000I243750J0D01*
G01*
X59247750Y-118601000D01*
G75*
G02*
X59491500Y-118844750I0J-243750D01*
G01*
X59491500Y-119407250D01*
G75*
G02*
X59247750Y-119651000I-243750J0D01*
G01*
X58760250Y-119651000D01*
G75*
G02*
X58516500Y-119407250I0J243750D01*
G01*
G37*
G36*
G01*
X63294950Y-114549300D02*
X63857450Y-114549300D01*
G75*
G02*
X64101200Y-114793050I0J-243750D01*
G01*
X64101200Y-115280550D01*
G75*
G02*
X63857450Y-115524300I-243750J0D01*
G01*
X63294950Y-115524300D01*
G75*
G02*
X63051200Y-115280550I0J243750D01*
G01*
X63051200Y-114793050D01*
G75*
G02*
X63294950Y-114549300I243750J0D01*
G01*
G37*
G36*
G01*
X63294950Y-112974300D02*
X63857450Y-112974300D01*
G75*
G02*
X64101200Y-113218050I0J-243750D01*
G01*
X64101200Y-113705550D01*
G75*
G02*
X63857450Y-113949300I-243750J0D01*
G01*
X63294950Y-113949300D01*
G75*
G02*
X63051200Y-113705550I0J243750D01*
G01*
X63051200Y-113218050D01*
G75*
G02*
X63294950Y-112974300I243750J0D01*
G01*
G37*
G36*
G01*
X57122750Y-104414500D02*
X57685250Y-104414500D01*
G75*
G02*
X57929000Y-104658250I0J-243750D01*
G01*
X57929000Y-105145750D01*
G75*
G02*
X57685250Y-105389500I-243750J0D01*
G01*
X57122750Y-105389500D01*
G75*
G02*
X56879000Y-105145750I0J243750D01*
G01*
X56879000Y-104658250D01*
G75*
G02*
X57122750Y-104414500I243750J0D01*
G01*
G37*
G36*
G01*
X57122750Y-105989500D02*
X57685250Y-105989500D01*
G75*
G02*
X57929000Y-106233250I0J-243750D01*
G01*
X57929000Y-106720750D01*
G75*
G02*
X57685250Y-106964500I-243750J0D01*
G01*
X57122750Y-106964500D01*
G75*
G02*
X56879000Y-106720750I0J243750D01*
G01*
X56879000Y-106233250D01*
G75*
G02*
X57122750Y-105989500I243750J0D01*
G01*
G37*
G36*
G01*
X65559250Y-106964500D02*
X64996750Y-106964500D01*
G75*
G02*
X64753000Y-106720750I0J243750D01*
G01*
X64753000Y-106233250D01*
G75*
G02*
X64996750Y-105989500I243750J0D01*
G01*
X65559250Y-105989500D01*
G75*
G02*
X65803000Y-106233250I0J-243750D01*
G01*
X65803000Y-106720750D01*
G75*
G02*
X65559250Y-106964500I-243750J0D01*
G01*
G37*
G36*
G01*
X65559250Y-105389500D02*
X64996750Y-105389500D01*
G75*
G02*
X64753000Y-105145750I0J243750D01*
G01*
X64753000Y-104658250D01*
G75*
G02*
X64996750Y-104414500I243750J0D01*
G01*
X65559250Y-104414500D01*
G75*
G02*
X65803000Y-104658250I0J-243750D01*
G01*
X65803000Y-105145750D01*
G75*
G02*
X65559250Y-105389500I-243750J0D01*
G01*
G37*
D14*
X68875000Y-117053400D03*
X68875000Y-116103400D03*
X68875000Y-115153400D03*
X66675000Y-115153400D03*
X66675000Y-117053400D03*
D15*
X66248000Y-109982000D03*
D16*
X63373000Y-108077000D03*
X63373000Y-109347000D03*
X63373000Y-110617000D03*
X63373000Y-111887000D03*
X69123000Y-111887000D03*
X69123000Y-110617000D03*
X69123000Y-109347000D03*
X69123000Y-108077000D03*
D17*
X65598000Y-108682000D03*
X65598000Y-109982000D03*
X66898000Y-109982000D03*
X66898000Y-108682000D03*
X65598000Y-111282000D03*
X66898000Y-111282000D03*
G36*
G01*
X48461350Y-109951800D02*
X49023850Y-109951800D01*
G75*
G02*
X49267600Y-110195550I0J-243750D01*
G01*
X49267600Y-110683050D01*
G75*
G02*
X49023850Y-110926800I-243750J0D01*
G01*
X48461350Y-110926800D01*
G75*
G02*
X48217600Y-110683050I0J243750D01*
G01*
X48217600Y-110195550D01*
G75*
G02*
X48461350Y-109951800I243750J0D01*
G01*
G37*
G36*
G01*
X48461350Y-108376800D02*
X49023850Y-108376800D01*
G75*
G02*
X49267600Y-108620550I0J-243750D01*
G01*
X49267600Y-109108050D01*
G75*
G02*
X49023850Y-109351800I-243750J0D01*
G01*
X48461350Y-109351800D01*
G75*
G02*
X48217600Y-109108050I0J243750D01*
G01*
X48217600Y-108620550D01*
G75*
G02*
X48461350Y-108376800I243750J0D01*
G01*
G37*
G36*
G01*
X55392500Y-105183250D02*
X55392500Y-104620750D01*
G75*
G02*
X55636250Y-104377000I243750J0D01*
G01*
X56123750Y-104377000D01*
G75*
G02*
X56367500Y-104620750I0J-243750D01*
G01*
X56367500Y-105183250D01*
G75*
G02*
X56123750Y-105427000I-243750J0D01*
G01*
X55636250Y-105427000D01*
G75*
G02*
X55392500Y-105183250I0J243750D01*
G01*
G37*
G36*
G01*
X53817500Y-105183250D02*
X53817500Y-104620750D01*
G75*
G02*
X54061250Y-104377000I243750J0D01*
G01*
X54548750Y-104377000D01*
G75*
G02*
X54792500Y-104620750I0J-243750D01*
G01*
X54792500Y-105183250D01*
G75*
G02*
X54548750Y-105427000I-243750J0D01*
G01*
X54061250Y-105427000D01*
G75*
G02*
X53817500Y-105183250I0J243750D01*
G01*
G37*
D18*
X69113400Y-105486200D03*
M02*
